Ayanna-latin-0.ufo
<glyph name="numbersign" format="2">
	<advance width="654"/>
	<unicode hex="0023"/>
	<outline>
		<contour>
			<point x="297" y="675" type="line"/>
			<point x="101" y="0" type="line"/>
			<point x="140" y="0" type="line"/>
			<point x="335" y="675" type="line"/>
		</contour>
		<contour>
			<point x="508" y="675" type="line"/>
			<point x="313" y="0" type="line"/>
			<point x="352" y="0" type="line"/>
			<point x="546" y="675" type="line"/>
		</contour>
		<contour>
			<point x="88" y="482" type="line"/>
			<point x="88" y="452" type="line"/>
			<point x="635" y="452" type="line"/>
			<point x="635" y="482" type="line"/>
		</contour>
		<contour>
			<point x="19" y="240" type="line"/>
			<point x="19" y="210" type="line"/>
			<point x="565" y="211" type="line"/>
			<point x="565" y="240" type="line"/>
		</contour>
	</outline>
</glyph>
<glyph name="percent" format="2">
	<advance width="785"/>
	<unicode hex="0025"/>
	<outline>
		<contour>
			<point x="304" y="441"/>
			<point x="256" y="378"/>
			<point x="187" y="378" type="curve" smooth="yes"/>
			<point x="114" y="378"/>
			<point x="69" y="441"/>
			<point x="69" y="536" type="curve" smooth="yes"/>
			<point x="69" y="636"/>
			<point x="112" y="691"/>
			<point x="188" y="691" type="curve" smooth="yes"/>
			<point x="262" y="691"/>
			<point x="304" y="636"/>
			<point x="304" y="535" type="curve" smooth="yes"/>
		</contour>
		<contour>
			<point x="343" y="656"/>
			<point x="284" y="725"/>
			<point x="188" y="725" type="curve" smooth="yes"/>
			<point x="92" y="725"/>
			<point x="30" y="653"/>
			<point x="30" y="535" type="curve" smooth="yes"/>
			<point x="30" y="421"/>
			<point x="93" y="346"/>
			<point x="186" y="346" type="curve" smooth="yes"/>
			<point x="276" y="346"/>
			<point x="343" y="423"/>
			<point x="343" y="535" type="curve" smooth="yes"/>
		</contour>
		<contour>
			<point x="716" y="88"/>
			<point x="668" y="25"/>
			<point x="599" y="25" type="curve" smooth="yes"/>
			<point x="526" y="25"/>
			<point x="481" y="88"/>
			<point x="481" y="183" type="curve" smooth="yes"/>
			<point x="481" y="283"/>
			<point x="524" y="340"/>
			<point x="600" y="340" type="curve" smooth="yes"/>
			<point x="674" y="340"/>
			<point x="716" y="283"/>
			<point x="716" y="182" type="curve" smooth="yes"/>
		</contour>
		<contour>
			<point x="755" y="303"/>
			<point x="696" y="372"/>
			<point x="600" y="372" type="curve" smooth="yes"/>
			<point x="504" y="372"/>
			<point x="442" y="300"/>
			<point x="442" y="182" type="curve" smooth="yes"/>
			<point x="442" y="68"/>
			<point x="505" y="-7"/>
			<point x="598" y="-7" type="curve" smooth="yes"/>
			<point x="688" y="-7"/>
			<point x="755" y="70"/>
			<point x="755" y="182" type="curve" smooth="yes"/>
		</contour>
		<component base="fraction" xOffset="135"/>
	</outline>
</glyph>
<glyph name="ampersand" format="2">
	<advance width="650"/>
	<unicode hex="0026"/>
	<outline>
		<contour>
			<point x="398" y="-7"/>
			<point x="546" y="104"/>
			<point x="546" y="356" type="curve"/>
			<point x="505" y="356" type="line"/>
			<point x="505" y="124"/>
			<point x="383" y="30"/>
			<point x="273" y="30" type="curve" smooth="yes"/>
			<point x="185" y="30"/>
			<point x="106" y="91"/>
			<point x="106" y="193" type="curve" smooth="yes"/>
			<point x="106" y="359"/>
			<point x="385" y="423"/>
			<point x="385" y="605" type="curve" smooth="yes"/>
			<point x="385" y="690"/>
			<point x="325" y="732"/>
			<point x="257" y="732" type="curve" smooth="yes"/>
			<point x="187" y="732"/>
			<point x="126" y="689"/>
			<point x="126" y="604" type="curve" smooth="yes"/>
			<point x="126" y="431"/>
			<point x="439" y="128"/>
			<point x="570" y="-2" type="curve"/>
			<point x="600" y="26" type="line"/>
			<point x="477" y="155"/>
			<point x="168" y="447"/>
			<point x="167" y="605" type="curve" smooth="yes"/>
			<point x="168" y="665"/>
			<point x="208" y="697"/>
			<point x="258" y="697" type="curve" smooth="yes"/>
			<point x="305" y="697"/>
			<point x="343" y="667"/>
			<point x="343" y="605" type="curve" smooth="yes"/>
			<point x="343" y="441"/>
			<point x="64" y="376"/>
			<point x="64" y="193" type="curve" smooth="yes"/>
			<point x="64" y="64"/>
			<point x="160" y="-7"/>
			<point x="266" y="-7" type="curve" smooth="yes"/>
		</contour>
	</outline>
</glyph>
<glyph name="quotesingle" format="2">
	<advance width="149"/>
	<unicode hex="0027"/>
	<outline>
		<contour>
			<point x="99" y="725" type="line"/>
			<point x="50" y="725" type="line"/>
			<point x="59" y="537" type="line"/>
			<point x="90" y="537" type="line"/>
		</contour>
	</outline>
</glyph>
<glyph name="parenleft" format="1">
  <advance width="258"/>
  <unicode hex="0028"/>
  <outline>
    <contour>
      <point x="160" y="-17"/>
      <point x="118" y="139"/>
      <point x="118" y="294" type="curve" smooth="yes"/>
      <point x="118" y="450"/>
      <point x="160" y="605"/>
      <point x="243" y="741" type="curve"/>
      <point x="207" y="758" type="line"/>
      <point x="121" y="616"/>
      <point x="77" y="454"/>
      <point x="77" y="292" type="curve" smooth="yes"/>
      <point x="77" y="132"/>
      <point x="120" y="-29"/>
      <point x="207" y="-171" type="curve"/>
      <point x="243" y="-153" type="line"/>
    </contour>
  </outline>
</glyph>
<glyph name="asterisk" format="1">
  <advance width="372"/>
  <unicode hex="002A"/>
  <outline>
    <contour>
      <point x="195" y="593" type="line"/>
      <point x="209" y="674" type="line" smooth="yes"/>
      <point x="215" y="708"/>
      <point x="199" y="728"/>
      <point x="159" y="713" type="curve"/>
      <point x="174" y="593" type="line"/>
    </contour>
    <contour>
      <point x="167" y="585" type="line"/>
      <point x="93" y="624" type="line" smooth="yes"/>
      <point x="62" y="641"/>
      <point x="38" y="633"/>
      <point x="40" y="589" type="curve"/>
      <point x="161" y="567" type="line"/>
    </contour>
    <contour>
      <point x="165" y="560" type="line"/>
      <point x="105" y="501" type="line" smooth="yes"/>
      <point x="80" y="477"/>
      <point x="80" y="452"/>
      <point x="122" y="441" type="curve"/>
      <point x="180" y="547" type="line"/>
    </contour>
    <contour>
      <point x="191" y="547" type="line"/>
      <point x="229" y="472" type="line" smooth="yes"/>
      <point x="243" y="441"/>
      <point x="270" y="431"/>
      <point x="291" y="469" type="curve"/>
      <point x="207" y="559" type="line"/>
    </contour>
    <contour>
      <point x="210" y="568" type="line"/>
      <point x="290" y="581" type="line" smooth="yes"/>
      <point x="324" y="585"/>
      <point x="340" y="604"/>
      <point x="312" y="639" type="curve"/>
      <point x="203" y="587" type="line"/>
    </contour>
  </outline>
</glyph>
<glyph name="plus" format="2">
	<advance width="454"/>
	<unicode hex="002B"/>
	<outline>
		<contour>
			<point x="248" y="65" type="line"/>
			<point x="248" y="450" type="line"/>
			<point x="207" y="450" type="line"/>
			<point x="207" y="65" type="line"/>
		</contour>
		<contour>
			<point x="424" y="239" type="line"/>
			<point x="424" y="276" type="line"/>
			<point x="30" y="276" type="line"/>
			<point x="30" y="239" type="line"/>
		</contour>
	</outline>
</glyph>
<glyph name="comma" format="1">
  <advance width="169"/>
  <unicode hex="002C"/>
  <outline>
    <contour>
      <point x="87" y="-76"/>
      <point x="115" y="-17"/>
      <point x="115" y="25" type="curve" smooth="yes"/>
      <point x="115" y="57"/>
      <point x="96" y="72"/>
      <point x="77" y="72" type="curve" smooth="yes"/>
      <point x="58" y="72"/>
      <point x="40" y="58"/>
      <point x="40" y="31" type="curve" smooth="yes"/>
      <point x="40" y="14"/>
      <point x="49" y="-2"/>
      <point x="69" y="-8" type="curve"/>
      <point x="66" y="-39"/>
      <point x="51" y="-68"/>
      <point x="28" y="-100" type="curve"/>
      <point x="44" y="-115" type="line"/>
    </contour>
  </outline>
</glyph>
<glyph name="period" format="1">
  <advance width="180"/>
  <unicode hex="002E"/>
  <outline>
    <contour>
      <point x="112" y="-5"/>
      <point x="125" y="11"/>
      <point x="125" y="34" type="curve" smooth="yes"/>
      <point x="125" y="56"/>
      <point x="112" y="72"/>
      <point x="90" y="72" type="curve" smooth="yes"/>
      <point x="68" y="72"/>
      <point x="55" y="56"/>
      <point x="55" y="34" type="curve" smooth="yes"/>
      <point x="55" y="11"/>
      <point x="68" y="-5"/>
      <point x="90" y="-5" type="curve" smooth="yes"/>
    </contour>
  </outline>
</glyph>
<glyph name="slash" format="2">
	<advance width="375"/>
	<unicode hex="002F"/>
	<outline>
		<contour>
			<point x="318" y="725" type="line"/>
			<point x="30" y="-69" type="line"/>
			<point x="69" y="-70" type="line"/>
			<point x="355" y="725" type="line"/>
		</contour>
	</outline>
</glyph>
<glyph name="zero" format="2">
	<advance width="588"/>
	<unicode hex="0030"/>
	<outline>
		<contour>
			<point x="478" y="124"/>
			<point x="399" y="29"/>
			<point x="294" y="29" type="curve" smooth="yes"/>
			<point x="182" y="29"/>
			<point x="109" y="123"/>
			<point x="109" y="270" type="curve" smooth="yes"/>
			<point x="109" y="423"/>
			<point x="179" y="510"/>
			<point x="295" y="510" type="curve" smooth="yes"/>
			<point x="409" y="510"/>
			<point x="478" y="424"/>
			<point x="478" y="269" type="curve" smooth="yes"/>
		</contour>
		<contour>
			<point x="523" y="445"/>
			<point x="437" y="547"/>
			<point x="295" y="547" type="curve" smooth="yes"/>
			<point x="154" y="547"/>
			<point x="64" y="442"/>
			<point x="64" y="269" type="curve" smooth="yes"/>
			<point x="64" y="101"/>
			<point x="156" y="-8"/>
			<point x="293" y="-8" type="curve" smooth="yes"/>
			<point x="425" y="-8"/>
			<point x="523" y="104"/>
			<point x="523" y="269" type="curve" smooth="yes"/>
		</contour>
	</outline>
</glyph>
<glyph name="two" format="2">
	<advance width="425"/>
	<unicode hex="0032"/>
	<outline>
		<contour>
			<point x="368" y="1" type="line"/>
			<point x="368" y="39" type="line"/>
			<point x="92" y="39" type="line"/>
			<point x="96" y="31" type="line"/>
			<point x="219" y="170" type="line" smooth="yes"/>
			<point x="285" y="245"/>
			<point x="357" y="310"/>
			<point x="357" y="388" type="curve" smooth="yes"/>
			<point x="357" y="490"/>
			<point x="276" y="547"/>
			<point x="190" y="547" type="curve" smooth="yes"/>
			<point x="131" y="547"/>
			<point x="71" y="521"/>
			<point x="32" y="463" type="curve"/>
			<point x="67" y="444" type="line"/>
			<point x="97" y="488"/>
			<point x="145" y="510"/>
			<point x="189" y="510" type="curve" smooth="yes"/>
			<point x="253" y="510"/>
			<point x="312" y="467"/>
			<point x="312" y="387" type="curve" smooth="yes"/>
			<point x="312" y="325"/>
			<point x="264" y="273"/>
			<point x="197" y="201" type="curve" smooth="yes"/>
			<point x="29" y="22" type="line"/>
			<point x="29" y="1" type="line"/>
		</contour>
	</outline>
</glyph>
<glyph name="three" format="2">
	<advance width="415"/>
	<unicode hex="0033"/>
	<outline>
		<contour>
			<point x="118" y="-142"/>
			<point x="173" y="-142" type="curve" smooth="yes"/>
			<point x="282" y="-142"/>
			<point x="380" y="-65"/>
			<point x="380" y="60" type="curve" smooth="yes"/>
			<point x="380" y="152"/>
			<point x="316" y="235"/>
			<point x="193" y="235" type="curve"/>
			<point x="193" y="223" type="line"/>
			<point x="293" y="223"/>
			<point x="353" y="303"/>
			<point x="353" y="388" type="curve" smooth="yes"/>
			<point x="353" y="488"/>
			<point x="270" y="547"/>
			<point x="185" y="547" type="curve" smooth="yes"/>
			<point x="126" y="547"/>
			<point x="67" y="520"/>
			<point x="31" y="459" type="curve"/>
			<point x="68" y="441" type="line"/>
			<point x="96" y="488"/>
			<point x="141" y="510"/>
			<point x="185" y="510" type="curve" smooth="yes"/>
			<point x="248" y="510"/>
			<point x="308" y="464"/>
			<point x="308" y="385" type="curve" smooth="yes"/>
			<point x="308" y="312"/>
			<point x="256" y="244"/>
			<point x="160" y="244" type="curve" smooth="yes"/>
			<point x="121" y="244" type="line"/>
			<point x="121" y="208" type="line"/>
			<point x="183" y="208" type="line" smooth="yes"/>
			<point x="282" y="208"/>
			<point x="335" y="137"/>
			<point x="335" y="58" type="curve" smooth="yes"/>
			<point x="335" y="-42"/>
			<point x="260" y="-104"/>
			<point x="174" y="-104" type="curve" smooth="yes"/>
			<point x="129" y="-104"/>
			<point x="81" y="-87"/>
			<point x="39" y="-50" type="curve"/>
			<point x="10" y="-80" type="line"/>
			<point x="60" y="-123"/>
		</contour>
	</outline>
</glyph>
<glyph name="four" format="2">
	<advance width="494"/>
	<unicode hex="0034"/>
	<outline>
		<contour>
			<point x="371" y="-135" type="line"/>
			<point x="371" y="540" type="line"/>
			<point x="334" y="540" type="line"/>
			<point x="28" y="78" type="line"/>
			<point x="35" y="47" type="line"/>
			<point x="474" y="48" type="line"/>
			<point x="474" y="85" type="line"/>
			<point x="70" y="84" type="line"/>
			<point x="77" y="78" type="line"/>
			<point x="340" y="478" type="line"/>
			<point x="329" y="478" type="line"/>
			<point x="329" y="-135" type="line"/>
		</contour>
	</outline>
</glyph>
<glyph name="six" format="2">
	<advance width="523"/>
	<unicode hex="0036"/>
	<outline>
		<contour>
			<point x="391" y="-7"/>
			<point x="463" y="109"/>
			<point x="463" y="211" type="curve" smooth="yes"/>
			<point x="463" y="355"/>
			<point x="366" y="431"/>
			<point x="270" y="431" type="curve" smooth="yes"/>
			<point x="200" y="431"/>
			<point x="124" y="388"/>
			<point x="89" y="296" type="curve"/>
			<point x="100" y="295" type="line"/>
			<point x="96" y="457"/>
			<point x="140" y="645"/>
			<point x="292" y="645" type="curve" smooth="yes"/>
			<point x="337" y="645"/>
			<point x="381" y="626"/>
			<point x="409" y="590" type="curve"/>
			<point x="439" y="614" type="line"/>
			<point x="405" y="658"/>
			<point x="351" y="682"/>
			<point x="295" y="682" type="curve" smooth="yes"/>
			<point x="121" y="682"/>
			<point x="56" y="494"/>
			<point x="56" y="295" type="curve" smooth="yes"/>
			<point x="56" y="130"/>
			<point x="120" y="-7"/>
			<point x="260" y="-7" type="curve" smooth="yes"/>
		</contour>
		<contour>
			<point x="186" y="30"/>
			<point x="108" y="101"/>
			<point x="108" y="213" type="curve" smooth="yes"/>
			<point x="108" y="340"/>
			<point x="192" y="394"/>
			<point x="268" y="394" type="curve" smooth="yes"/>
			<point x="343" y="394"/>
			<point x="419" y="336"/>
			<point x="419" y="209" type="curve" smooth="yes"/>
			<point x="419" y="94"/>
			<point x="339" y="30"/>
			<point x="262" y="30" type="curve" smooth="yes"/>
		</contour>
	</outline>
</glyph>
<glyph name="eight" format="1">
  <advance width="459"/>
  <unicode hex="0038"/>
  <outline>
    <contour>
      <point x="331" y="-7"/>
      <point x="426" y="64"/>
      <point x="426" y="177" type="curve" smooth="yes"/>
      <point x="426" y="280"/>
      <point x="362" y="349"/>
      <point x="294" y="359" type="curve"/>
      <point x="357" y="377"/>
      <point x="404" y="436"/>
      <point x="404" y="518" type="curve" smooth="yes"/>
      <point x="404" y="627"/>
      <point x="328" y="682"/>
      <point x="235" y="682" type="curve" smooth="yes"/>
      <point x="141" y="682"/>
      <point x="57" y="626"/>
      <point x="57" y="514" type="curve" smooth="yes"/>
      <point x="57" y="431"/>
      <point x="111" y="377"/>
      <point x="163" y="362" type="curve"/>
      <point x="100" y="343"/>
      <point x="33" y="276"/>
      <point x="33" y="178" type="curve" smooth="yes"/>
      <point x="33" y="64"/>
      <point x="118" y="-7"/>
      <point x="225" y="-7" type="curve" smooth="yes"/>
    </contour>
    <contour>
      <point x="145" y="30"/>
      <point x="76" y="89"/>
      <point x="76" y="179" type="curve" smooth="yes"/>
      <point x="76" y="285"/>
      <point x="146" y="342"/>
      <point x="229" y="342" type="curve" smooth="yes"/>
      <point x="312" y="342"/>
      <point x="382" y="285"/>
      <point x="382" y="178" type="curve" smooth="yes"/>
      <point x="382" y="89"/>
      <point x="313" y="30"/>
      <point x="229" y="30" type="curve" smooth="yes"/>
    </contour>
    <contour>
      <point x="160" y="378"/>
      <point x="100" y="425"/>
      <point x="100" y="515" type="curve" smooth="yes"/>
      <point x="100" y="604"/>
      <point x="159" y="647"/>
      <point x="232" y="647" type="curve" smooth="yes"/>
      <point x="305" y="647"/>
      <point x="363" y="605"/>
      <point x="363" y="518" type="curve" smooth="yes"/>
      <point x="363" y="426"/>
      <point x="306" y="378"/>
      <point x="232" y="378" type="curve" smooth="yes"/>
    </contour>
  </outline>
</glyph>
<glyph name="nine" format="1">
  <advance width="522"/>
  <unicode hex="0039"/>
  <outline>
    <contour>
      <point x="129" y="547"/>
      <point x="57" y="439"/>
      <point x="57" y="329" type="curve" smooth="yes"/>
      <point x="57" y="195"/>
      <point x="147" y="112"/>
      <point x="250" y="112" type="curve" smooth="yes"/>
      <point x="317" y="112"/>
      <point x="392" y="154"/>
      <point x="427" y="246" type="curve"/>
      <point x="418" y="247" type="line"/>
      <point x="422" y="72"/>
      <point x="374" y="-105"/>
      <point x="227" y="-105" type="curve" smooth="yes"/>
      <point x="189" y="-105"/>
      <point x="142" y="-88"/>
      <point x="113" y="-50" type="curve"/>
      <point x="83" y="-74" type="line"/>
      <point x="117" y="-119"/>
      <point x="173" y="-142"/>
      <point x="224" y="-142" type="curve" smooth="yes"/>
      <point x="388" y="-142"/>
      <point x="462" y="35"/>
      <point x="462" y="252" type="curve" smooth="yes"/>
      <point x="462" y="422"/>
      <point x="399" y="547"/>
      <point x="259" y="547" type="curve" smooth="yes"/>
    </contour>
    <contour>
      <point x="182" y="510"/>
      <point x="257" y="510" type="curve" smooth="yes"/>
      <point x="332" y="510"/>
      <point x="410" y="448"/>
      <point x="410" y="332" type="curve" smooth="yes"/>
      <point x="410" y="207"/>
      <point x="328" y="149"/>
      <point x="251" y="149" type="curve" smooth="yes"/>
      <point x="177" y="149"/>
      <point x="101" y="207"/>
      <point x="101" y="332" type="curve" smooth="yes"/>
      <point x="101" y="457"/>
    </contour>
  </outline>
</glyph>
<glyph name="semicolon" format="2">
	<advance width="210"/>
	<unicode hex="003B"/>
	<outline>
		<contour>
			<point x="117" y="-76"/>
			<point x="145" y="-17"/>
			<point x="145" y="25" type="curve" smooth="yes"/>
			<point x="145" y="57"/>
			<point x="126" y="72"/>
			<point x="107" y="72" type="curve" smooth="yes"/>
			<point x="88" y="72"/>
			<point x="70" y="58"/>
			<point x="70" y="31" type="curve" smooth="yes"/>
			<point x="70" y="14"/>
			<point x="79" y="-2"/>
			<point x="99" y="-8" type="curve"/>
			<point x="96" y="-39"/>
			<point x="81" y="-68"/>
			<point x="58" y="-100" type="curve"/>
			<point x="74" y="-115" type="line"/>
		</contour>
		<component base="period" xOffset="15" yOffset="296"/>
	</outline>
</glyph>
<glyph name="equal" format="1">
  <advance width="544"/>
  <unicode hex="003D"/>
  <outline>
    <contour>
      <point x="469" y="302" type="line"/>
      <point x="469" y="339" type="line"/>
      <point x="75" y="339" type="line"/>
      <point x="75" y="302" type="line"/>
    </contour>
    <contour>
      <point x="469" y="177" type="line"/>
      <point x="469" y="214" type="line"/>
      <point x="75" y="214" type="line"/>
      <point x="75" y="177" type="line"/>
    </contour>
  </outline>
</glyph>
<glyph name="question" format="1">
  <advance width="425"/>
  <unicode hex="003F"/>
  <outline>
    <contour>
      <point x="129" y="142" type="line"/>
      <point x="123" y="165"/>
      <point x="121" y="181"/>
      <point x="121" y="192" type="curve" smooth="yes"/>
      <point x="121" y="334"/>
      <point x="365" y="355"/>
      <point x="365" y="528" type="curve" smooth="yes"/>
      <point x="365" y="642"/>
      <point x="278" y="713"/>
      <point x="186" y="713" type="curve" smooth="yes"/>
      <point x="128" y="713"/>
      <point x="67" y="684"/>
      <point x="27" y="620" type="curve"/>
      <point x="62" y="602" type="line"/>
      <point x="90" y="653"/>
      <point x="138" y="675"/>
      <point x="183" y="675" type="curve" smooth="yes"/>
      <point x="253" y="675"/>
      <point x="321" y="620"/>
      <point x="321" y="527" type="curve" smooth="yes"/>
      <point x="321" y="359"/>
      <point x="85" y="375"/>
      <point x="85" y="191" type="curve" smooth="yes"/>
      <point x="85" y="177"/>
      <point x="87" y="161"/>
      <point x="94" y="135" type="curve"/>
    </contour>
    <component base="period" xOffset="28"/>
  </outline>
</glyph>
<glyph name="at" format="1">
  <advance width="767"/>
  <unicode hex="0040"/>
  <outline>
    <contour>
      <point x="449" y="-49"/>
      <point x="514" y="-37"/>
      <point x="563" y="-16" type="curve"/>
      <point x="549" y="14" type="line"/>
      <point x="502" y="-5"/>
      <point x="445" y="-15"/>
      <point x="393" y="-15" type="curve" smooth="yes"/>
      <point x="207" y="-16"/>
      <point x="106" y="106"/>
      <point x="106" y="325" type="curve" smooth="yes"/>
      <point x="107" y="513"/>
      <point x="230" y="645"/>
      <point x="399" y="644" type="curve" smooth="yes"/>
      <point x="558" y="644"/>
      <point x="668" y="530"/>
      <point x="668" y="362" type="curve" smooth="yes"/>
      <point x="668" y="226"/>
      <point x="636" y="139"/>
      <point x="548" y="139" type="curve" smooth="yes"/>
      <point x="513" y="139"/>
      <point x="499" y="155"/>
      <point x="499" y="197" type="curve" smooth="yes"/>
      <point x="499" y="407" type="line" smooth="yes"/>
      <point x="499" y="485"/>
      <point x="444" y="521"/>
      <point x="378" y="521" type="curve" smooth="yes"/>
      <point x="337" y="521"/>
      <point x="287" y="509"/>
      <point x="248" y="484" type="curve"/>
      <point x="264" y="457" type="line"/>
      <point x="299" y="479"/>
      <point x="341" y="490"/>
      <point x="377" y="490" type="curve" smooth="yes"/>
      <point x="426" y="490"/>
      <point x="461" y="464"/>
      <point x="461" y="405" type="curve" smooth="yes"/>
      <point x="461" y="240" type="line" smooth="yes"/>
      <point x="461" y="175"/>
      <point x="406" y="138"/>
      <point x="356" y="138" type="curve" smooth="yes"/>
      <point x="314" y="138"/>
      <point x="276" y="163"/>
      <point x="276" y="227" type="curve" smooth="yes"/>
      <point x="276" y="274"/>
      <point x="301" y="315"/>
      <point x="398" y="315" type="curve" smooth="yes"/>
      <point x="424" y="315"/>
      <point x="452" y="314"/>
      <point x="475" y="310" type="curve"/>
      <point x="475" y="339" type="line"/>
      <point x="453" y="342"/>
      <point x="426" y="344"/>
      <point x="399" y="344" type="curve" smooth="yes"/>
      <point x="292" y="344"/>
      <point x="234" y="297"/>
      <point x="234" y="225" type="curve" smooth="yes"/>
      <point x="234" y="148"/>
      <point x="289" y="107"/>
      <point x="351" y="107" type="curve" smooth="yes"/>
      <point x="401" y="107"/>
      <point x="454" y="135"/>
      <point x="479" y="192" type="curve"/>
      <point x="461" y="195" type="line"/>
      <point x="461" y="137"/>
      <point x="483" y="107"/>
      <point x="544" y="107" type="curve" smooth="yes"/>
      <point x="644" y="107"/>
      <point x="707" y="190"/>
      <point x="707" y="363" type="curve" smooth="yes"/>
      <point x="707" y="549"/>
      <point x="582" y="677"/>
      <point x="400" y="677" type="curve" smooth="yes"/>
      <point x="208" y="678"/>
      <point x="66" y="530"/>
      <point x="65" y="325" type="curve" smooth="yes"/>
      <point x="65" y="85"/>
      <point x="183" y="-49"/>
      <point x="392" y="-48" type="curve" smooth="yes"/>
    </contour>
  </outline>
</glyph>
<glyph name="A" format="1">
  <advance width="513"/>
  <unicode hex="0041"/>
  <outline>
    <contour>
      <point x="55" y="0" type="line"/>
      <point x="220" y="525" type="line" smooth="yes"/>
      <point x="230" y="558"/>
      <point x="248" y="618"/>
      <point x="257" y="649" type="curve"/>
      <point x="253" y="649" type="line"/>
      <point x="262" y="618"/>
      <point x="280" y="558"/>
      <point x="290" y="525" type="curve" smooth="yes"/>
      <point x="454" y="0" type="line"/>
      <point x="503" y="0" type="line"/>
      <point x="288" y="675" type="line"/>
      <point x="226" y="675" type="line"/>
      <point x="10" y="0" type="line"/>
    </contour>
    <contour>
      <point x="413" y="180" type="line"/>
      <point x="413" y="215" type="line"/>
      <point x="100" y="215" type="line"/>
      <point x="100" y="180" type="line"/>
    </contour>
    <contour>
      <point x="503" y="5" type="move" name="ogonek"/>
    </contour>
    <contour>
      <point x="257" y="645" type="move" name="top"/>
    </contour>
  </outline>
</glyph>
<glyph name="B" format="1">
  <advance width="498"/>
  <unicode hex="0042"/>
  <outline>
    <contour>
      <point x="376" y="-3"/>
      <point x="451" y="75"/>
      <point x="451" y="194" type="curve" smooth="yes"/>
      <point x="451" y="278"/>
      <point x="390" y="359"/>
      <point x="274" y="359" type="curve"/>
      <point x="274" y="352" type="line"/>
      <point x="353" y="352"/>
      <point x="432" y="421"/>
      <point x="432" y="517" type="curve" smooth="yes"/>
      <point x="432" y="596"/>
      <point x="386" y="677"/>
      <point x="229" y="677" type="curve" smooth="yes"/>
      <point x="182" y="677"/>
      <point x="132" y="677"/>
      <point x="85" y="675" type="curve"/>
      <point x="85" y="0" type="line"/>
      <point x="124" y="-3"/>
      <point x="155" y="-3"/>
      <point x="187" y="-3" type="curve" smooth="yes"/>
    </contour>
    <contour>
      <point x="124" y="650" type="line"/>
      <point x="113" y="639" type="line"/>
      <point x="153" y="641"/>
      <point x="185" y="642"/>
      <point x="222" y="642" type="curve" smooth="yes"/>
      <point x="342" y="642"/>
      <point x="389" y="588"/>
      <point x="389" y="508" type="curve" smooth="yes"/>
      <point x="389" y="430"/>
      <point x="330" y="368"/>
      <point x="210" y="368" type="curve" smooth="yes"/>
      <point x="105" y="368" type="line"/>
      <point x="105" y="335" type="line"/>
      <point x="222" y="335" type="line" smooth="yes"/>
      <point x="350" y="335"/>
      <point x="407" y="277"/>
      <point x="407" y="190" type="curve" smooth="yes"/>
      <point x="407" y="74"/>
      <point x="323" y="32"/>
      <point x="203" y="32" type="curve" smooth="yes"/>
      <point x="177" y="32"/>
      <point x="149" y="33"/>
      <point x="114" y="37" type="curve"/>
      <point x="124" y="26" type="line"/>
    </contour>
  </outline>
</glyph>
<glyph name="C" format="2">
	<advance width="505"/>
	<unicode hex="0043"/>
	<outline>
		<contour>
			<point x="399" y="51"/>
			<point x="349" y="33"/>
			<point x="295" y="33" type="curve" smooth="yes"/>
			<point x="164" y="33"/>
			<point x="87" y="145"/>
			<point x="87" y="336" type="curve" smooth="yes"/>
			<point x="87" y="528"/>
			<point x="165" y="643"/>
			<point x="295" y="643" type="curve" smooth="yes"/>
			<point x="365" y="643"/>
			<point x="423" y="609"/>
			<point x="457" y="525" type="curve"/>
			<point x="497" y="540" type="line"/>
			<point x="459" y="637"/>
			<point x="383" y="682"/>
			<point x="297" y="682" type="curve" smooth="yes"/>
			<point x="146" y="682"/>
			<point x="40" y="557"/>
			<point x="40" y="336" type="curve" smooth="yes"/>
			<point x="40" y="123"/>
			<point x="137" y="-7"/>
			<point x="290" y="-7" type="curve" smooth="yes"/>
			<point x="352" y="-7"/>
			<point x="411" y="14"/>
			<point x="483" y="61" type="curve"/>
			<point x="464" y="92" type="line"/>
		</contour>
	</outline>
	<anchor name="top" x="298" y="645"/>
	<anchor name="bottom" x="298" y="0"/>
</glyph>
<glyph name="D" format="1">
  <advance width="560"/>
  <unicode hex="0044"/>
  <outline>
    <contour>
      <point x="194" y="678"/>
      <point x="146" y="676"/>
      <point x="85" y="675" type="curve"/>
      <point x="85" y="0" type="line"/>
      <point x="146" y="-2"/>
      <point x="192" y="-3"/>
      <point x="239" y="-3" type="curve" smooth="yes"/>
      <point x="430" y="-3"/>
      <point x="520" y="149"/>
      <point x="520" y="336" type="curve" smooth="yes"/>
      <point x="520" y="526"/>
      <point x="441" y="678"/>
      <point x="241" y="678" type="curve" smooth="yes"/>
    </contour>
    <contour>
      <point x="205" y="33"/>
      <point x="162" y="33"/>
      <point x="114" y="35" type="curve"/>
      <point x="124" y="25" type="line"/>
      <point x="124" y="650" type="line"/>
      <point x="114" y="640" type="line"/>
      <point x="162" y="641"/>
      <point x="207" y="642"/>
      <point x="241" y="642" type="curve" smooth="yes"/>
      <point x="409" y="642"/>
      <point x="476" y="507"/>
      <point x="476" y="336" type="curve" smooth="yes"/>
      <point x="476" y="168"/>
      <point x="406" y="33"/>
      <point x="239" y="33" type="curve" smooth="yes"/>
    </contour>
  </outline>
</glyph>
<glyph name="E" format="1">
  <advance width="463"/>
  <unicode hex="0045"/>
  <outline>
    <contour>
      <point x="127" y="25" type="line"/>
      <point x="127" y="346" type="line"/>
      <point x="114" y="335" type="line"/>
      <point x="370" y="335" type="line"/>
      <point x="370" y="372" type="line"/>
      <point x="114" y="372" type="line"/>
      <point x="127" y="361" type="line"/>
      <point x="127" y="650" type="line"/>
      <point x="114" y="638" type="line"/>
      <point x="399" y="638" type="line"/>
      <point x="399" y="675" type="line"/>
      <point x="85" y="675" type="line"/>
      <point x="85" y="0" type="line"/>
      <point x="408" y="0" type="line"/>
      <point x="408" y="37" type="line"/>
      <point x="114" y="37" type="line"/>
    </contour>
    <contour>
      <point x="408" y="5" type="move" name="ogonek"/>
    </contour>
    <contour>
      <point x="241" y="0" type="move" name="bottom"/>
    </contour>
    <contour>
      <point x="244" y="645" type="move" name="top"/>
    </contour>
  </outline>
</glyph>
<glyph name="F" format="1">
  <advance width="442"/>
  <unicode hex="0046"/>
  <outline>
    <contour>
      <point x="402" y="675" type="line"/>
      <point x="85" y="675" type="line"/>
      <point x="85" y="0" type="line"/>
      <point x="124" y="0" type="line"/>
      <point x="124" y="356" type="line"/>
      <point x="114" y="346" type="line"/>
      <point x="373" y="346" type="line"/>
      <point x="373" y="381" type="line"/>
      <point x="114" y="381" type="line"/>
      <point x="124" y="371" type="line"/>
      <point x="124" y="650" type="line"/>
      <point x="114" y="640" type="line"/>
      <point x="402" y="640" type="line"/>
    </contour>
  </outline>
</glyph>
<glyph name="G" format="2">
	<advance width="560"/>
	<unicode hex="0047"/>
	<outline>
		<contour>
			<point x="485" y="85" type="line"/>
			<point x="418" y="50"/>
			<point x="365" y="31"/>
			<point x="309" y="31" type="curve" smooth="yes"/>
			<point x="175" y="31"/>
			<point x="86" y="140"/>
			<point x="86" y="336" type="curve" smooth="yes"/>
			<point x="86" y="522"/>
			<point x="171" y="643"/>
			<point x="301" y="643" type="curve" smooth="yes"/>
			<point x="371" y="643"/>
			<point x="427" y="608"/>
			<point x="465" y="524" type="curve"/>
			<point x="505" y="540" type="line"/>
			<point x="463" y="637"/>
			<point x="389" y="682"/>
			<point x="303" y="682" type="curve" smooth="yes"/>
			<point x="149" y="682"/>
			<point x="40" y="552"/>
			<point x="40" y="336" type="curve" smooth="yes"/>
			<point x="40" y="117"/>
			<point x="146" y="-8"/>
			<point x="305" y="-8" type="curve" smooth="yes"/>
			<point x="361" y="-8"/>
			<point x="430" y="11"/>
			<point x="505" y="51" type="curve"/>
			<point x="505" y="314" type="line"/>
			<point x="295" y="314" type="line"/>
			<point x="295" y="277" type="line"/>
			<point x="475" y="277" type="line"/>
			<point x="463" y="289" type="line"/>
			<point x="463" y="51" type="line"/>
		</contour>
	</outline>
	<anchor name="top" x="302" y="645"/>
	<anchor name="bottom" x="280" y="0"/>
</glyph>
<glyph name="H" format="2">
	<advance width="601"/>
	<unicode hex="0048"/>
	<outline>
		<contour>
			<point x="474" y="359" type="line"/>
			<point x="487" y="369" type="line"/>
			<point x="114" y="369" type="line"/>
			<point x="127" y="359" type="line"/>
			<point x="127" y="675" type="line"/>
			<point x="85" y="675" type="line"/>
			<point x="85" y="0" type="line"/>
			<point x="127" y="0" type="line"/>
			<point x="127" y="344" type="line"/>
			<point x="114" y="334" type="line"/>
			<point x="487" y="334" type="line"/>
			<point x="474" y="344" type="line"/>
			<point x="474" y="0" type="line"/>
			<point x="516" y="0" type="line"/>
			<point x="516" y="675" type="line"/>
			<point x="474" y="675" type="line"/>
		</contour>
	</outline>
</glyph>
<glyph name="I" format="1">
  <advance width="209"/>
  <unicode hex="0049"/>
  <outline>
    <contour>
      <point x="83" y="675" type="line"/>
      <point x="83" y="0" type="line"/>
      <point x="125" y="0" type="line"/>
      <point x="125" y="675" type="line"/>
    </contour>
    <contour>
      <point x="125" y="5" type="move" name="ogonek"/>
    </contour>
    <contour>
      <point x="104" y="645" type="move" name="top"/>
    </contour>
  </outline>
</glyph>
<glyph name="J" format="2">
	<advance width="284"/>
	<unicode hex="004A"/>
	<outline>
		<contour>
			<point x="67" y="-7"/>
			<point x="93" y="-7" type="curve" smooth="yes"/>
			<point x="154" y="-7"/>
			<point x="199" y="38"/>
			<point x="199" y="123" type="curve" smooth="yes"/>
			<point x="199" y="675" type="line"/>
			<point x="157" y="675" type="line"/>
			<point x="157" y="130" type="line" smooth="yes"/>
			<point x="157" y="65"/>
			<point x="133" y="30"/>
			<point x="93" y="30" type="curve" smooth="yes"/>
			<point x="74" y="30"/>
			<point x="51" y="37"/>
			<point x="25" y="53" type="curve"/>
			<point x="9" y="17" type="line"/>
			<point x="38" y="0"/>
		</contour>
	</outline>
</glyph>
<glyph name="K" format="1">
  <advance width="514"/>
  <unicode hex="004B"/>
  <outline>
    <contour>
      <point x="506" y="26" type="line"/>
      <point x="488" y="24"/>
      <point x="479" y="33"/>
      <point x="466" y="55" type="curve" smooth="yes"/>
      <point x="273" y="373" type="line"/>
      <point x="269" y="340" type="line"/>
      <point x="487" y="675" type="line"/>
      <point x="442" y="675" type="line"/>
      <point x="243" y="368" type="line"/>
      <point x="254" y="374" type="line"/>
      <point x="114" y="374" type="line"/>
      <point x="127" y="364" type="line"/>
      <point x="127" y="675" type="line"/>
      <point x="85" y="675" type="line"/>
      <point x="85" y="0" type="line"/>
      <point x="127" y="0" type="line"/>
      <point x="127" y="349" type="line"/>
      <point x="114" y="339" type="line"/>
      <point x="255" y="339" type="line"/>
      <point x="242" y="346" type="line"/>
      <point x="433" y="35" type="line" smooth="yes"/>
      <point x="450" y="7"/>
      <point x="466" y="-7"/>
      <point x="491" y="-7" type="curve" smooth="yes"/>
      <point x="497" y="-7"/>
      <point x="504" y="-6"/>
      <point x="509" y="-5" type="curve"/>
    </contour>
  </outline>
</glyph>
<glyph name="L" format="1">
  <advance width="413"/>
  <unicode hex="004C"/>
  <outline>
    <contour>
      <point x="124" y="25" type="line"/>
      <point x="124" y="675" type="line"/>
      <point x="85" y="675" type="line"/>
      <point x="85" y="0" type="line"/>
      <point x="408" y="0" type="line"/>
      <point x="408" y="35" type="line"/>
      <point x="114" y="35" type="line"/>
    </contour>
  </outline>
</glyph>
<glyph name="M" format="1">
  <advance width="687"/>
  <unicode hex="004D"/>
  <outline>
    <contour>
      <point x="64" y="0" type="line"/>
      <point x="122" y="422" type="line" smooth="yes"/>
      <point x="130" y="481"/>
      <point x="140" y="548"/>
      <point x="147" y="605" type="curve"/>
      <point x="143" y="605" type="line"/>
      <point x="161" y="548"/>
      <point x="178" y="482"/>
      <point x="197" y="423" type="curve" smooth="yes"/>
      <point x="323" y="24" type="line"/>
      <point x="359" y="26" type="line"/>
      <point x="494" y="422" type="line" smooth="yes"/>
      <point x="514" y="480"/>
      <point x="532" y="546"/>
      <point x="551" y="602" type="curve"/>
      <point x="546" y="602" type="line"/>
      <point x="552" y="546"/>
      <point x="560" y="481"/>
      <point x="567" y="423" type="curve" smooth="yes"/>
      <point x="618" y="0" type="line"/>
      <point x="663" y="0" type="line"/>
      <point x="580" y="675" type="line"/>
      <point x="537" y="675" type="line"/>
      <point x="381" y="212" type="line" smooth="yes"/>
      <point x="367" y="169"/>
      <point x="355" y="121"/>
      <point x="341" y="80" type="curve"/>
      <point x="348" y="80" type="line"/>
      <point x="335" y="120"/>
      <point x="324" y="169"/>
      <point x="311" y="211" type="curve" smooth="yes"/>
      <point x="165" y="675" type="line"/>
      <point x="121" y="675" type="line"/>
      <point x="24" y="0" type="line"/>
    </contour>
  </outline>
</glyph>
<glyph name="N" format="1">
  <advance width="611"/>
  <unicode hex="004E"/>
  <outline>
    <contour>
      <point x="487" y="84" type="line"/>
      <point x="125" y="682" type="line"/>
      <point x="85" y="675" type="line"/>
      <point x="85" y="0" type="line"/>
      <point x="124" y="0" type="line"/>
      <point x="124" y="600" type="line"/>
      <point x="489" y="-7" type="line"/>
      <point x="526" y="0" type="line"/>
      <point x="526" y="675" type="line"/>
      <point x="487" y="675" type="line"/>
    </contour>
  </outline>
</glyph>
<glyph name="O" format="1">
  <advance width="584"/>
  <unicode hex="004F"/>
  <outline>
    <contour>
      <point x="500" y="163"/>
      <point x="428" y="30"/>
      <point x="292" y="30" type="curve" smooth="yes"/>
      <point x="153" y="30"/>
      <point x="84" y="161"/>
      <point x="84" y="336" type="curve" smooth="yes"/>
      <point x="84" y="510"/>
      <point x="158" y="645"/>
      <point x="294" y="645" type="curve" smooth="yes"/>
      <point x="431" y="645"/>
      <point x="500" y="512"/>
      <point x="500" y="336" type="curve" smooth="yes"/>
    </contour>
    <contour>
      <point x="544" y="531"/>
      <point x="463" y="682"/>
      <point x="294" y="682" type="curve" smooth="yes"/>
      <point x="134" y="682"/>
      <point x="40" y="529"/>
      <point x="40" y="336" type="curve" smooth="yes"/>
      <point x="40" y="142"/>
      <point x="118" y="-7"/>
      <point x="292" y="-7" type="curve" smooth="yes"/>
      <point x="452" y="-7"/>
      <point x="544" y="144"/>
      <point x="544" y="336" type="curve" smooth="yes"/>
    </contour>
  </outline>
</glyph>
<glyph name="P" format="1">
  <advance width="477"/>
  <unicode hex="0050"/>
  <outline>
    <contour>
      <point x="124" y="0" type="line"/>
      <point x="124" y="649" type="line"/>
      <point x="114" y="639" type="line"/>
      <point x="148" y="640"/>
      <point x="185" y="642"/>
      <point x="222" y="642" type="curve" smooth="yes"/>
      <point x="362" y="642"/>
      <point x="409" y="588"/>
      <point x="409" y="488" type="curve" smooth="yes"/>
      <point x="409" y="390"/>
      <point x="350" y="328"/>
      <point x="210" y="328" type="curve" smooth="yes"/>
      <point x="105" y="328" type="line"/>
      <point x="105" y="295" type="line"/>
      <point x="239" y="295" type="line" smooth="yes"/>
      <point x="373" y="295"/>
      <point x="452" y="381"/>
      <point x="452" y="497" type="curve" smooth="yes"/>
      <point x="452" y="596"/>
      <point x="406" y="677"/>
      <point x="229" y="677" type="curve" smooth="yes"/>
      <point x="182" y="677"/>
      <point x="132" y="677"/>
      <point x="85" y="675" type="curve"/>
      <point x="85" y="0" type="line"/>
    </contour>
  </outline>
</glyph>
<glyph name="Q" format="1">
  <advance width="584"/>
  <unicode hex="0051"/>
  <outline>
    <contour>
      <point x="452" y="-7"/>
      <point x="544" y="144"/>
      <point x="544" y="336" type="curve" smooth="yes"/>
      <point x="544" y="531"/>
      <point x="463" y="682"/>
      <point x="294" y="682" type="curve" smooth="yes"/>
      <point x="134" y="682"/>
      <point x="40" y="529"/>
      <point x="40" y="336" type="curve" smooth="yes"/>
      <point x="40" y="142"/>
      <point x="118" y="-7"/>
      <point x="292" y="-7" type="curve" smooth="yes"/>
    </contour>
    <contour>
      <point x="518" y="-96"/>
      <point x="533" y="-95"/>
      <point x="548" y="-94" type="curve"/>
      <point x="545" y="-58" type="line"/>
      <point x="529" y="-60"/>
      <point x="514" y="-61"/>
      <point x="499" y="-61" type="curve" smooth="yes"/>
      <point x="427" y="-61"/>
      <point x="373" y="-38"/>
      <point x="373" y="29" type="curve"/>
      <point x="334" y="29" type="line"/>
      <point x="334" y="-66"/>
      <point x="412" y="-96"/>
      <point x="504" y="-96" type="curve" smooth="yes"/>
    </contour>
    <contour>
      <point x="153" y="30"/>
      <point x="84" y="161"/>
      <point x="84" y="336" type="curve" smooth="yes"/>
      <point x="84" y="510"/>
      <point x="158" y="645"/>
      <point x="294" y="645" type="curve" smooth="yes"/>
      <point x="431" y="645"/>
      <point x="500" y="512"/>
      <point x="500" y="336" type="curve" smooth="yes"/>
      <point x="500" y="163"/>
      <point x="428" y="30"/>
      <point x="292" y="30" type="curve" smooth="yes"/>
    </contour>
  </outline>
</glyph>
<glyph name="R" format="1">
  <advance width="499"/>
  <unicode hex="0052"/>
  <outline>
    <contour>
      <point x="127" y="0" type="line"/>
      <point x="127" y="649" type="line"/>
      <point x="114" y="637" type="line"/>
      <point x="148" y="638"/>
      <point x="185" y="640"/>
      <point x="222" y="640" type="curve" smooth="yes"/>
      <point x="362" y="640"/>
      <point x="409" y="593"/>
      <point x="409" y="493" type="curve" smooth="yes"/>
      <point x="409" y="393"/>
      <point x="345" y="342"/>
      <point x="220" y="342" type="curve" smooth="yes"/>
      <point x="105" y="342" type="line"/>
      <point x="105" y="305" type="line"/>
      <point x="229" y="305" type="line" smooth="yes"/>
      <point x="379" y="305"/>
      <point x="455" y="384"/>
      <point x="455" y="499" type="curve" smooth="yes"/>
      <point x="455" y="621"/>
      <point x="382" y="677"/>
      <point x="229" y="677" type="curve" smooth="yes"/>
      <point x="182" y="677"/>
      <point x="132" y="677"/>
      <point x="85" y="675" type="curve"/>
      <point x="85" y="0" type="line"/>
    </contour>
    <contour>
      <point x="400" y="35" type="line" smooth="yes"/>
      <point x="416" y="4"/>
      <point x="434" y="-7"/>
      <point x="458" y="-7" type="curve" smooth="yes"/>
      <point x="465" y="-7"/>
      <point x="474" y="-6"/>
      <point x="479" y="-5" type="curve"/>
      <point x="476" y="26" type="line"/>
      <point x="475" y="26"/>
      <point x="474" y="26"/>
      <point x="472" y="26" type="curve" smooth="yes"/>
      <point x="454" y="26"/>
      <point x="444" y="34"/>
      <point x="434" y="55" type="curve" smooth="yes"/>
      <point x="296" y="329" type="line"/>
      <point x="255" y="323" type="line"/>
    </contour>
    <contour>
      <point x="241" y="645" type="move" name="top"/>
    </contour>
    <contour>
      <point x="249" y="0" type="move" name="bottom"/>
    </contour>
  </outline>
</glyph>
<glyph name="S" format="1">
  <advance width="451"/>
  <unicode hex="0053"/>
  <outline>
    <contour>
<<<<<<< Updated upstream
      <point x="108" y="12"/>
      <point x="169" y="-7"/>
      <point x="224" y="-7" type="curve" smooth="yes"/>
      <point x="325" y="-7"/>
      <point x="411" y="53"/>
      <point x="411" y="169" type="curve" smooth="yes"/>
      <point x="411" y="390"/>
      <point x="115" y="339"/>
      <point x="115" y="513" type="curve" smooth="yes"/>
      <point x="115" y="598"/>
      <point x="184" y="645"/>
      <point x="253" y="645" type="curve" smooth="yes"/>
      <point x="303" y="645"/>
      <point x="352" y="621"/>
      <point x="377" y="570" type="curve"/>
      <point x="413" y="588" type="line"/>
      <point x="385" y="652"/>
      <point x="322" y="682"/>
      <point x="257" y="682" type="curve" smooth="yes"/>
      <point x="166" y="682"/>
      <point x="71" y="622"/>
      <point x="71" y="513" type="curve" smooth="yes"/>
      <point x="71" y="301"/>
      <point x="367" y="356"/>
      <point x="367" y="169" type="curve" smooth="yes"/>
      <point x="367" y="79"/>
      <point x="306" y="30"/>
      <point x="227" y="30" type="curve" smooth="yes"/>
      <point x="180" y="30"/>
      <point x="128" y="48"/>
      <point x="77" y="83" type="curve"/>
      <point x="55" y="49" type="line"/>
=======
      <point x="45" y="49" type="line"/>
      <point x="98" y="12"/>
      <point x="159" y="-7"/>
      <point x="214" y="-7" type="curve" smooth="yes"/>
      <point x="315" y="-7"/>
      <point x="401" y="53"/>
      <point x="401" y="169" type="curve" smooth="yes"/>
      <point x="401" y="390"/>
      <point x="105" y="339"/>
      <point x="105" y="513" type="curve" smooth="yes"/>
      <point x="105" y="598"/>
      <point x="174" y="645"/>
      <point x="243" y="645" type="curve" smooth="yes"/>
      <point x="293" y="645"/>
      <point x="342" y="621"/>
      <point x="367" y="570" type="curve"/>
      <point x="403" y="588" type="line"/>
      <point x="375" y="652"/>
      <point x="312" y="682"/>
      <point x="247" y="682" type="curve" smooth="yes"/>
      <point x="156" y="682"/>
      <point x="61" y="622"/>
      <point x="61" y="513" type="curve" smooth="yes"/>
      <point x="61" y="301"/>
      <point x="357" y="356"/>
      <point x="357" y="169" type="curve" smooth="yes"/>
      <point x="357" y="79"/>
      <point x="296" y="30"/>
      <point x="217" y="30" type="curve" smooth="yes"/>
      <point x="170" y="30"/>
      <point x="118" y="48"/>
      <point x="67" y="83" type="curve"/>
>>>>>>> Stashed changes
    </contour>
    <contour>
      <point x="232" y="645" type="move" name="top"/>
    </contour>
    <contour>
      <point x="214" y="0" type="move" name="bottom"/>
    </contour>
  </outline>
</glyph>
<glyph name="T" format="1">
  <advance width="408"/>
  <unicode hex="0054"/>
  <outline>
    <contour>
      <point x="5" y="676" type="line"/>
      <point x="5" y="641" type="line"/>
      <point x="194" y="641" type="line"/>
      <point x="184" y="651" type="line"/>
      <point x="184" y="0" type="line"/>
      <point x="223" y="0" type="line"/>
      <point x="223" y="651" type="line"/>
      <point x="213" y="641" type="line"/>
      <point x="403" y="641" type="line"/>
      <point x="403" y="676" type="line"/>
    </contour>
  </outline>
</glyph>
<glyph name="U" format="1">
  <advance width="602"/>
  <unicode hex="0055"/>
  <outline>
    <contour>
      <point x="425" y="-8"/>
      <point x="517" y="71"/>
      <point x="517" y="235" type="curve" smooth="yes"/>
      <point x="517" y="675" type="line"/>
      <point x="475" y="675" type="line"/>
      <point x="475" y="235" type="line" smooth="yes"/>
      <point x="475" y="91"/>
      <point x="406" y="31"/>
      <point x="298" y="31" type="curve" smooth="yes"/>
      <point x="208" y="31"/>
      <point x="127" y="80"/>
      <point x="127" y="249" type="curve" smooth="yes"/>
      <point x="127" y="675" type="line"/>
      <point x="85" y="675" type="line"/>
      <point x="85" y="249" type="line" smooth="yes"/>
      <point x="85" y="60"/>
      <point x="179" y="-8"/>
      <point x="300" y="-8" type="curve" smooth="yes"/>
    </contour>
    <contour>
      <point x="363" y="5" type="move" name="ogonek"/>
    </contour>
    <contour>
      <point x="301" y="645" type="move" name="top"/>
    </contour>
  </outline>
</glyph>
<glyph name="V" format="1">
  <advance width="513"/>
  <unicode hex="0056"/>
  <outline>
    <contour>
      <point x="281" y="0" type="line"/>
      <point x="501" y="675" type="line"/>
      <point x="458" y="675" type="line"/>
      <point x="305" y="199" type="line" smooth="yes"/>
      <point x="287" y="143"/>
      <point x="270" y="86"/>
      <point x="254" y="26" type="curve"/>
      <point x="260" y="26" type="line"/>
      <point x="245" y="78"/>
      <point x="224" y="143"/>
      <point x="206" y="201" type="curve" smooth="yes"/>
      <point x="59" y="675" type="line"/>
      <point x="12" y="675" type="line"/>
      <point x="227" y="0" type="line"/>
    </contour>
  </outline>
</glyph>
<glyph name="X" format="1">
  <advance width="519"/>
  <unicode hex="0058"/>
  <outline>
    <contour>
      <point x="512" y="28" type="line"/>
      <point x="495" y="26"/>
      <point x="489" y="34"/>
      <point x="475" y="55" type="curve" smooth="yes"/>
      <point x="269" y="367" type="line"/>
      <point x="69" y="675" type="line"/>
      <point x="22" y="675" type="line"/>
      <point x="243" y="337" type="line"/>
      <point x="439" y="35" type="line" smooth="yes"/>
      <point x="458" y="6"/>
      <point x="474" y="-6"/>
      <point x="495" y="-6" type="curve" smooth="yes"/>
      <point x="502" y="-6"/>
      <point x="508" y="-5"/>
      <point x="515" y="-3" type="curve"/>
    </contour>
    <contour>
      <point x="52" y="0" type="line"/>
      <point x="263" y="333" type="line"/>
      <point x="277" y="340" type="line"/>
      <point x="488" y="675" type="line"/>
      <point x="443" y="675" type="line"/>
      <point x="251" y="368" type="line"/>
      <point x="237" y="361" type="line"/>
      <point x="7" y="0" type="line"/>
    </contour>
  </outline>
</glyph>
<glyph name="Y" format="1">
  <advance width="448"/>
  <unicode hex="0059"/>
  <outline>
    <contour>
      <point x="242" y="0" type="line"/>
      <point x="242" y="255" type="line"/>
      <point x="448" y="675" type="line"/>
      <point x="404" y="675" type="line"/>
      <point x="285" y="429" type="line" smooth="yes"/>
      <point x="259" y="376"/>
      <point x="240" y="333"/>
      <point x="219" y="281" type="curve"/>
      <point x="228" y="281" type="line"/>
      <point x="209" y="329"/>
      <point x="189" y="376"/>
      <point x="163" y="431" type="curve" smooth="yes"/>
      <point x="47" y="675" type="line"/>
      <point x="1" y="675" type="line"/>
      <point x="200" y="256" type="line"/>
      <point x="200" y="0" type="line"/>
    </contour>
    <contour>
      <point x="225" y="645" type="move" name="top"/>
    </contour>
  </outline>
</glyph>
<glyph name="Z" format="2">
	<advance width="468"/>
	<unicode hex="005A"/>
	<outline>
		<contour>
			<point x="82" y="40" type="line"/>
			<point x="435" y="640" type="line"/>
			<point x="435" y="676" type="line"/>
			<point x="41" y="676" type="line"/>
			<point x="41" y="637" type="line"/>
			<point x="388" y="637" type="line"/>
			<point x="33" y="37" type="line"/>
			<point x="33" y="0" type="line"/>
			<point x="431" y="0" type="line"/>
			<point x="431" y="40" type="line"/>
		</contour>
	</outline>
	<anchor name="top" x="238" y="645"/>
</glyph>
<glyph name="bracketleft" format="2">
	<advance width="266"/>
	<unicode hex="005B"/>
	<outline>
		<contour>
			<point x="236" y="-171" type="line"/>
			<point x="236" y="-138" type="line"/>
			<point x="129" y="-138" type="line"/>
			<point x="129" y="725" type="line"/>
			<point x="236" y="725" type="line"/>
			<point x="236" y="758" type="line"/>
			<point x="90" y="758" type="line"/>
			<point x="90" y="-171" type="line"/>
		</contour>
	</outline>
</glyph>
<glyph name="backslash" format="1">
  <advance width="382"/>
  <unicode hex="005C"/>
  <outline>
    <contour>
      <point x="316" y="-70" type="line"/>
      <point x="355" y="-69" type="line"/>
      <point x="62" y="725" type="line"/>
      <point x="25" y="725" type="line"/>
    </contour>
  </outline>
</glyph>
<glyph name="asciicircum" format="2">
	<advance width="509"/>
	<unicode hex="005E"/>
	<outline>
		<contour>
			<point x="255" y="682" type="line"/>
			<point x="60" y="396" type="line"/>
			<point x="88" y="378" type="line"/>
			<point x="266" y="640" type="line"/>
			<point x="243" y="640" type="line"/>
			<point x="420" y="379" type="line"/>
			<point x="449" y="399" type="line"/>
		</contour>
	</outline>
</glyph>
<glyph name="grave" format="1">
  <advance width="345"/>
  <unicode hex="0060"/>
  <outline>
    <component base="acute" xOffset="367" xScale="-1"/>
    <contour>
      <point x="193" y="500" type="move" name="_top"/>
    </contour>
  </outline>
</glyph>
<glyph name="a" format="1">
  <advance width="426"/>
  <unicode hex="0061"/>
  <outline>
    <contour>
      <point x="303" y="28"/>
      <point x="323" y="-7"/>
      <point x="386" y="-7" type="curve" smooth="yes"/>
      <point x="394" y="-7"/>
      <point x="404" y="-6"/>
      <point x="412" y="-5" type="curve"/>
      <point x="410" y="26" type="line"/>
      <point x="404" y="25"/>
      <point x="399" y="25"/>
      <point x="394" y="25" type="curve" smooth="yes"/>
      <point x="353" y="25"/>
      <point x="343" y="50"/>
      <point x="343" y="103" type="curve" smooth="yes"/>
      <point x="343" y="364" type="line" smooth="yes"/>
      <point x="343" y="462"/>
      <point x="278" y="507"/>
      <point x="199" y="507" type="curve" smooth="yes"/>
      <point x="152" y="507"/>
      <point x="95" y="491"/>
      <point x="47" y="460" type="curve"/>
      <point x="65" y="428" type="line"/>
      <point x="109" y="456"/>
      <point x="157" y="472"/>
      <point x="198" y="472" type="curve" smooth="yes"/>
      <point x="259" y="472"/>
      <point x="303" y="438"/>
      <point x="303" y="361" type="curve" smooth="yes"/>
      <point x="303" y="156" type="line" smooth="yes"/>
      <point x="303" y="67"/>
      <point x="224" y="28"/>
      <point x="177" y="28" type="curve" smooth="yes"/>
      <point x="108" y="28"/>
      <point x="69" y="66"/>
      <point x="69" y="141" type="curve" smooth="yes"/>
      <point x="69" y="199"/>
      <point x="106" y="250"/>
      <point x="229" y="250" type="curve" smooth="yes"/>
      <point x="262" y="250"/>
      <point x="287" y="248"/>
      <point x="316" y="243" type="curve"/>
      <point x="316" y="276" type="line"/>
      <point x="289" y="281"/>
      <point x="264" y="283"/>
      <point x="231" y="283" type="curve" smooth="yes"/>
      <point x="101" y="283"/>
      <point x="26" y="222"/>
      <point x="26" y="141" type="curve" smooth="yes"/>
      <point x="26" y="45"/>
      <point x="83" y="-7"/>
      <point x="170" y="-7" type="curve" smooth="yes"/>
      <point x="225" y="-7"/>
      <point x="290" y="26"/>
      <point x="321" y="96" type="curve"/>
      <point x="303" y="101" type="line"/>
    </contour>
    <contour>
      <point x="410" y="10" type="move" name="ogonek"/>
    </contour>
    <contour>
      <point x="201" y="500" type="move" name="top"/>
    </contour>
  </outline>
</glyph>
<glyph name="b" format="2">
	<advance width="486"/>
	<unicode hex="0062"/>
	<outline>
		<contour>
			<point x="359" y="-7"/>
			<point x="439" y="111"/>
			<point x="439" y="273" type="curve" smooth="yes"/>
			<point x="439" y="422"/>
			<point x="362" y="507"/>
			<point x="266" y="507" type="curve" smooth="yes"/>
			<point x="197" y="507"/>
			<point x="139" y="465"/>
			<point x="105" y="373" type="curve"/>
			<point x="124" y="373" type="line"/>
			<point x="124" y="725" type="line"/>
			<point x="84" y="725" type="line"/>
			<point x="84" y="34" type="line"/>
			<point x="119" y="13"/>
			<point x="179" y="-7"/>
			<point x="238" y="-7" type="curve" smooth="yes"/>
		</contour>
		<contour>
			<point x="201" y="28"/>
			<point x="158" y="38"/>
			<point x="124" y="56" type="curve"/>
			<point x="124" y="294" type="line" smooth="yes"/>
			<point x="124" y="414"/>
			<point x="191" y="473"/>
			<point x="260" y="473" type="curve" smooth="yes"/>
			<point x="327" y="473"/>
			<point x="396" y="409"/>
			<point x="396" y="273" type="curve" smooth="yes"/>
			<point x="396" y="127"/>
			<point x="335" y="28"/>
			<point x="232" y="28" type="curve" smooth="yes"/>
		</contour>
	</outline>
</glyph>
<glyph name="c" format="1">
  <advance width="395"/>
  <unicode hex="0063"/>
  <outline>
    <contour>
      <point x="114" y="-7"/>
      <point x="229" y="-7" type="curve" smooth="yes"/>
      <point x="271" y="-7"/>
      <point x="320" y="4"/>
      <point x="368" y="30" type="curve"/>
      <point x="355" y="59" type="line"/>
      <point x="319" y="38"/>
      <point x="276" y="26"/>
      <point x="236" y="26" type="curve" smooth="yes"/>
      <point x="143" y="26"/>
      <point x="80" y="104"/>
      <point x="80" y="249" type="curve" smooth="yes"/>
      <point x="80" y="384"/>
      <point x="136" y="474"/>
      <point x="230" y="474" type="curve" smooth="yes"/>
      <point x="284" y="474"/>
      <point x="332" y="440"/>
      <point x="358" y="388" type="curve"/>
      <point x="390" y="409" type="line"/>
      <point x="355" y="473"/>
      <point x="299" y="507"/>
      <point x="233" y="507" type="curve" smooth="yes"/>
      <point x="116" y="507"/>
      <point x="40" y="408"/>
      <point x="40" y="250" type="curve" smooth="yes"/>
      <point x="40" y="84"/>
    </contour>
  </outline>
</glyph>
<glyph name="d" format="1">
  <advance width="478"/>
  <unicode hex="0064"/>
  <outline>
    <contour>
      <point x="353" y="725" type="line"/>
      <point x="353" y="196" type="line" smooth="yes"/>
      <point x="353" y="78"/>
      <point x="286" y="28"/>
      <point x="217" y="28" type="curve" smooth="yes"/>
      <point x="150" y="28"/>
      <point x="81" y="91"/>
      <point x="81" y="227" type="curve" smooth="yes"/>
      <point x="81" y="373"/>
      <point x="142" y="472"/>
      <point x="245" y="472" type="curve" smooth="yes"/>
      <point x="276" y="472"/>
      <point x="321" y="462"/>
      <point x="355" y="444" type="curve"/>
      <point x="385" y="466" type="line"/>
      <point x="350" y="487"/>
      <point x="298" y="507"/>
      <point x="239" y="507" type="curve" smooth="yes"/>
      <point x="118" y="507"/>
      <point x="38" y="389"/>
      <point x="38" y="227" type="curve" smooth="yes"/>
      <point x="38" y="78"/>
      <point x="115" y="-7"/>
      <point x="211" y="-7" type="curve" smooth="yes"/>
      <point x="283" y="-7"/>
      <point x="345" y="36"/>
      <point x="375" y="128" type="curve"/>
      <point x="353" y="128" type="line"/>
      <point x="353" y="84" type="line" smooth="yes"/>
      <point x="353" y="17"/>
      <point x="376" y="-14"/>
      <point x="442" y="-5" type="curve"/>
      <point x="440" y="26" type="line"/>
      <point x="402" y="22"/>
      <point x="393" y="39"/>
      <point x="393" y="89" type="curve" smooth="yes"/>
      <point x="393" y="725" type="line"/>
    </contour>
    <contour>
      <point x="239" y="250" type="move" name="center"/>
    </contour>
    <contour>
      <point x="458" y="500" type="move" name="topright"/>
    </contour>
  </outline>
</glyph>
<glyph name="e" format="1">
  <advance width="433"/>
  <unicode hex="0065"/>
  <outline>
    <contour>
      <point x="290" y="-7"/>
      <point x="338" y="5"/>
      <point x="389" y="29" type="curve"/>
      <point x="377" y="60" type="line"/>
      <point x="333" y="39"/>
      <point x="293" y="27"/>
      <point x="253" y="27" type="curve" smooth="yes"/>
      <point x="149" y="27"/>
      <point x="81" y="105"/>
      <point x="81" y="249" type="curve" smooth="yes"/>
      <point x="81" y="382"/>
      <point x="133" y="474"/>
      <point x="228" y="474" type="curve" smooth="yes"/>
      <point x="332" y="474"/>
      <point x="362" y="372"/>
      <point x="361" y="285" type="curve"/>
      <point x="64" y="284" type="line"/>
      <point x="64" y="251" type="line"/>
      <point x="400" y="251" type="line"/>
      <point x="400" y="271" type="line" smooth="yes"/>
      <point x="400" y="408"/>
      <point x="353" y="507"/>
      <point x="228" y="507" type="curve" smooth="yes"/>
      <point x="111" y="507"/>
      <point x="41" y="400"/>
      <point x="41" y="250" type="curve" smooth="yes"/>
      <point x="41" y="85"/>
      <point x="122" y="-7"/>
      <point x="246" y="-7" type="curve" smooth="yes"/>
    </contour>
  </outline>
</glyph>
<glyph name="f" format="1">
  <advance width="289"/>
  <unicode hex="0066"/>
  <outline>
    <contour>
      <point x="149" y="0" type="line"/>
      <point x="149" y="586" type="line" smooth="yes"/>
      <point x="149" y="659"/>
      <point x="176" y="697"/>
      <point x="222" y="697" type="curve" smooth="yes"/>
      <point x="242" y="697"/>
      <point x="266" y="690"/>
      <point x="292" y="675" type="curve"/>
      <point x="309" y="704" type="line"/>
      <point x="280" y="723"/>
      <point x="250" y="732"/>
      <point x="222" y="732" type="curve" smooth="yes"/>
      <point x="157" y="732"/>
      <point x="109" y="685"/>
      <point x="109" y="598" type="curve" smooth="yes"/>
      <point x="109" y="0" type="line"/>
    </contour>
    <contour>
      <point x="287" y="465" type="line"/>
      <point x="287" y="500" type="line"/>
      <point x="33" y="500" type="line"/>
      <point x="33" y="465" type="line"/>
    </contour>
  </outline>
</glyph>
<glyph name="g" format="1">
  <advance width="456"/>
  <unicode hex="0067"/>
  <outline>
    <contour>
      <point x="340" y="241"/>
      <point x="280" y="195"/>
      <point x="222" y="195" type="curve" smooth="yes"/>
      <point x="163" y="195"/>
      <point x="102" y="242"/>
      <point x="102" y="332" type="curve" smooth="yes"/>
      <point x="102" y="428"/>
      <point x="163" y="475"/>
      <point x="221" y="475" type="curve" smooth="yes"/>
      <point x="280" y="475"/>
      <point x="340" y="428"/>
      <point x="340" y="332" type="curve" smooth="yes"/>
    </contour>
    <contour>
      <point x="376" y="449"/>
      <point x="300" y="507"/>
      <point x="222" y="507" type="curve" smooth="yes"/>
      <point x="145" y="507"/>
      <point x="66" y="449"/>
      <point x="66" y="332" type="curve" smooth="yes"/>
      <point x="66" y="220"/>
      <point x="143" y="163"/>
      <point x="221" y="163" type="curve" smooth="yes"/>
      <point x="298" y="163"/>
      <point x="376" y="219"/>
      <point x="376" y="332" type="curve" smooth="yes"/>
    </contour>
    <contour>
      <point x="221" y="500" type="line"/>
      <point x="301" y="475" type="line"/>
      <point x="421" y="474" type="line"/>
      <point x="421" y="507" type="line"/>
    </contour>
    <contour>
      <point x="82" y="22"/>
      <point x="40" y="-20"/>
      <point x="40" y="-79" type="curve" smooth="yes"/>
      <point x="40" y="-159"/>
      <point x="109" y="-212"/>
      <point x="217" y="-212" type="curve" smooth="yes"/>
      <point x="337" y="-212"/>
      <point x="418" y="-151"/>
      <point x="418" y="-57" type="curve" smooth="yes"/>
      <point x="418" y="19"/>
      <point x="353" y="70"/>
      <point x="252" y="69" type="curve" smooth="yes"/>
      <point x="164" y="68" type="line" smooth="yes"/>
      <point x="131" y="68"/>
      <point x="112" y="91"/>
      <point x="112" y="115" type="curve" smooth="yes"/>
      <point x="112" y="139"/>
      <point x="131" y="166"/>
      <point x="172" y="175" type="curve"/>
      <point x="159" y="194" type="line"/>
      <point x="103" y="181"/>
      <point x="77" y="144"/>
      <point x="77" y="109" type="curve" smooth="yes"/>
      <point x="77" y="71"/>
      <point x="111" y="34"/>
      <point x="173" y="36" type="curve" smooth="yes"/>
      <point x="252" y="38" type="line" smooth="yes"/>
      <point x="333" y="40"/>
      <point x="380" y="1"/>
      <point x="380" y="-57" type="curve" smooth="yes"/>
      <point x="380" y="-133"/>
      <point x="317" y="-179"/>
      <point x="217" y="-179" type="curve" smooth="yes"/>
      <point x="135" y="-179"/>
      <point x="78" y="-140"/>
      <point x="78" y="-79" type="curve" smooth="yes"/>
      <point x="78" y="-32"/>
      <point x="110" y="8"/>
      <point x="168" y="39" type="curve"/>
      <point x="152" y="60" type="line"/>
    </contour>
  </outline>
</glyph>
<glyph name="h" format="1">
  <advance width="497"/>
  <unicode hex="0068"/>
  <outline>
    <contour>
      <point x="455" y="26" type="line"/>
      <point x="417" y="22"/>
      <point x="408" y="39"/>
      <point x="408" y="89" type="curve" smooth="yes"/>
      <point x="408" y="344" type="line" smooth="yes"/>
      <point x="408" y="448"/>
      <point x="355" y="507"/>
      <point x="263" y="507" type="curve" smooth="yes"/>
      <point x="194" y="507"/>
      <point x="135" y="463"/>
      <point x="110" y="372" type="curve"/>
      <point x="124" y="372" type="line"/>
      <point x="125" y="725" type="line"/>
      <point x="85" y="725" type="line"/>
      <point x="85" y="0" type="line"/>
      <point x="125" y="0" type="line"/>
      <point x="125" y="294" type="line" smooth="yes"/>
      <point x="125" y="412"/>
      <point x="190" y="474"/>
      <point x="261" y="474" type="curve" smooth="yes"/>
      <point x="326" y="474"/>
      <point x="368" y="429"/>
      <point x="368" y="341" type="curve" smooth="yes"/>
      <point x="368" y="83" type="line" smooth="yes"/>
      <point x="368" y="17"/>
      <point x="391" y="-14"/>
      <point x="457" y="-5" type="curve"/>
    </contour>
  </outline>
</glyph>
<glyph name="i" format="2">
	<advance width="210"/>
	<unicode hex="0069"/>
	<outline>
		<contour>
			<point x="124" y="0" type="line"/>
			<point x="124" y="500" type="line"/>
			<point x="85" y="500" type="line"/>
			<point x="85" y="0" type="line"/>
		</contour>
		<contour>
			<point x="126" y="607"/>
			<point x="138" y="624"/>
			<point x="138" y="645" type="curve" smooth="yes"/>
			<point x="138" y="665"/>
			<point x="126" y="682"/>
			<point x="105" y="682" type="curve" smooth="yes"/>
			<point x="84" y="682"/>
			<point x="72" y="665"/>
			<point x="72" y="645" type="curve" smooth="yes"/>
			<point x="72" y="624"/>
			<point x="84" y="607"/>
			<point x="105" y="607" type="curve" smooth="yes"/>
		</contour>
	</outline>
</glyph>
<glyph name="j" format="1">
  <advance width="215"/>
  <unicode hex="006A"/>
  <outline>
    <contour>
      <point x="83" y="-212"/>
      <point x="129" y="-159"/>
      <point x="129" y="-70" type="curve" smooth="yes"/>
      <point x="129" y="500" type="line"/>
      <point x="89" y="500" type="line"/>
      <point x="89" y="-72" type="line" smooth="yes"/>
      <point x="89" y="-141"/>
      <point x="60" y="-177"/>
      <point x="16" y="-177" type="curve" smooth="yes"/>
      <point x="-5" y="-177"/>
      <point x="-28" y="-169"/>
      <point x="-53" y="-154" type="curve"/>
      <point x="-71" y="-185" type="line"/>
      <point x="-39" y="-203"/>
      <point x="-9" y="-212"/>
      <point x="18" y="-212" type="curve" smooth="yes"/>
    </contour>
    <contour>
      <point x="131" y="609"/>
      <point x="143" y="626"/>
      <point x="143" y="647" type="curve" smooth="yes"/>
      <point x="143" y="667"/>
      <point x="131" y="684"/>
      <point x="110" y="684" type="curve" smooth="yes"/>
      <point x="89" y="684"/>
      <point x="77" y="667"/>
      <point x="77" y="647" type="curve" smooth="yes"/>
      <point x="77" y="626"/>
      <point x="89" y="609"/>
      <point x="110" y="609" type="curve" smooth="yes"/>
    </contour>
  </outline>
</glyph>
<glyph name="k" format="1">
  <advance width="431"/>
  <unicode hex="006B"/>
  <outline>
    <contour>
      <point x="123" y="725" type="line"/>
      <point x="85" y="725" type="line"/>
      <point x="85" y="0" type="line"/>
      <point x="123" y="0" type="line"/>
    </contour>
    <contour>
      <point x="365" y="-1"/>
      <point x="382" y="-7"/>
      <point x="414" y="-7" type="curve"/>
      <point x="414" y="25" type="line"/>
      <point x="398" y="25"/>
      <point x="392" y="29"/>
      <point x="378" y="52" type="curve" smooth="yes"/>
      <point x="232" y="295" type="line"/>
      <point x="232" y="278" type="line"/>
      <point x="396" y="500" type="line"/>
      <point x="352" y="500" type="line"/>
      <point x="213" y="309" type="line"/>
      <point x="103" y="309" type="line"/>
      <point x="103" y="278" type="line"/>
      <point x="198" y="278" type="line"/>
      <point x="343" y="35" type="line" smooth="yes"/>
    </contour>
  </outline>
</glyph>
<glyph name="l" format="2">
	<advance width="227"/>
	<unicode hex="006C"/>
	<outline>
		<contour>
			<point x="85" y="25"/>
			<point x="118" y="-6"/>
			<point x="163" y="-6" type="curve" smooth="yes"/>
			<point x="180" y="-6"/>
			<point x="197" y="-2"/>
			<point x="216" y="6" type="curve"/>
			<point x="205" y="36" type="line"/>
			<point x="191" y="30"/>
			<point x="179" y="27"/>
			<point x="168" y="27" type="curve" smooth="yes"/>
			<point x="140" y="27"/>
			<point x="125" y="48"/>
			<point x="125" y="87" type="curve" smooth="yes"/>
			<point x="125" y="725" type="line"/>
			<point x="85" y="725" type="line"/>
			<point x="85" y="82" type="line" smooth="yes"/>
		</contour>
	</outline>
	<anchor name="top" x="108" y="685"/>
	<anchor name="bottom" x="115" y="0"/>
	<anchor name="topright" x="210" y="500"/>
</glyph>
<glyph name="m" format="2">
	<advance width="768"/>
	<unicode hex="006D"/>
	<outline>
		<contour>
			<point x="677" y="344" type="line" smooth="yes"/>
			<point x="677" y="448"/>
			<point x="625" y="507"/>
			<point x="537" y="507" type="curve" smooth="yes"/>
			<point x="471" y="507"/>
			<point x="413" y="463"/>
			<point x="388" y="365" type="curve"/>
			<point x="403" y="365" type="line"/>
			<point x="394" y="450"/>
			<point x="343" y="507"/>
			<point x="261" y="507" type="curve" smooth="yes"/>
			<point x="192" y="507"/>
			<point x="134" y="463"/>
			<point x="109" y="372" type="curve"/>
			<point x="123" y="372" type="line"/>
			<point x="122" y="500" type="line"/>
			<point x="85" y="500" type="line"/>
			<point x="85" y="0" type="line"/>
			<point x="125" y="0" type="line"/>
			<point x="125" y="291" type="line" smooth="yes"/>
			<point x="125" y="410"/>
			<point x="190" y="474"/>
			<point x="259" y="474" type="curve" smooth="yes"/>
			<point x="323" y="474"/>
			<point x="365" y="427"/>
			<point x="365" y="338" type="curve" smooth="yes"/>
			<point x="365" y="0" type="line"/>
			<point x="405" y="0" type="line"/>
			<point x="405" y="291" type="line" smooth="yes"/>
			<point x="405" y="410"/>
			<point x="468" y="474"/>
			<point x="535" y="474" type="curve" smooth="yes"/>
			<point x="595" y="474"/>
			<point x="637" y="427"/>
			<point x="637" y="338" type="curve" smooth="yes"/>
			<point x="637" y="83" type="line" smooth="yes"/>
			<point x="637" y="17"/>
			<point x="660" y="-14"/>
			<point x="726" y="-5" type="curve"/>
			<point x="724" y="26" type="line"/>
			<point x="686" y="22"/>
			<point x="677" y="39"/>
			<point x="677" y="89" type="curve" smooth="yes"/>
		</contour>
	</outline>
</glyph>
<glyph name="n" format="2">
	<advance width="495"/>
	<unicode hex="006E"/>
	<outline>
		<contour>
			<point x="457" y="26" type="line"/>
			<point x="419" y="22"/>
			<point x="410" y="39"/>
			<point x="410" y="89" type="curve" smooth="yes"/>
			<point x="410" y="344" type="line" smooth="yes"/>
			<point x="410" y="448"/>
			<point x="357" y="507"/>
			<point x="265" y="507" type="curve" smooth="yes"/>
			<point x="195" y="507"/>
			<point x="137" y="465"/>
			<point x="112" y="372" type="curve"/>
			<point x="125" y="372" type="line"/>
			<point x="124" y="500" type="line"/>
			<point x="87" y="500" type="line"/>
			<point x="87" y="0" type="line"/>
			<point x="127" y="0" type="line"/>
			<point x="127" y="291" type="line" smooth="yes"/>
			<point x="127" y="410"/>
			<point x="192" y="474"/>
			<point x="263" y="474" type="curve" smooth="yes"/>
			<point x="328" y="474"/>
			<point x="370" y="427"/>
			<point x="370" y="338" type="curve" smooth="yes"/>
			<point x="370" y="83" type="line" smooth="yes"/>
			<point x="370" y="24"/>
			<point x="388" y="-7"/>
			<point x="438" y="-7" type="curve" smooth="yes"/>
			<point x="445" y="-7"/>
			<point x="452" y="-6"/>
			<point x="459" y="-5" type="curve"/>
		</contour>
	</outline>
	<anchor name="top" x="251" y="500"/>
	<anchor name="bottom" x="251" y="0"/>
</glyph>
<glyph name="o" format="1">
  <advance width="479"/>
  <unicode hex="006F"/>
  <outline>
    <contour>
      <point x="399" y="121"/>
      <point x="345" y="26"/>
      <point x="239" y="26" type="curve" smooth="yes"/>
      <point x="134" y="26"/>
      <point x="80" y="119"/>
      <point x="80" y="249" type="curve" smooth="yes"/>
      <point x="80" y="377"/>
      <point x="138" y="474"/>
      <point x="242" y="474" type="curve" smooth="yes"/>
      <point x="346" y="474"/>
      <point x="399" y="379"/>
      <point x="399" y="249" type="curve" smooth="yes"/>
    </contour>
    <contour>
      <point x="439" y="397"/>
      <point x="376" y="507"/>
      <point x="243" y="507" type="curve" smooth="yes"/>
      <point x="116" y="507"/>
      <point x="40" y="396"/>
      <point x="40" y="249" type="curve" smooth="yes"/>
      <point x="40" y="100"/>
      <point x="102" y="-7"/>
      <point x="238" y="-7" type="curve" smooth="yes"/>
      <point x="367" y="-7"/>
      <point x="439" y="102"/>
      <point x="439" y="249" type="curve" smooth="yes"/>
    </contour>
  </outline>
</glyph>
<glyph name="p" format="2">
	<advance width="485"/>
	<unicode hex="0070"/>
	<outline>
		<contour>
			<point x="124" y="-205" type="line"/>
			<point x="124" y="294" type="line" smooth="yes"/>
			<point x="124" y="409"/>
			<point x="191" y="472"/>
			<point x="260" y="472" type="curve" smooth="yes"/>
			<point x="327" y="472"/>
			<point x="396" y="408"/>
			<point x="396" y="273" type="curve" smooth="yes"/>
			<point x="396" y="128"/>
			<point x="335" y="28"/>
			<point x="232" y="28" type="curve" smooth="yes"/>
			<point x="201" y="28"/>
			<point x="156" y="40"/>
			<point x="122" y="58" type="curve"/>
			<point x="84" y="34" type="line"/>
			<point x="119" y="13"/>
			<point x="179" y="-7"/>
			<point x="236" y="-7" type="curve" smooth="yes"/>
			<point x="359" y="-7"/>
			<point x="439" y="111"/>
			<point x="439" y="273" type="curve" smooth="yes"/>
			<point x="439" y="422"/>
			<point x="362" y="507"/>
			<point x="266" y="507" type="curve" smooth="yes"/>
			<point x="193" y="507"/>
			<point x="137" y="461"/>
			<point x="104" y="369" type="curve"/>
			<point x="124" y="370" type="line"/>
			<point x="123" y="500" type="line"/>
			<point x="84" y="500" type="line"/>
			<point x="84" y="-205" type="line"/>
		</contour>
	</outline>
</glyph>
<glyph name="q" format="1">
  <advance width="478"/>
  <unicode hex="0071"/>
  <outline>
    <contour>
      <point x="118" y="507"/>
      <point x="38" y="389"/>
      <point x="38" y="227" type="curve" smooth="yes"/>
      <point x="38" y="78"/>
      <point x="115" y="-7"/>
      <point x="211" y="-7" type="curve" smooth="yes"/>
      <point x="283" y="-7"/>
      <point x="345" y="36"/>
      <point x="379" y="128" type="curve"/>
      <point x="355" y="127" type="line"/>
      <point x="355" y="-225" type="line"/>
      <point x="393" y="-225" type="line"/>
      <point x="393" y="466" type="line"/>
      <point x="358" y="487"/>
      <point x="298" y="507"/>
      <point x="239" y="507" type="curve" smooth="yes"/>
    </contour>
    <contour>
      <point x="276" y="474"/>
      <point x="321" y="463"/>
      <point x="355" y="445" type="curve"/>
      <point x="355" y="206" type="line" smooth="yes"/>
      <point x="355" y="89"/>
      <point x="286" y="26"/>
      <point x="217" y="26" type="curve" smooth="yes"/>
      <point x="148" y="26"/>
      <point x="78" y="90"/>
      <point x="78" y="227" type="curve" smooth="yes"/>
      <point x="78" y="374"/>
      <point x="140" y="474"/>
      <point x="245" y="474" type="curve" smooth="yes"/>
    </contour>
  </outline>
</glyph>
<glyph name="r" format="2">
	<advance width="284"/>
	<unicode hex="0072"/>
	<outline>
		<contour>
			<point x="125" y="0" type="line"/>
			<point x="125" y="299" type="line" smooth="yes"/>
			<point x="125" y="396"/>
			<point x="173" y="471"/>
			<point x="245" y="471" type="curve" smooth="yes"/>
			<point x="255" y="471"/>
			<point x="267" y="469"/>
			<point x="279" y="466" type="curve"/>
			<point x="284" y="501" type="line"/>
			<point x="272" y="505"/>
			<point x="260" y="507"/>
			<point x="249" y="507" type="curve" smooth="yes"/>
			<point x="185" y="507"/>
			<point x="127" y="455"/>
			<point x="110" y="372" type="curve"/>
			<point x="123" y="372" type="line"/>
			<point x="122" y="500" type="line"/>
			<point x="85" y="500" type="line"/>
			<point x="85" y="0" type="line"/>
		</contour>
	</outline>
	<anchor name="top" x="151" y="500"/>
	<anchor name="bottom" x="155" y="0"/>
</glyph>
<glyph name="s" format="1">
  <advance width="397"/>
  <unicode hex="0073"/>
  <outline>
    <contour>
      <point x="95" y="13"/>
      <point x="152" y="-7"/>
      <point x="205" y="-7" type="curve" smooth="yes"/>
      <point x="278" y="-7"/>
      <point x="347" y="38"/>
      <point x="347" y="124" type="curve" smooth="yes"/>
      <point x="347" y="282"/>
      <point x="116" y="260"/>
      <point x="116" y="387" type="curve" smooth="yes"/>
      <point x="116" y="446"/>
      <point x="160" y="474"/>
      <point x="213" y="474" type="curve" smooth="yes"/>
      <point x="250" y="474"/>
      <point x="291" y="460"/>
      <point x="326" y="438" type="curve"/>
      <point x="341" y="466" type="line"/>
      <point x="303" y="492"/>
      <point x="257" y="507"/>
      <point x="214" y="507" type="curve" smooth="yes"/>
      <point x="142" y="507"/>
      <point x="78" y="467"/>
      <point x="78" y="387" type="curve" smooth="yes"/>
      <point x="78" y="231"/>
      <point x="309" y="256"/>
      <point x="309" y="124" type="curve" smooth="yes"/>
      <point x="309" y="61"/>
      <point x="262" y="26"/>
      <point x="207" y="26" type="curve" smooth="yes"/>
      <point x="165" y="26"/>
      <point x="115" y="44"/>
      <point x="71" y="77" type="curve"/>
      <point x="50" y="49" type="line"/>
    </contour>
  </outline>
</glyph>
<glyph name="t" format="2">
	<advance width="300"/>
	<unicode hex="0074"/>
	<outline>
		<contour>
			<point x="233" y="-7"/>
			<point x="257" y="0"/>
			<point x="285" y="16" type="curve"/>
			<point x="272" y="44" type="line"/>
			<point x="251" y="33"/>
			<point x="235" y="28"/>
			<point x="217" y="28" type="curve" smooth="yes"/>
			<point x="173" y="28"/>
			<point x="146" y="62"/>
			<point x="146" y="131" type="curve" smooth="yes"/>
			<point x="146" y="635" type="line"/>
			<point x="106" y="635" type="line"/>
			<point x="106" y="119" type="line" smooth="yes"/>
			<point x="106" y="37"/>
			<point x="149" y="-7"/>
			<point x="209" y="-7" type="curve" smooth="yes"/>
		</contour>
		<contour>
			<point x="273" y="465" type="line"/>
			<point x="273" y="500" type="line"/>
			<point x="20" y="500" type="line"/>
			<point x="20" y="465" type="line"/>
		</contour>
	</outline>
</glyph>
<glyph name="u" format="1">
  <advance width="500"/>
  <unicode hex="0075"/>
  <outline>
    <contour>
      <point x="371" y="27"/>
      <point x="391" y="-7"/>
      <point x="454" y="-7" type="curve" smooth="yes"/>
      <point x="462" y="-7"/>
      <point x="470" y="-6"/>
      <point x="480" y="-5" type="curve"/>
      <point x="478" y="26" type="line"/>
      <point x="472" y="25"/>
      <point x="467" y="25"/>
      <point x="462" y="25" type="curve" smooth="yes"/>
      <point x="421" y="25"/>
      <point x="411" y="50"/>
      <point x="411" y="103" type="curve"/>
      <point x="411" y="500" type="line"/>
      <point x="371" y="500" type="line"/>
      <point x="371" y="206" type="line" smooth="yes"/>
      <point x="371" y="89"/>
      <point x="305" y="25"/>
      <point x="233" y="25" type="curve" smooth="yes"/>
      <point x="167" y="25"/>
      <point x="123" y="72"/>
      <point x="123" y="159" type="curve" smooth="yes"/>
      <point x="123" y="500" type="line"/>
      <point x="83" y="500" type="line"/>
      <point x="83" y="156" type="line" smooth="yes"/>
      <point x="83" y="52"/>
      <point x="136" y="-7"/>
      <point x="231" y="-7" type="curve" smooth="yes"/>
      <point x="296" y="-7"/>
      <point x="352" y="31"/>
      <point x="380" y="107" type="curve"/>
      <point x="371" y="107" type="line"/>
    </contour>
    <contour>
      <point x="479" y="5" type="move" name="ogonek"/>
    </contour>
    <contour>
      <point x="251" y="500" type="move" name="top"/>
    </contour>
  </outline>
</glyph>
<glyph name="v" format="1">
  <advance width="408"/>
  <unicode hex="0076"/>
  <outline>
    <contour>
      <point x="199" y="51" type="line"/>
      <point x="207" y="51" type="line"/>
      <point x="46" y="500" type="line"/>
      <point x="5" y="500" type="line"/>
      <point x="186" y="0" type="line"/>
      <point x="216" y="0" type="line"/>
      <point x="403" y="500" type="line"/>
      <point x="363" y="500" type="line"/>
    </contour>
  </outline>
</glyph>
<glyph name="w" format="1">
  <advance width="677"/>
  <unicode hex="0077"/>
  <outline>
    <contour>
      <point x="192" y="0" type="line"/>
      <point x="346" y="463" type="line"/>
      <point x="331" y="463" type="line"/>
      <point x="480" y="0" type="line"/>
      <point x="506" y="0" type="line"/>
      <point x="672" y="500" type="line"/>
      <point x="634" y="500" type="line"/>
      <point x="492" y="52" type="line"/>
      <point x="500" y="52" type="line"/>
      <point x="358" y="500" type="line"/>
      <point x="320" y="497" type="line"/>
      <point x="178" y="52" type="line"/>
      <point x="186" y="52" type="line"/>
      <point x="45" y="500" type="line"/>
      <point x="5" y="500" type="line"/>
      <point x="166" y="0" type="line"/>
    </contour>
  </outline>
</glyph>
<glyph name="x" format="1">
  <advance width="408"/>
  <unicode hex="0078"/>
  <outline>
    <contour>
      <point x="395" y="26" type="line"/>
      <point x="394" y="26"/>
      <point x="393" y="26"/>
      <point x="392" y="26" type="curve" smooth="yes"/>
      <point x="380" y="26"/>
      <point x="373" y="30"/>
      <point x="358" y="52" type="curve" smooth="yes"/>
      <point x="215" y="264" type="line"/>
      <point x="61" y="500" type="line"/>
      <point x="11" y="500" type="line"/>
      <point x="187" y="240" type="line"/>
      <point x="322" y="35" type="line" smooth="yes"/>
      <point x="343" y="3"/>
      <point x="358" y="-7"/>
      <point x="379" y="-7" type="curve" smooth="yes"/>
      <point x="385" y="-7"/>
      <point x="391" y="-6"/>
      <point x="398" y="-5" type="curve"/>
    </contour>
    <contour>
      <point x="51" y="0" type="line"/>
      <point x="209" y="232" type="line"/>
      <point x="219" y="241" type="line"/>
      <point x="392" y="500" type="line"/>
      <point x="349" y="500" type="line"/>
      <point x="196" y="269" type="line"/>
      <point x="185" y="260" type="line"/>
      <point x="8" y="0" type="line"/>
    </contour>
  </outline>
</glyph>
<glyph name="y" format="1">
  <advance width="400"/>
  <unicode hex="0079"/>
  <outline>
    <contour>
      <point x="355" y="500" type="line"/>
      <point x="192" y="51" type="line"/>
      <point x="201" y="51" type="line"/>
      <point x="40" y="500" type="line"/>
      <point x="-2" y="500" type="line"/>
      <point x="178" y="9" type="line"/>
      <point x="127" y="-122" type="line" smooth="yes"/>
      <point x="112" y="-160"/>
      <point x="87" y="-180"/>
      <point x="56" y="-180" type="curve" smooth="yes"/>
      <point x="36" y="-180"/>
      <point x="14" y="-171"/>
      <point x="-9" y="-156" type="curve"/>
      <point x="-27" y="-185" type="line"/>
      <point x="3" y="-203"/>
      <point x="30" y="-213"/>
      <point x="55" y="-213" type="curve" smooth="yes"/>
      <point x="103" y="-213"/>
      <point x="141" y="-180"/>
      <point x="165" y="-114" type="curve" smooth="yes"/>
      <point x="395" y="500" type="line"/>
    </contour>
  </outline>
</glyph>
<glyph name="z" format="2">
	<advance width="398"/>
	<unicode hex="007A"/>
	<outline>
		<contour>
			<point x="88" y="35" type="line"/>
			<point x="363" y="475" type="line"/>
			<point x="363" y="500" type="line"/>
			<point x="43" y="500" type="line"/>
			<point x="43" y="465" type="line"/>
			<point x="312" y="465" type="line"/>
			<point x="33" y="25" type="line"/>
			<point x="33" y="0" type="line"/>
			<point x="363" y="0" type="line"/>
			<point x="363" y="35" type="line"/>
		</contour>
	</outline>
	<anchor name="top" x="214" y="500"/>
</glyph>
<glyph name="braceleft" format="2">
	<advance width="257"/>
	<unicode hex="007B"/>
	<outline>
		<contour>
			<point x="210" y="-178"/>
			<point x="224" y="-177"/>
			<point x="235" y="-175" type="curve"/>
			<point x="233" y="-141" type="line"/>
			<point x="226" y="-142"/>
			<point x="221" y="-142"/>
			<point x="205" y="-142" type="curve" smooth="yes"/>
			<point x="160" y="-142"/>
			<point x="149" y="-115"/>
			<point x="149" y="-57" type="curve" smooth="yes"/>
			<point x="149" y="218" type="line" smooth="yes"/>
			<point x="149" y="278"/>
			<point x="119" y="303"/>
			<point x="59" y="303" type="curve"/>
			<point x="59" y="292" type="line"/>
			<point x="119" y="292"/>
			<point x="149" y="317"/>
			<point x="149" y="377" type="curve" smooth="yes"/>
			<point x="149" y="645" type="line" smooth="yes"/>
			<point x="149" y="703"/>
			<point x="160" y="730"/>
			<point x="205" y="730" type="curve" smooth="yes"/>
			<point x="221" y="730"/>
			<point x="226" y="730"/>
			<point x="233" y="729" type="curve"/>
			<point x="235" y="763" type="line"/>
			<point x="224" y="765"/>
			<point x="210" y="766"/>
			<point x="197" y="766" type="curve" smooth="yes"/>
			<point x="127" y="766"/>
			<point x="110" y="727"/>
			<point x="110" y="647" type="curve" smooth="yes"/>
			<point x="110" y="383" type="line" smooth="yes"/>
			<point x="110" y="333"/>
			<point x="90" y="313"/>
			<point x="40" y="313" type="curve"/>
			<point x="40" y="282" type="line"/>
			<point x="90" y="282"/>
			<point x="110" y="262"/>
			<point x="110" y="212" type="curve" smooth="yes"/>
			<point x="110" y="-59" type="line" smooth="yes"/>
			<point x="110" y="-139"/>
			<point x="127" y="-178"/>
			<point x="197" y="-178" type="curve" smooth="yes"/>
		</contour>
	</outline>
</glyph>
<glyph name="bar" format="2">
	<advance width="317"/>
	<unicode hex="007C"/>
	<outline>
		<contour>
			<point x="142" y="725" type="line"/>
			<point x="140" y="-70" type="line"/>
			<point x="177" y="-70" type="line"/>
			<point x="177" y="725" type="line"/>
		</contour>
	</outline>
</glyph>
<glyph name="asciitilde" format="2">
	<advance width="508"/>
	<unicode hex="007E"/>
	<outline>
		<contour>
			<point x="390" y="216"/>
			<point x="425" y="231"/>
			<point x="458" y="269" type="curve"/>
			<point x="433" y="293" type="line"/>
			<point x="408" y="268"/>
			<point x="381" y="256"/>
			<point x="351" y="256" type="curve" smooth="yes"/>
			<point x="289" y="256"/>
			<point x="236" y="311"/>
			<point x="163" y="311" type="curve" smooth="yes"/>
			<point x="120" y="311"/>
			<point x="85" y="294"/>
			<point x="50" y="260" type="curve"/>
			<point x="74" y="236" type="line"/>
			<point x="101" y="259"/>
			<point x="129" y="271"/>
			<point x="161" y="271" type="curve" smooth="yes"/>
			<point x="230" y="271"/>
			<point x="278" y="216"/>
			<point x="350" y="216" type="curve" smooth="yes"/>
		</contour>
	</outline>
</glyph>
<glyph name="sterling" format="2">
	<advance width="454"/>
	<unicode hex="00A3"/>
	<outline>
		<contour>
			<point x="403" y="0" type="line"/>
			<point x="403" y="37" type="line"/>
			<point x="126" y="37" type="line"/>
			<point x="131" y="32" type="line"/>
			<point x="131" y="454" type="line" smooth="yes"/>
			<point x="131" y="590"/>
			<point x="189" y="644"/>
			<point x="262" y="644" type="curve" smooth="yes"/>
			<point x="302" y="644"/>
			<point x="347" y="628"/>
			<point x="388" y="600" type="curve"/>
			<point x="409" y="633" type="line"/>
			<point x="363" y="665"/>
			<point x="311" y="682"/>
			<point x="263" y="682" type="curve" smooth="yes"/>
			<point x="169" y="682"/>
			<point x="89" y="617"/>
			<point x="89" y="466" type="curve" smooth="yes"/>
			<point x="89" y="32" type="line"/>
			<point x="94" y="37" type="line"/>
			<point x="20" y="37" type="line"/>
			<point x="20" y="0" type="line"/>
		</contour>
		<contour>
			<point x="330" y="326" type="line"/>
			<point x="330" y="363" type="line"/>
			<point x="20" y="363" type="line"/>
			<point x="20" y="326" type="line"/>
		</contour>
	</outline>
</glyph>
<glyph name="yen" format="1">
  <advance width="515"/>
  <unicode hex="00A5"/>
  <outline>
    <contour>
      <point x="265" y="0" type="line"/>
      <point x="265" y="255" type="line"/>
      <point x="470" y="675" type="line"/>
      <point x="426" y="675" type="line"/>
      <point x="308" y="429" type="line" smooth="yes"/>
      <point x="282" y="376"/>
      <point x="263" y="333"/>
      <point x="242" y="281" type="curve"/>
      <point x="251" y="281" type="line"/>
      <point x="232" y="329"/>
      <point x="212" y="376"/>
      <point x="186" y="431" type="curve" smooth="yes"/>
      <point x="71" y="675" type="line"/>
      <point x="25" y="675" type="line"/>
      <point x="223" y="256" type="line"/>
      <point x="223" y="0" type="line"/>
    </contour>
    <contour>
      <point x="420" y="145" type="line"/>
      <point x="420" y="180" type="line"/>
      <point x="68" y="180" type="line"/>
      <point x="68" y="145" type="line"/>
    </contour>
    <contour>
      <point x="420" y="255" type="line"/>
      <point x="420" y="290" type="line"/>
      <point x="68" y="290" type="line"/>
      <point x="68" y="255" type="line"/>
    </contour>
  </outline>
</glyph>
<glyph name="section" format="1">
  <advance width="386"/>
  <unicode hex="00A7"/>
  <outline>
    <contour>
      <point x="316" y="146"/>
      <point x="336" y="186"/>
      <point x="336" y="232" type="curve" smooth="yes"/>
      <point x="336" y="387"/>
      <point x="109" y="436"/>
      <point x="109" y="560" type="curve" smooth="yes"/>
      <point x="109" y="618"/>
      <point x="156" y="647"/>
      <point x="205" y="647" type="curve" smooth="yes"/>
      <point x="232" y="647"/>
      <point x="261" y="639"/>
      <point x="284" y="620" type="curve"/>
      <point x="308" y="646" type="line"/>
      <point x="279" y="671"/>
      <point x="243" y="682"/>
      <point x="208" y="682" type="curve" smooth="yes"/>
      <point x="137" y="682"/>
      <point x="69" y="637"/>
      <point x="69" y="560" type="curve" smooth="yes"/>
      <point x="69" y="407"/>
      <point x="296" y="360"/>
      <point x="296" y="231" type="curve" smooth="yes"/>
      <point x="296" y="200"/>
      <point x="287" y="171"/>
      <point x="268" y="154" type="curve"/>
      <point x="286" y="124" type="line"/>
    </contour>
    <contour>
      <point x="253" y="-80"/>
      <point x="317" y="-32"/>
      <point x="317" y="54" type="curve" smooth="yes"/>
      <point x="317" y="209"/>
      <point x="90" y="248"/>
      <point x="90" y="372" type="curve" smooth="yes"/>
      <point x="90" y="409"/>
      <point x="110" y="439"/>
      <point x="137" y="452" type="curve"/>
      <point x="117" y="478" type="line"/>
      <point x="78" y="459"/>
      <point x="50" y="423"/>
      <point x="50" y="371" type="curve" smooth="yes"/>
      <point x="50" y="219"/>
      <point x="277" y="182"/>
      <point x="277" y="54" type="curve" smooth="yes"/>
      <point x="277" y="-8"/>
      <point x="231" y="-45"/>
      <point x="176" y="-45" type="curve" smooth="yes"/>
      <point x="147" y="-45"/>
      <point x="116" y="-35"/>
      <point x="84" y="-19" type="curve"/>
      <point x="68" y="-54" type="line"/>
      <point x="104" y="-71"/>
      <point x="140" y="-80"/>
      <point x="173" y="-80" type="curve" smooth="yes"/>
    </contour>
  </outline>
</glyph>
<glyph name="dieresis" format="2">
	<advance width="372"/>
	<unicode hex="00A8"/>
	<outline>
		<contour>
			<point x="123" y="607"/>
			<point x="135" y="624"/>
			<point x="135" y="644" type="curve" smooth="yes"/>
			<point x="135" y="664"/>
			<point x="123" y="681"/>
			<point x="103" y="681" type="curve" smooth="yes"/>
			<point x="82" y="681"/>
			<point x="70" y="664"/>
			<point x="70" y="644" type="curve" smooth="yes"/>
			<point x="70" y="624"/>
			<point x="82" y="607"/>
			<point x="103" y="607" type="curve" smooth="yes"/>
		</contour>
		<contour>
			<point x="290" y="607"/>
			<point x="302" y="624"/>
			<point x="302" y="644" type="curve" smooth="yes"/>
			<point x="302" y="664"/>
			<point x="290" y="681"/>
			<point x="269" y="681" type="curve" smooth="yes"/>
			<point x="249" y="681"/>
			<point x="237" y="664"/>
			<point x="237" y="644" type="curve" smooth="yes"/>
			<point x="237" y="624"/>
			<point x="249" y="607"/>
			<point x="269" y="607" type="curve" smooth="yes"/>
		</contour>
	</outline>
	<anchor name="_top" x="186" y="500"/>
</glyph>
<glyph name="copyright" format="1">
  <advance width="757"/>
  <unicode hex="00A9"/>
  <outline>
    <contour>
      <point x="573" y="-1"/>
      <point x="714" y="150"/>
      <point x="714" y="347" type="curve" smooth="yes"/>
      <point x="714" y="541"/>
      <point x="573" y="691"/>
      <point x="382" y="690" type="curve" smooth="yes"/>
      <point x="190" y="690"/>
      <point x="47" y="541"/>
      <point x="47" y="346" type="curve" smooth="yes"/>
      <point x="47" y="149"/>
      <point x="188" y="0"/>
      <point x="381" y="0" type="curve" smooth="yes"/>
    </contour>
    <contour>
      <point x="419" y="113"/>
      <point x="469" y="124"/>
      <point x="522" y="154" type="curve"/>
      <point x="508" y="184" type="line"/>
      <point x="463" y="159"/>
      <point x="422" y="148"/>
      <point x="389" y="148" type="curve" smooth="yes"/>
      <point x="302" y="148"/>
      <point x="247" y="217"/>
      <point x="247" y="339" type="curve" smooth="yes"/>
      <point x="247" y="464"/>
      <point x="297" y="542"/>
      <point x="382" y="542" type="curve" smooth="yes"/>
      <point x="426" y="542"/>
      <point x="473" y="510"/>
      <point x="499" y="458" type="curve"/>
      <point x="531" y="479" type="line"/>
      <point x="496" y="543"/>
      <point x="440" y="577"/>
      <point x="385" y="577" type="curve" smooth="yes"/>
      <point x="277" y="577"/>
      <point x="204" y="488"/>
      <point x="204" y="340" type="curve" smooth="yes"/>
      <point x="204" y="196"/>
      <point x="274" y="113"/>
      <point x="381" y="113" type="curve" smooth="yes"/>
    </contour>
    <contour>
      <point x="213" y="34"/>
      <point x="89" y="169"/>
      <point x="89" y="347" type="curve" smooth="yes"/>
      <point x="89" y="523"/>
      <point x="213" y="656"/>
      <point x="382" y="656" type="curve" smooth="yes"/>
      <point x="548" y="657"/>
      <point x="671" y="521"/>
      <point x="672" y="346" type="curve" smooth="yes"/>
      <point x="672" y="168"/>
      <point x="550" y="33"/>
      <point x="382" y="34" type="curve" smooth="yes"/>
    </contour>
  </outline>
</glyph>
<glyph name="ordfeminine" format="1">
  <advance width="321"/>
  <unicode hex="00AA"/>
  <outline>
    <contour>
      <point x="227" y="332"/>
      <point x="242" y="307"/>
      <point x="288" y="307" type="curve" smooth="yes"/>
      <point x="294" y="307"/>
      <point x="300" y="307"/>
      <point x="307" y="308" type="curve"/>
      <point x="305" y="338" type="line"/>
      <point x="301" y="337"/>
      <point x="297" y="337"/>
      <point x="294" y="337" type="curve" smooth="yes"/>
      <point x="267" y="337"/>
      <point x="260" y="355"/>
      <point x="260" y="387" type="curve" smooth="yes"/>
      <point x="260" y="578" type="line" smooth="yes"/>
      <point x="260" y="647"/>
      <point x="213" y="682"/>
      <point x="151" y="682" type="curve" smooth="yes"/>
      <point x="116" y="682"/>
      <point x="77" y="672"/>
      <point x="39" y="649" type="curve"/>
      <point x="55" y="621" type="line"/>
      <point x="86" y="640"/>
      <point x="120" y="651"/>
      <point x="149" y="651" type="curve" smooth="yes"/>
      <point x="191" y="651"/>
      <point x="223" y="628"/>
      <point x="223" y="575" type="curve" smooth="yes"/>
      <point x="223" y="426" type="line" smooth="yes"/>
      <point x="223" y="366"/>
      <point x="170" y="338"/>
      <point x="135" y="338" type="curve" smooth="yes"/>
      <point x="91" y="338"/>
      <point x="64" y="365"/>
      <point x="64" y="415" type="curve" smooth="yes"/>
      <point x="64" y="456"/>
      <point x="92" y="492"/>
      <point x="173" y="492" type="curve" smooth="yes"/>
      <point x="197" y="492"/>
      <point x="216" y="491"/>
      <point x="237" y="487" type="curve"/>
      <point x="237" y="516" type="line"/>
      <point x="217" y="520"/>
      <point x="199" y="521"/>
      <point x="175" y="521" type="curve" smooth="yes"/>
      <point x="80" y="521"/>
      <point x="25" y="476"/>
      <point x="25" y="415" type="curve" smooth="yes"/>
      <point x="25" y="345"/>
      <point x="67" y="307"/>
      <point x="130" y="307" type="curve" smooth="yes"/>
      <point x="170" y="307"/>
      <point x="218" y="331"/>
      <point x="240" y="382" type="curve"/>
      <point x="227" y="386" type="line"/>
    </contour>
  </outline>
</glyph>
<glyph name="guillemotleft" format="1">
  <advance width="458"/>
  <unicode hex="00AB"/>
  <outline>
    <contour>
      <point x="230" y="412" type="line"/>
      <point x="204" y="437" type="line"/>
      <point x="55" y="263" type="line"/>
      <point x="201" y="90" type="line"/>
      <point x="228" y="116" type="line"/>
      <point x="101" y="264" type="line"/>
    </contour>
    <contour>
      <point x="383" y="412" type="line"/>
      <point x="357" y="437" type="line"/>
      <point x="204" y="263" type="line"/>
      <point x="354" y="90" type="line"/>
      <point x="381" y="116" type="line"/>
      <point x="250" y="264" type="line"/>
    </contour>
  </outline>
</glyph>
<glyph name="logicalnot" format="2">
	<advance width="474"/>
	<unicode hex="00AC"/>
	<outline>
		<contour>
			<point x="429" y="239" type="line"/>
			<point x="429" y="276" type="line"/>
			<point x="35" y="276" type="line"/>
			<point x="35" y="239" type="line"/>
		</contour>
		<contour>
			<point x="429" y="117" type="line"/>
			<point x="429" y="276" type="line"/>
			<point x="388" y="276" type="line"/>
			<point x="388" y="117" type="line"/>
		</contour>
	</outline>
</glyph>
<glyph name="macron" format="2">
	<advance width="355"/>
	<unicode hex="00AF"/>
	<outline>
		<contour>
			<point x="55" y="662" type="line"/>
			<point x="55" y="627" type="line"/>
			<point x="300" y="627" type="line"/>
			<point x="300" y="662" type="line"/>
		</contour>
	</outline>
	<anchor name="_top" x="177" y="500"/>
</glyph>
<glyph name="degree" format="1">
  <advance width="345"/>
  <unicode hex="00B0"/>
  <outline>
    <contour>
      <point x="285" y="694"/>
      <point x="229" y="732"/>
      <point x="174" y="732" type="curve" smooth="yes"/>
      <point x="117" y="732"/>
      <point x="60" y="693"/>
      <point x="60" y="615" type="curve" smooth="yes"/>
      <point x="60" y="539"/>
      <point x="115" y="502"/>
      <point x="170" y="502" type="curve" smooth="yes"/>
      <point x="227" y="502"/>
      <point x="285" y="541"/>
      <point x="285" y="617" type="curve" smooth="yes"/>
    </contour>
    <contour>
      <point x="250" y="561"/>
      <point x="210" y="535"/>
      <point x="172" y="535" type="curve" smooth="yes"/>
      <point x="135" y="535"/>
      <point x="95" y="561"/>
      <point x="95" y="619" type="curve" smooth="yes"/>
      <point x="95" y="674"/>
      <point x="134" y="699"/>
      <point x="172" y="699" type="curve" smooth="yes"/>
      <point x="210" y="699"/>
      <point x="250" y="673"/>
      <point x="250" y="614" type="curve" smooth="yes"/>
    </contour>
  </outline>
</glyph>
<glyph name="plusminus" format="2">
	<advance width="484"/>
	<unicode hex="00B1"/>
	<outline>
		<contour>
			<point x="444" y="30" type="line"/>
			<point x="444" y="67" type="line"/>
			<point x="40" y="67" type="line"/>
			<point x="40" y="30" type="line"/>
		</contour>
		<contour>
			<point x="263" y="132" type="line"/>
			<point x="263" y="487" type="line"/>
			<point x="222" y="487" type="line"/>
			<point x="222" y="132" type="line"/>
		</contour>
		<contour>
			<point x="444" y="291" type="line"/>
			<point x="444" y="328" type="line"/>
			<point x="40" y="328" type="line"/>
			<point x="40" y="291" type="line"/>
		</contour>
	</outline>
</glyph>
<glyph name="threesuperior" format="2">
	<advance width="318"/>
	<unicode hex="00B3"/>
	<outline>
		<contour>
			<point x="99" y="262"/>
			<point x="143" y="262" type="curve" smooth="yes"/>
			<point x="219" y="262"/>
			<point x="283" y="307"/>
			<point x="283" y="386" type="curve" smooth="yes"/>
			<point x="283" y="441"/>
			<point x="240" y="493"/>
			<point x="143" y="493" type="curve"/>
			<point x="143" y="484" type="line"/>
			<point x="223" y="484"/>
			<point x="263" y="532"/>
			<point x="263" y="581" type="curve" smooth="yes"/>
			<point x="263" y="645"/>
			<point x="204" y="682"/>
			<point x="141" y="682" type="curve" smooth="yes"/>
			<point x="95" y="682"/>
			<point x="47" y="662"/>
			<point x="20" y="618" type="curve"/>
			<point x="51" y="602" type="line"/>
			<point x="71" y="635"/>
			<point x="107" y="650"/>
			<point x="141" y="650" type="curve" smooth="yes"/>
			<point x="184" y="650"/>
			<point x="224" y="625"/>
			<point x="224" y="579" type="curve" smooth="yes"/>
			<point x="224" y="541"/>
			<point x="190" y="502"/>
			<point x="118" y="502" type="curve" smooth="yes"/>
			<point x="92" y="502" type="line"/>
			<point x="92" y="471" type="line"/>
			<point x="135" y="471" type="line" smooth="yes"/>
			<point x="212" y="471"/>
			<point x="244" y="429"/>
			<point x="244" y="386" type="curve" smooth="yes"/>
			<point x="244" y="327"/>
			<point x="198" y="294"/>
			<point x="141" y="294" type="curve" smooth="yes"/>
			<point x="105" y="294"/>
			<point x="65" y="308"/>
			<point x="31" y="337" type="curve"/>
			<point x="10" y="311" type="line"/>
			<point x="51" y="278"/>
		</contour>
	</outline>
</glyph>
<glyph name="acute" format="2">
	<advance width="335"/>
	<unicode hex="00B4"/>
	<outline>
		<contour>
			<point x="265" y="678" type="line"/>
			<point x="235" y="714" type="line"/>
			<point x="99" y="608" type="line"/>
			<point x="120" y="580" type="line"/>
		</contour>
	</outline>
	<anchor name="_top" x="154" y="500"/>
</glyph>
<glyph name="paragraph" format="2">
	<advance width="434"/>
	<unicode hex="00B6"/>
	<outline>
		<contour>
			<point x="249" y="0" type="line"/>
			<point x="249" y="675" type="line"/>
			<point x="189" y="675" type="line" smooth="yes"/>
			<point x="82" y="675"/>
			<point x="25" y="606"/>
			<point x="25" y="527" type="curve" smooth="yes"/>
			<point x="25" y="434"/>
			<point x="77" y="381"/>
			<point x="215" y="381" type="curve"/>
			<point x="207" y="390" type="line"/>
			<point x="207" y="0" type="line"/>
		</contour>
		<contour>
			<point x="349" y="0" type="line"/>
			<point x="349" y="675" type="line"/>
			<point x="307" y="675" type="line"/>
			<point x="307" y="0" type="line"/>
		</contour>
	</outline>
</glyph>
<glyph name="periodcentered" format="1">
  <advance width="180"/>
  <unicode hex="00B7"/>
  <outline>
    <contour>
      <point x="70" y="241"/>
      <point x="90" y="241" type="curve" smooth="yes"/>
      <point x="110" y="241"/>
      <point x="130" y="255"/>
      <point x="130" y="284" type="curve" smooth="yes"/>
      <point x="130" y="313"/>
      <point x="110" y="327"/>
      <point x="90" y="327" type="curve" smooth="yes"/>
      <point x="70" y="327"/>
      <point x="50" y="313"/>
      <point x="50" y="284" type="curve" smooth="yes"/>
      <point x="50" y="255"/>
    </contour>
  </outline>
</glyph>
<glyph name="ordmasculine" format="1">
  <advance width="371"/>
  <unicode hex="00BA"/>
  <outline>
    <contour>
      <point x="292" y="406"/>
      <point x="257" y="338"/>
      <point x="185" y="338" type="curve" smooth="yes"/>
      <point x="114" y="338"/>
      <point x="79" y="405"/>
      <point x="79" y="494" type="curve" smooth="yes"/>
      <point x="79" y="581"/>
      <point x="116" y="651"/>
      <point x="187" y="651" type="curve" smooth="yes"/>
      <point x="258" y="651"/>
      <point x="292" y="583"/>
      <point x="292" y="494" type="curve" smooth="yes"/>
    </contour>
    <contour>
      <point x="331" y="602"/>
      <point x="285" y="682"/>
      <point x="188" y="682" type="curve" smooth="yes"/>
      <point x="95" y="682"/>
      <point x="40" y="601"/>
      <point x="40" y="494" type="curve" smooth="yes"/>
      <point x="40" y="385"/>
      <point x="85" y="307"/>
      <point x="184" y="307" type="curve" smooth="yes"/>
      <point x="279" y="307"/>
      <point x="331" y="386"/>
      <point x="331" y="494" type="curve" smooth="yes"/>
    </contour>
  </outline>
</glyph>
<glyph name="onequarter" format="1">
  <advance width="749"/>
  <unicode hex="00BC"/>
  <outline>
    <contour>
      <point x="670" y="0" type="line"/>
      <point x="670" y="407" type="line"/>
      <point x="629" y="407" type="line"/>
      <point x="439" y="128" type="line"/>
      <point x="443" y="103" type="line"/>
      <point x="719" y="104" type="line"/>
      <point x="719" y="136" type="line"/>
      <point x="469" y="136" type="line"/>
      <point x="479" y="128" type="line"/>
      <point x="643" y="369" type="line"/>
      <point x="632" y="369" type="line"/>
      <point x="632" y="0" type="line"/>
    </contour>
    <component base="fraction" xOffset="116"/>
    <component base="onesuperior" xOffset="-15"/>
  </outline>
</glyph>
<glyph name="threequarters" format="2">
	<advance width="785"/>
	<unicode hex="00BE"/>
	<outline>
		<contour>
			<point x="706" y="0" type="line"/>
			<point x="706" y="407" type="line"/>
			<point x="665" y="407" type="line"/>
			<point x="475" y="128" type="line"/>
			<point x="479" y="103" type="line"/>
			<point x="755" y="104" type="line"/>
			<point x="755" y="136" type="line"/>
			<point x="505" y="136" type="line"/>
			<point x="515" y="128" type="line"/>
			<point x="679" y="369" type="line"/>
			<point x="668" y="369" type="line"/>
			<point x="668" y="0" type="line"/>
		</contour>
		<component base="threesuperior"/>
		<component base="fraction" xOffset="154"/>
	</outline>
</glyph>
<glyph name="AE" format="2">
	<advance width="810"/>
	<unicode hex="00C6"/>
	<outline>
		<contour>
			<point x="59" y="0" type="line"/>
			<point x="334" y="473" type="line" smooth="yes"/>
			<point x="368" y="532"/>
			<point x="401" y="590"/>
			<point x="435" y="649" type="curve"/>
			<point x="432" y="649" type="line"/>
			<point x="467" y="675" type="line"/>
			<point x="405" y="675" type="line"/>
			<point x="10" y="0" type="line"/>
		</contour>
		<contour>
			<point x="456" y="181" type="line"/>
			<point x="456" y="216" type="line"/>
			<point x="162" y="215" type="line"/>
			<point x="143" y="180" type="line"/>
		</contour>
		<component base="E" xOffset="347"/>
	</outline>
	<anchor name="top" x="468" y="635"/>
</glyph>
<glyph name="Icircumflex" format="2">
	<advance width="209"/>
	<unicode hex="00CE"/>
	<outline>
		<contour>
			<point x="109" y="854" type="line"/>
			<point x="-5" y="747" type="line"/>
			<point x="16" y="721" type="line"/>
			<point x="110" y="803" type="line"/>
			<point x="102" y="803" type="line"/>
			<point x="198" y="720" type="line"/>
			<point x="220" y="749" type="line"/>
		</contour>
		<component base="I"/>
	</outline>
</glyph>
<glyph name="Idieresis" format="1">
  <advance width="209"/>
  <unicode hex="00CF"/>
  <outline>
    <contour>
      <point x="51" y="752"/>
      <point x="63" y="769"/>
      <point x="63" y="789" type="curve" smooth="yes"/>
      <point x="63" y="809"/>
      <point x="51" y="826"/>
      <point x="31" y="826" type="curve" smooth="yes"/>
      <point x="10" y="826"/>
      <point x="-2" y="809"/>
      <point x="-2" y="789" type="curve" smooth="yes"/>
      <point x="-2" y="769"/>
      <point x="10" y="752"/>
      <point x="31" y="752" type="curve" smooth="yes"/>
    </contour>
    <contour>
      <point x="198" y="752"/>
      <point x="210" y="769"/>
      <point x="210" y="789" type="curve" smooth="yes"/>
      <point x="210" y="809"/>
      <point x="198" y="826"/>
      <point x="177" y="826" type="curve" smooth="yes"/>
      <point x="157" y="826"/>
      <point x="145" y="809"/>
      <point x="145" y="789" type="curve" smooth="yes"/>
      <point x="145" y="769"/>
      <point x="157" y="752"/>
      <point x="177" y="752" type="curve" smooth="yes"/>
    </contour>
    <component base="I"/>
  </outline>
</glyph>
<glyph name="Eth" format="2">
	<advance width="562"/>
	<unicode hex="00D0"/>
	<outline>
		<contour>
			<point x="7" y="371" type="line"/>
			<point x="7" y="336" type="line"/>
			<point x="292" y="336" type="line"/>
			<point x="292" y="371" type="line"/>
		</contour>
		<component base="D" xOffset="2"/>
	</outline>
</glyph>
<glyph name="multiply" format="1">
  <advance width="439"/>
  <unicode hex="00D7"/>
  <outline>
    <contour>
      <point x="65" y="386" type="line"/>
      <point x="347" y="104" type="line"/>
      <point x="374" y="131" type="line"/>
      <point x="92" y="413" type="line"/>
    </contour>
    <contour>
      <point x="348" y="412" type="line"/>
      <point x="66" y="130" type="line"/>
      <point x="92" y="104" type="line"/>
      <point x="374" y="386" type="line"/>
    </contour>
  </outline>
</glyph>
<glyph name="Thorn" format="1">
  <advance width="477"/>
  <unicode hex="00DE"/>
  <outline>
    <contour>
      <point x="239" y="163" type="line" smooth="yes"/>
      <point x="373" y="163"/>
      <point x="452" y="249"/>
      <point x="452" y="365" type="curve" smooth="yes"/>
      <point x="452" y="464"/>
      <point x="406" y="546"/>
      <point x="229" y="545" type="curve" smooth="yes"/>
      <point x="104" y="544" type="line"/>
      <point x="104" y="507" type="line"/>
      <point x="222" y="508" type="line" smooth="yes"/>
      <point x="359" y="509"/>
      <point x="406" y="454"/>
      <point x="406" y="356" type="curve" smooth="yes"/>
      <point x="406" y="262"/>
      <point x="347" y="200"/>
      <point x="210" y="200" type="curve" smooth="yes"/>
      <point x="105" y="200" type="line"/>
      <point x="105" y="163" type="line"/>
    </contour>
    <contour>
      <point x="127" y="0" type="line"/>
      <point x="127" y="675" type="line"/>
      <point x="85" y="675" type="line"/>
      <point x="85" y="0" type="line"/>
    </contour>
  </outline>
</glyph>
<glyph name="germandbls" format="1">
  <advance width="534"/>
  <unicode hex="00DF"/>
  <outline>
    <contour>
      <point x="418" y="-7"/>
      <point x="489" y="40"/>
      <point x="489" y="136" type="curve" smooth="yes"/>
      <point x="489" y="290"/>
      <point x="289" y="294"/>
      <point x="289" y="395" type="curve" smooth="yes"/>
      <point x="289" y="482"/>
      <point x="434" y="488"/>
      <point x="434" y="615" type="curve" smooth="yes"/>
      <point x="434" y="693"/>
      <point x="354" y="732"/>
      <point x="273" y="732" type="curve" smooth="yes"/>
      <point x="180" y="732"/>
      <point x="106" y="680"/>
      <point x="106" y="563" type="curve" smooth="yes"/>
      <point x="106" y="0" type="line"/>
      <point x="146" y="0" type="line"/>
      <point x="146" y="559" type="line" smooth="yes"/>
      <point x="146" y="658"/>
      <point x="199" y="700"/>
      <point x="272" y="700" type="curve" smooth="yes"/>
      <point x="333" y="700"/>
      <point x="393" y="671"/>
      <point x="393" y="613" type="curve" smooth="yes"/>
      <point x="393" y="496"/>
      <point x="249" y="504"/>
      <point x="249" y="395" type="curve" smooth="yes"/>
      <point x="249" y="265"/>
      <point x="449" y="264"/>
      <point x="449" y="136" type="curve" smooth="yes"/>
      <point x="449" y="65"/>
      <point x="402" y="28"/>
      <point x="357" y="28" type="curve" smooth="yes"/>
      <point x="332" y="28"/>
      <point x="295" y="39"/>
      <point x="259" y="60" type="curve"/>
      <point x="242" y="27" type="line"/>
      <point x="280" y="5"/>
      <point x="322" y="-7"/>
      <point x="355" y="-7" type="curve" smooth="yes"/>
    </contour>
    <contour>
      <point x="130" y="465" type="line"/>
      <point x="130" y="500" type="line"/>
      <point x="30" y="500" type="line"/>
      <point x="30" y="465" type="line"/>
    </contour>
  </outline>
</glyph>
<glyph name="ae" format="2">
	<advance width="692"/>
	<unicode hex="00E6"/>
	<outline>
		<contour>
			<point x="225" y="-7"/>
			<point x="300" y="29"/>
			<point x="328" y="110" type="curve"/>
			<point x="327" y="110" type="line"/>
			<point x="360" y="35"/>
			<point x="423" y="-7"/>
			<point x="505" y="-7" type="curve" smooth="yes"/>
			<point x="549" y="-7"/>
			<point x="597" y="5"/>
			<point x="648" y="29" type="curve"/>
			<point x="635" y="60" type="line"/>
			<point x="591" y="39"/>
			<point x="552" y="29"/>
			<point x="512" y="29" type="curve" smooth="yes"/>
			<point x="410" y="29"/>
			<point x="343" y="106"/>
			<point x="343" y="249" type="curve" smooth="yes"/>
			<point x="343" y="381"/>
			<point x="394" y="472"/>
			<point x="487" y="472" type="curve" smooth="yes"/>
			<point x="589" y="472"/>
			<point x="618" y="374"/>
			<point x="617" y="287" type="curve"/>
			<point x="323" y="286" type="line"/>
			<point x="323" y="251" type="line"/>
			<point x="659" y="251" type="line"/>
			<point x="659" y="271" type="line" smooth="yes"/>
			<point x="659" y="408"/>
			<point x="612" y="507"/>
			<point x="487" y="507" type="curve" smooth="yes"/>
			<point x="409" y="507"/>
			<point x="354" y="458"/>
			<point x="326" y="383" type="curve"/>
			<point x="341" y="383" type="line"/>
			<point x="333" y="467"/>
			<point x="272" y="507"/>
			<point x="199" y="507" type="curve" smooth="yes"/>
			<point x="152" y="507"/>
			<point x="95" y="491"/>
			<point x="47" y="460" type="curve"/>
			<point x="65" y="428" type="line"/>
			<point x="109" y="456"/>
			<point x="157" y="472"/>
			<point x="198" y="472" type="curve" smooth="yes"/>
			<point x="259" y="472"/>
			<point x="303" y="438"/>
			<point x="303" y="361" type="curve" smooth="yes"/>
			<point x="303" y="156" type="line" smooth="yes"/>
			<point x="303" y="67"/>
			<point x="224" y="28"/>
			<point x="177" y="28" type="curve" smooth="yes"/>
			<point x="108" y="28"/>
			<point x="69" y="66"/>
			<point x="69" y="141" type="curve" smooth="yes"/>
			<point x="69" y="199"/>
			<point x="106" y="250"/>
			<point x="229" y="250" type="curve" smooth="yes"/>
			<point x="262" y="250"/>
			<point x="287" y="248"/>
			<point x="316" y="243" type="curve"/>
			<point x="316" y="276" type="line"/>
			<point x="289" y="281"/>
			<point x="264" y="283"/>
			<point x="231" y="283" type="curve" smooth="yes"/>
			<point x="101" y="283"/>
			<point x="26" y="222"/>
			<point x="26" y="141" type="curve" smooth="yes"/>
			<point x="26" y="45"/>
			<point x="83" y="-7"/>
			<point x="170" y="-7" type="curve" smooth="yes"/>
		</contour>
	</outline>
	<anchor name="top" x="330" y="500"/>
</glyph>
<glyph name="icircumflex" format="2">
	<advance width="210"/>
	<unicode hex="00EE"/>
	<outline>
		<contour>
			<point x="110" y="709" type="line"/>
			<point x="-6" y="598" type="line"/>
			<point x="18" y="576" type="line"/>
			<point x="111" y="658" type="line"/>
			<point x="103" y="658" type="line"/>
			<point x="196" y="575" type="line"/>
			<point x="220" y="601" type="line"/>
		</contour>
		<component base="dotlessi"/>
	</outline>
</glyph>
<glyph name="eth" format="1">
  <advance width="479"/>
  <unicode hex="00F0"/>
  <outline>
    <contour>
      <point x="366" y="-7"/>
      <point x="440" y="91"/>
      <point x="440" y="318" type="curve" smooth="yes"/>
      <point x="440" y="572"/>
      <point x="337" y="728"/>
      <point x="159" y="728" type="curve" smooth="yes"/>
      <point x="134" y="728"/>
      <point x="103" y="724"/>
      <point x="78" y="717" type="curve"/>
      <point x="88" y="683" type="line"/>
      <point x="109" y="689"/>
      <point x="137" y="692"/>
      <point x="159" y="692" type="curve" smooth="yes"/>
      <point x="286" y="692"/>
      <point x="386" y="589"/>
      <point x="396" y="371" type="curve"/>
      <point x="402" y="371" type="line"/>
      <point x="375" y="442"/>
      <point x="304" y="477"/>
      <point x="246" y="477" type="curve" smooth="yes"/>
      <point x="119" y="477"/>
      <point x="40" y="371"/>
      <point x="40" y="235" type="curve" smooth="yes"/>
      <point x="40" y="93"/>
      <point x="111" y="-7"/>
      <point x="239" y="-7" type="curve" smooth="yes"/>
    </contour>
    <contour>
      <point x="136" y="30"/>
      <point x="84" y="121"/>
      <point x="84" y="234" type="curve" smooth="yes"/>
      <point x="84" y="345"/>
      <point x="140" y="440"/>
      <point x="242" y="440" type="curve" smooth="yes"/>
      <point x="346" y="440"/>
      <point x="396" y="348"/>
      <point x="396" y="242" type="curve" smooth="yes"/>
      <point x="396" y="125"/>
      <point x="343" y="30"/>
      <point x="239" y="30" type="curve" smooth="yes"/>
    </contour>
    <contour>
      <point x="391" y="729" type="line"/>
      <point x="372" y="755" type="line"/>
      <point x="157" y="604" type="line"/>
      <point x="175" y="576" type="line"/>
    </contour>
  </outline>
</glyph>
<glyph name="divide" format="2">
	<advance width="502"/>
	<unicode hex="00F7"/>
	<outline>
		<contour>
			<point x="462" y="239" type="line"/>
			<point x="462" y="276" type="line"/>
			<point x="40" y="276" type="line"/>
			<point x="40" y="239" type="line"/>
		</contour>
		<contour>
			<point x="273" y="68"/>
			<point x="286" y="84"/>
			<point x="286" y="107" type="curve" smooth="yes"/>
			<point x="286" y="129"/>
			<point x="273" y="145"/>
			<point x="251" y="145" type="curve" smooth="yes"/>
			<point x="229" y="145"/>
			<point x="216" y="129"/>
			<point x="216" y="107" type="curve" smooth="yes"/>
			<point x="216" y="84"/>
			<point x="229" y="68"/>
			<point x="251" y="68" type="curve" smooth="yes"/>
		</contour>
		<contour>
			<point x="273" y="366"/>
			<point x="286" y="382"/>
			<point x="286" y="405" type="curve" smooth="yes"/>
			<point x="286" y="427"/>
			<point x="273" y="443"/>
			<point x="251" y="443" type="curve" smooth="yes"/>
			<point x="229" y="443"/>
			<point x="216" y="427"/>
			<point x="216" y="405" type="curve" smooth="yes"/>
			<point x="216" y="382"/>
			<point x="229" y="366"/>
			<point x="251" y="366" type="curve" smooth="yes"/>
		</contour>
	</outline>
</glyph>
<glyph name="oslash" format="1">
  <advance width="479"/>
  <unicode hex="00F8"/>
  <outline>
    <contour>
      <point x="339" y="583" type="line"/>
      <point x="110" y="-58" type="line"/>
      <point x="144" y="-69" type="line"/>
      <point x="372" y="572" type="line"/>
    </contour>
    <component base="o"/>
  </outline>
</glyph>
<glyph name="aogonek" format="2">
	<advance width="426"/>
	<unicode hex="0105"/>
	<outline>
		<contour>
			<point x="387" y="-188"/>
			<point x="403" y="-186"/>
			<point x="417" y="-183" type="curve"/>
			<point x="415" y="-153" type="line"/>
			<point x="404" y="-156"/>
			<point x="392" y="-157"/>
			<point x="383" y="-157" type="curve" smooth="yes"/>
			<point x="334" y="-157"/>
			<point x="310" y="-129"/>
			<point x="310" y="-98" type="curve" smooth="yes"/>
			<point x="310" y="-65"/>
			<point x="338" y="-28"/>
			<point x="412" y="-5" type="curve"/>
			<point x="379" y="5" type="line"/>
			<point x="307" y="-19"/>
			<point x="272" y="-66"/>
			<point x="272" y="-107" type="curve" smooth="yes"/>
			<point x="272" y="-151"/>
			<point x="308" y="-188"/>
			<point x="374" y="-188" type="curve" smooth="yes"/>
		</contour>
		<component base="a"/>
	</outline>
</glyph>
<glyph name="dcroat" format="2">
	<advance width="478"/>
	<unicode hex="0111"/>
	<outline>
		<contour>
			<point x="190" y="618" type="line"/>
			<point x="190" y="583" type="line"/>
			<point x="465" y="583" type="line"/>
			<point x="465" y="618" type="line"/>
		</contour>
		<component base="d"/>
	</outline>
</glyph>
<glyph name="eogonek" format="2">
	<advance width="433"/>
	<unicode hex="0119"/>
	<outline>
		<contour>
			<point x="356" y="-193"/>
			<point x="372" y="-191"/>
			<point x="386" y="-188" type="curve"/>
			<point x="384" y="-158" type="line"/>
			<point x="373" y="-161"/>
			<point x="361" y="-162"/>
			<point x="352" y="-162" type="curve" smooth="yes"/>
			<point x="306" y="-162"/>
			<point x="283" y="-136"/>
			<point x="283" y="-102" type="curve" smooth="yes"/>
			<point x="283" y="-59"/>
			<point x="321" y="-2"/>
			<point x="389" y="29" type="curve"/>
			<point x="330" y="15" type="line"/>
			<point x="273" y="-16"/>
			<point x="245" y="-66"/>
			<point x="245" y="-109" type="curve" smooth="yes"/>
			<point x="245" y="-155"/>
			<point x="277" y="-193"/>
			<point x="343" y="-193" type="curve" smooth="yes"/>
		</contour>
		<component base="e"/>
	</outline>
</glyph>
<glyph name="Imacron" format="2">
	<advance width="209"/>
	<unicode hex="012A"/>
	<outline>
		<contour>
			<point x="1" y="807" type="line"/>
			<point x="1" y="772" type="line"/>
			<point x="208" y="772" type="line"/>
			<point x="208" y="807" type="line"/>
		</contour>
		<component base="I"/>
	</outline>
</glyph>
<glyph name="imacron" format="2">
	<advance width="210"/>
	<unicode hex="012B"/>
	<outline>
		<contour>
			<point x="1" y="662" type="line"/>
			<point x="1" y="627" type="line"/>
			<point x="209" y="627" type="line"/>
			<point x="209" y="662" type="line"/>
		</contour>
		<component base="dotlessi"/>
	</outline>
</glyph>
<glyph name="dotlessi" format="2">
	<advance width="210"/>
	<unicode hex="0131"/>
	<outline>
		<contour>
			<point x="124" y="0" type="line"/>
			<point x="124" y="500" type="line"/>
			<point x="85" y="500" type="line"/>
			<point x="85" y="0" type="line"/>
		</contour>
	</outline>
	<anchor name="ogonek" x="124" y="5"/>
	<anchor name="top" x="105" y="500"/>
</glyph>
<glyph name="Lslash" format="1">
  <advance width="413"/>
  <unicode hex="0141"/>
  <outline>
    <contour>
      <point x="261" y="410" type="line"/>
      <point x="-18" y="293" type="line"/>
      <point x="-7" y="263" type="line"/>
      <point x="273" y="380" type="line"/>
    </contour>
    <component base="L"/>
  </outline>
</glyph>
<glyph name="lslash" format="1">
  <advance width="230"/>
  <unicode hex="0142"/>
  <outline>
    <contour>
      <point x="-6" y="263" type="line"/>
      <point x="232" y="363" type="line"/>
      <point x="220" y="393" type="line"/>
      <point x="-18" y="293" type="line"/>
    </contour>
    <component base="l"/>
  </outline>
</glyph>
<glyph name="oe" format="1">
  <advance width="788"/>
  <unicode hex="0153"/>
  <outline>
    <contour>
      <point x="334" y="-7"/>
      <point x="395" y="53"/>
      <point x="421" y="144" type="curve"/>
      <point x="412" y="144" type="line"/>
      <point x="439" y="46"/>
      <point x="507" y="-7"/>
      <point x="601" y="-7" type="curve" smooth="yes"/>
      <point x="645" y="-7"/>
      <point x="693" y="5"/>
      <point x="744" y="29" type="curve"/>
      <point x="731" y="60" type="line"/>
      <point x="687" y="39"/>
      <point x="648" y="29"/>
      <point x="608" y="29" type="curve" smooth="yes"/>
      <point x="506" y="29"/>
      <point x="439" y="106"/>
      <point x="439" y="249" type="curve" smooth="yes"/>
      <point x="439" y="382"/>
      <point x="490" y="472"/>
      <point x="583" y="472" type="curve" smooth="yes"/>
      <point x="685" y="472"/>
      <point x="714" y="374"/>
      <point x="713" y="287" type="curve"/>
      <point x="419" y="286" type="line"/>
      <point x="419" y="251" type="line"/>
      <point x="755" y="251" type="line"/>
      <point x="755" y="271" type="line" smooth="yes"/>
      <point x="755" y="408"/>
      <point x="708" y="507"/>
      <point x="583" y="507" type="curve" smooth="yes"/>
      <point x="495" y="507"/>
      <point x="436" y="448"/>
      <point x="412" y="354" type="curve"/>
      <point x="423" y="354" type="line"/>
      <point x="400" y="446"/>
      <point x="342" y="507"/>
      <point x="243" y="507" type="curve" smooth="yes"/>
      <point x="116" y="507"/>
      <point x="40" y="396"/>
      <point x="40" y="249" type="curve" smooth="yes"/>
      <point x="40" y="100"/>
      <point x="102" y="-7"/>
      <point x="238" y="-7" type="curve" smooth="yes"/>
    </contour>
    <contour>
      <point x="136" y="28"/>
      <point x="83" y="121"/>
      <point x="83" y="249" type="curve" smooth="yes"/>
      <point x="83" y="375"/>
      <point x="140" y="472"/>
      <point x="242" y="472" type="curve" smooth="yes"/>
      <point x="344" y="472"/>
      <point x="396" y="377"/>
      <point x="396" y="249" type="curve" smooth="yes"/>
      <point x="396" y="123"/>
      <point x="343" y="28"/>
      <point x="239" y="28" type="curve" smooth="yes"/>
    </contour>
    <contour>
      <point x="410" y="500" type="move" name="top"/>
    </contour>
  </outline>
</glyph>
<glyph name="uni0162" format="2">
	<advance width="408"/>
	<unicode hex="0162"/>
	<outline>
		<contour>
			<point x="152" y="-187"/>
			<point x="164" y="-188"/>
			<point x="176" y="-188" type="curve" smooth="yes"/>
			<point x="248" y="-188"/>
			<point x="285" y="-143"/>
			<point x="285" y="-96" type="curve" smooth="yes"/>
			<point x="285" y="-58"/>
			<point x="260" y="-23"/>
			<point x="224" y="0" type="curve"/>
			<point x="182" y="0" type="line"/>
			<point x="235" y="-32"/>
			<point x="252" y="-60"/>
			<point x="252" y="-92" type="curve" smooth="yes"/>
			<point x="252" y="-125"/>
			<point x="223" y="-154"/>
			<point x="170" y="-154" type="curve" smooth="yes"/>
			<point x="160" y="-154"/>
			<point x="151" y="-153"/>
			<point x="140" y="-151" type="curve"/>
			<point x="138" y="-184" type="line"/>
		</contour>
		<component base="T"/>
	</outline>
</glyph>
<glyph name="uogonek" format="2">
	<advance width="502"/>
	<unicode hex="0173"/>
	<outline>
		<contour>
			<point x="457" y="-188"/>
			<point x="473" y="-186"/>
			<point x="487" y="-183" type="curve"/>
			<point x="485" y="-153" type="line"/>
			<point x="474" y="-156"/>
			<point x="462" y="-157"/>
			<point x="453" y="-157" type="curve" smooth="yes"/>
			<point x="404" y="-157"/>
			<point x="380" y="-129"/>
			<point x="380" y="-98" type="curve" smooth="yes"/>
			<point x="380" y="-65"/>
			<point x="408" y="-28"/>
			<point x="482" y="-5" type="curve"/>
			<point x="480" y="26" type="line"/>
			<point x="474" y="25"/>
			<point x="469" y="25"/>
			<point x="464" y="25" type="curve" smooth="yes"/>
			<point x="423" y="25"/>
			<point x="413" y="50"/>
			<point x="413" y="103" type="curve"/>
			<point x="413" y="500" type="line"/>
			<point x="373" y="500" type="line"/>
			<point x="373" y="206" type="line" smooth="yes"/>
			<point x="373" y="89"/>
			<point x="307" y="25"/>
			<point x="235" y="25" type="curve" smooth="yes"/>
			<point x="169" y="25"/>
			<point x="125" y="72"/>
			<point x="125" y="159" type="curve" smooth="yes"/>
			<point x="125" y="500" type="line"/>
			<point x="85" y="500" type="line"/>
			<point x="85" y="156" type="line" smooth="yes"/>
			<point x="85" y="52"/>
			<point x="138" y="-7"/>
			<point x="233" y="-7" type="curve" smooth="yes"/>
			<point x="298" y="-7"/>
			<point x="354" y="31"/>
			<point x="382" y="107" type="curve"/>
			<point x="373" y="107" type="line"/>
			<point x="373" y="38"/>
			<point x="387" y="2"/>
			<point x="436" y="-6" type="curve"/>
			<point x="436" y="-1" type="line"/>
			<point x="374" y="-26"/>
			<point x="342" y="-69"/>
			<point x="342" y="-107" type="curve" smooth="yes"/>
			<point x="342" y="-151"/>
			<point x="378" y="-188"/>
			<point x="444" y="-188" type="curve" smooth="yes"/>
		</contour>
	</outline>
	<anchor name="top" x="253" y="500"/>
</glyph>
<glyph name="florin" format="1">
  <advance width="422"/>
  <unicode hex="0192"/>
  <outline>
    <contour>
      <point x="81" y="-212"/>
      <point x="132" y="-161"/>
      <point x="144" y="-78" type="curve" smooth="yes"/>
      <point x="235" y="586" type="line" smooth="yes"/>
      <point x="245" y="658"/>
      <point x="277" y="697"/>
      <point x="332" y="697" type="curve" smooth="yes"/>
      <point x="351" y="697"/>
      <point x="373" y="692"/>
      <point x="398" y="682" type="curve"/>
      <point x="412" y="712" type="line"/>
      <point x="385" y="726"/>
      <point x="358" y="732"/>
      <point x="333" y="732" type="curve" smooth="yes"/>
      <point x="264" y="732"/>
      <point x="209" y="683"/>
      <point x="197" y="598" type="curve" smooth="yes"/>
      <point x="106" y="-66" type="line" smooth="yes"/>
      <point x="96" y="-135"/>
      <point x="67" y="-177"/>
      <point x="21" y="-177" type="curve" smooth="yes"/>
      <point x="4" y="-177"/>
      <point x="-14" y="-172"/>
      <point x="-34" y="-161" type="curve"/>
      <point x="-50" y="-191" type="line"/>
      <point x="-26" y="-205"/>
      <point x="-2" y="-212"/>
      <point x="20" y="-212" type="curve" smooth="yes"/>
    </contour>
    <contour>
      <point x="347" y="375" type="line"/>
      <point x="347" y="410" type="line"/>
      <point x="59" y="410" type="line"/>
      <point x="59" y="375" type="line"/>
    </contour>
  </outline>
</glyph>
<glyph name="circumflex" format="1">
  <advance width="445"/>
  <unicode hex="02C6"/>
  <outline>
    <contour>
      <point x="224" y="709" type="line"/>
      <point x="100" y="602" type="line"/>
      <point x="121" y="576" type="line"/>
      <point x="225" y="658" type="line"/>
      <point x="217" y="658" type="line"/>
      <point x="323" y="575" type="line"/>
      <point x="345" y="604" type="line"/>
    </contour>
    <contour>
      <point x="219" y="500" type="move" name="_top"/>
    </contour>
  </outline>
</glyph>
<glyph name="caron" format="2">
	<advance width="445"/>
	<unicode hex="02C7"/>
	<outline>
		<contour>
			<point x="221" y="575" type="line"/>
			<point x="345" y="682" type="line"/>
			<point x="324" y="708" type="line"/>
			<point x="220" y="626" type="line"/>
			<point x="228" y="626" type="line"/>
			<point x="122" y="709" type="line"/>
			<point x="100" y="680" type="line"/>
		</contour>
	</outline>
	<anchor name="_top" x="223" y="500"/>
</glyph>
<glyph name="breve" format="2">
	<advance width="377"/>
	<unicode hex="02D8"/>
	<outline>
		<contour>
			<point x="79" y="696" type="line"/>
			<point x="80" y="628"/>
			<point x="132" y="594"/>
			<point x="186" y="594" type="curve" smooth="yes"/>
			<point x="239" y="594"/>
			<point x="293" y="628"/>
			<point x="297" y="696" type="curve"/>
			<point x="265" y="698" type="line"/>
			<point x="259" y="651"/>
			<point x="223" y="628"/>
			<point x="188" y="628" type="curve" smooth="yes"/>
			<point x="152" y="628"/>
			<point x="116" y="652"/>
			<point x="112" y="700" type="curve"/>
		</contour>
	</outline>
	<anchor name="_top" x="187" y="500"/>
</glyph>
<glyph name="dotaccent" format="2">
	<advance width="246"/>
	<unicode hex="02D9"/>
	<outline>
		<contour>
			<point x="144" y="607"/>
			<point x="156" y="624"/>
			<point x="156" y="645" type="curve" smooth="yes"/>
			<point x="156" y="665"/>
			<point x="144" y="682"/>
			<point x="123" y="682" type="curve" smooth="yes"/>
			<point x="102" y="682"/>
			<point x="90" y="665"/>
			<point x="90" y="645" type="curve" smooth="yes"/>
			<point x="90" y="624"/>
			<point x="102" y="607"/>
			<point x="123" y="607" type="curve" smooth="yes"/>
		</contour>
	</outline>
	<anchor name="_top" x="123" y="500"/>
</glyph>
<glyph name="ring" format="1">
  <advance width="384"/>
  <unicode hex="02DA"/>
  <outline>
    <contour>
      <point x="237" y="555"/>
      <point x="284" y="587"/>
      <point x="284" y="650" type="curve" smooth="yes"/>
      <point x="284" y="714"/>
      <point x="239" y="745"/>
      <point x="193" y="745" type="curve" smooth="yes"/>
      <point x="146" y="745"/>
      <point x="100" y="713"/>
      <point x="100" y="649" type="curve" smooth="yes"/>
      <point x="100" y="585"/>
      <point x="144" y="555"/>
      <point x="191" y="555" type="curve" smooth="yes"/>
    </contour>
    <contour>
      <point x="163" y="583"/>
      <point x="133" y="606"/>
      <point x="133" y="649" type="curve" smooth="yes"/>
      <point x="133" y="694"/>
      <point x="162" y="716"/>
      <point x="191" y="716" type="curve" smooth="yes"/>
      <point x="221" y="716"/>
      <point x="251" y="693"/>
      <point x="251" y="649" type="curve" smooth="yes"/>
      <point x="251" y="605"/>
      <point x="222" y="583"/>
      <point x="192" y="583" type="curve" smooth="yes"/>
    </contour>
    <contour>
      <point x="188" y="500" type="move" name="_top"/>
    </contour>
  </outline>
</glyph>
<glyph name="ogonek" format="1">
  <advance width="279"/>
  <unicode hex="02DB"/>
  <outline>
    <contour>
      <point x="181" y="-193"/>
      <point x="197" y="-191"/>
      <point x="211" y="-188" type="curve"/>
      <point x="209" y="-158" type="line"/>
      <point x="198" y="-161"/>
      <point x="186" y="-162"/>
      <point x="177" y="-162" type="curve" smooth="yes"/>
      <point x="132" y="-162"/>
      <point x="108" y="-135"/>
      <point x="108" y="-103" type="curve" smooth="yes"/>
      <point x="108" y="-70"/>
      <point x="134" y="-31"/>
      <point x="194" y="0" type="curve"/>
      <point x="156" y="6" type="line"/>
      <point x="96" y="-29"/>
      <point x="70" y="-69"/>
      <point x="70" y="-109" type="curve" smooth="yes"/>
      <point x="70" y="-165"/>
      <point x="114" y="-193"/>
      <point x="168" y="-193" type="curve" smooth="yes"/>
    </contour>
    <contour>
      <point x="194" y="5" type="move" name="_ogonek"/>
    </contour>
  </outline>
</glyph>
<glyph name="tilde" format="1">
  <advance width="355"/>
  <unicode hex="02DC"/>
  <outline>
    <contour>
      <point x="274" y="653"/>
      <point x="257" y="644"/>
      <point x="237" y="644" type="curve" smooth="yes"/>
      <point x="197" y="645"/>
      <point x="175" y="679"/>
      <point x="127" y="680" type="curve" smooth="yes"/>
      <point x="97" y="680"/>
      <point x="70" y="667"/>
      <point x="44" y="641" type="curve"/>
      <point x="65" y="620" type="line"/>
      <point x="84" y="637"/>
      <point x="103" y="644"/>
      <point x="124" y="644" type="curve" smooth="yes"/>
      <point x="166" y="643"/>
      <point x="187" y="608"/>
      <point x="238" y="608" type="curve" smooth="yes"/>
      <point x="265" y="608"/>
      <point x="289" y="622"/>
      <point x="311" y="648" type="curve"/>
      <point x="290" y="670" type="line"/>
    </contour>
    <contour>
      <point x="176" y="500" type="move" name="_top"/>
    </contour>
  </outline>
</glyph>
<glyph name="hungarumlaut" format="2">
	<advance width="454"/>
	<unicode hex="02DD"/>
	<outline>
		<contour>
			<point x="240" y="688" type="line"/>
			<point x="207" y="722" type="line"/>
			<point x="79" y="606" type="line"/>
			<point x="102" y="580" type="line"/>
		</contour>
		<contour>
			<point x="404" y="688" type="line"/>
			<point x="371" y="722" type="line"/>
			<point x="243" y="606" type="line"/>
			<point x="266" y="580" type="line"/>
		</contour>
	</outline>
	<anchor name="_top" x="193" y="500"/>
</glyph>
<glyph name="pi" format="2">
	<advance width="521"/>
	<unicode hex="03C0"/>
	<outline>
		<contour>
			<point x="143" y="500" type="line"/>
			<point x="105" y="500" type="line"/>
			<point x="105" y="0" type="line"/>
			<point x="145" y="0" type="line"/>
		</contour>
		<contour>
			<point x="480" y="465" type="line"/>
			<point x="480" y="500" type="line"/>
			<point x="40" y="500" type="line"/>
			<point x="40" y="465" type="line"/>
		</contour>
		<contour>
			<point x="375" y="25"/>
			<point x="408" y="-6"/>
			<point x="453" y="-6" type="curve" smooth="yes"/>
			<point x="470" y="-6"/>
			<point x="487" y="-2"/>
			<point x="506" y="6" type="curve"/>
			<point x="495" y="36" type="line"/>
			<point x="481" y="30"/>
			<point x="469" y="27"/>
			<point x="458" y="27" type="curve" smooth="yes"/>
			<point x="430" y="27"/>
			<point x="415" y="48"/>
			<point x="415" y="87" type="curve" smooth="yes"/>
			<point x="415" y="500" type="line"/>
			<point x="375" y="500" type="line"/>
			<point x="375" y="82" type="line" smooth="yes"/>
		</contour>
	</outline>
</glyph>
<glyph name="tml_A" format="1">
  <advance width="796"/>
  <unicode hex="0B85"/>
  <note>
    tml_A
  </note>
  <outline>
    <contour>
      <point x="50" y="-49"/>
      <point x="133" y="-134"/>
      <point x="297" y="-134" type="curve" smooth="yes"/>
      <point x="470" y="-134"/>
      <point x="573" y="-1"/>
      <point x="579" y="181" type="curve"/>
      <point x="690" y="181" type="line"/>
      <point x="690" y="-119" type="line"/>
      <point x="726" y="-119" type="line"/>
      <point x="726" y="521" type="line"/>
      <point x="690" y="521" type="line"/>
      <point x="690" y="215" type="line"/>
      <point x="579" y="215" type="line"/>
      <point x="573" y="366"/>
      <point x="503" y="537"/>
      <point x="348" y="536" type="curve" smooth="yes"/>
      <point x="281" y="536"/>
      <point x="227" y="491"/>
      <point x="227" y="408" type="curve" smooth="yes"/>
      <point x="227" y="340"/>
      <point x="267" y="288"/>
      <point x="336" y="288" type="curve" smooth="yes"/>
      <point x="395" y="288"/>
      <point x="438" y="328"/>
      <point x="438" y="409" type="curve" smooth="yes"/>
      <point x="438" y="431"/>
      <point x="436" y="456"/>
      <point x="426" y="478" type="curve"/>
      <point x="505" y="432"/>
      <point x="538" y="317"/>
      <point x="542" y="215" type="curve"/>
      <point x="217" y="215" type="line" smooth="yes"/>
      <point x="118" y="215"/>
      <point x="50" y="167"/>
      <point x="50" y="64" type="curve" smooth="yes"/>
    </contour>
    <contour>
      <point x="340" y="499"/>
      <point x="343" y="499"/>
      <point x="346" y="499" type="curve" smooth="yes"/>
      <point x="347" y="499"/>
      <point x="349" y="499"/>
      <point x="350" y="499" type="curve"/>
      <point x="390" y="495"/>
      <point x="402" y="438"/>
      <point x="402" y="409" type="curve" smooth="yes"/>
      <point x="401" y="360"/>
      <point x="386" y="322"/>
      <point x="337" y="322" type="curve" smooth="yes"/>
      <point x="287" y="322"/>
      <point x="263" y="362"/>
      <point x="263" y="408" type="curve" smooth="yes"/>
      <point x="263" y="465"/>
      <point x="297" y="493"/>
      <point x="334" y="498" type="curve"/>
      <point x="334" y="498" type="line"/>
      <point x="335" y="498"/>
      <point x="336" y="498"/>
      <point x="337" y="499" type="curve"/>
    </contour>
    <contour>
      <point x="542" y="181" type="line"/>
      <point x="535" y="-16"/>
      <point x="418" y="-100"/>
      <point x="298" y="-100" type="curve" smooth="yes"/>
      <point x="203" y="-100"/>
      <point x="86" y="-63"/>
      <point x="86" y="64" type="curve" smooth="yes"/>
      <point x="86" y="145"/>
      <point x="135" y="181"/>
      <point x="217" y="181" type="curve" smooth="yes"/>
    </contour>
  </outline>
</glyph>
<glyph name="tml_Aa" format="1">
  <advance width="1024"/>
  <unicode hex="0B86"/>
  <note>
    tml_Aa
  </note>
  <outline>
    <contour>
      <point x="553" y="-130" type="line"/>
      <point x="572" y="-344"/>
      <point x="703" y="-370"/>
      <point x="808" y="-361" type="curve" smooth="yes"/>
      <point x="925" y="-350"/>
      <point x="994" y="-257"/>
      <point x="994" y="-110" type="curve" smooth="yes"/>
      <point x="994" y="5"/>
      <point x="956" y="122"/>
      <point x="836" y="122" type="curve" smooth="yes"/>
      <point x="746" y="122"/>
      <point x="688" y="62"/>
      <point x="690" y="-53" type="curve"/>
      <point x="726" y="-20" type="line"/>
      <point x="727" y="29"/>
      <point x="756" y="88"/>
      <point x="838" y="88" type="curve" smooth="yes"/>
      <point x="928" y="88"/>
      <point x="960" y="-5"/>
      <point x="960" y="-114" type="curve" smooth="yes"/>
      <point x="960" y="-219"/>
      <point x="912" y="-320"/>
      <point x="805" y="-329" type="curve" smooth="yes"/>
      <point x="675" y="-341"/>
      <point x="597" y="-277"/>
      <point x="585" y="-126" type="curve"/>
    </contour>
    <contour>
      <point x="49" y="-49"/>
      <point x="132" y="-134"/>
      <point x="296" y="-134" type="curve" smooth="yes"/>
      <point x="469" y="-134"/>
      <point x="572" y="-1"/>
      <point x="578" y="181" type="curve"/>
      <point x="689" y="181" type="line"/>
      <point x="689" y="-119" type="line"/>
      <point x="725" y="-119" type="line"/>
      <point x="725" y="521" type="line"/>
      <point x="689" y="521" type="line"/>
      <point x="689" y="215" type="line"/>
      <point x="578" y="215" type="line"/>
      <point x="572" y="366"/>
      <point x="502" y="537"/>
      <point x="347" y="536" type="curve" smooth="yes"/>
      <point x="280" y="536"/>
      <point x="226" y="491"/>
      <point x="226" y="408" type="curve" smooth="yes"/>
      <point x="226" y="340"/>
      <point x="266" y="288"/>
      <point x="335" y="288" type="curve" smooth="yes"/>
      <point x="394" y="288"/>
      <point x="437" y="328"/>
      <point x="437" y="409" type="curve" smooth="yes"/>
      <point x="437" y="431"/>
      <point x="435" y="456"/>
      <point x="425" y="478" type="curve"/>
      <point x="504" y="432"/>
      <point x="537" y="317"/>
      <point x="541" y="215" type="curve"/>
      <point x="216" y="215" type="line" smooth="yes"/>
      <point x="117" y="215"/>
      <point x="49" y="167"/>
      <point x="49" y="64" type="curve" smooth="yes"/>
    </contour>
    <contour>
      <point x="339" y="499"/>
      <point x="342" y="499"/>
      <point x="345" y="499" type="curve" smooth="yes"/>
      <point x="346" y="499"/>
      <point x="348" y="499"/>
      <point x="349" y="499" type="curve"/>
      <point x="389" y="495"/>
      <point x="401" y="438"/>
      <point x="401" y="409" type="curve" smooth="yes"/>
      <point x="400" y="360"/>
      <point x="385" y="322"/>
      <point x="336" y="322" type="curve" smooth="yes"/>
      <point x="286" y="322"/>
      <point x="262" y="362"/>
      <point x="262" y="408" type="curve" smooth="yes"/>
      <point x="262" y="465"/>
      <point x="296" y="493"/>
      <point x="333" y="498" type="curve"/>
      <point x="333" y="498" type="line"/>
      <point x="334" y="498"/>
      <point x="335" y="498"/>
      <point x="336" y="499" type="curve"/>
    </contour>
    <contour>
      <point x="541" y="181" type="line"/>
      <point x="534" y="-16"/>
      <point x="417" y="-100"/>
      <point x="297" y="-100" type="curve" smooth="yes"/>
      <point x="202" y="-100"/>
      <point x="85" y="-63"/>
      <point x="85" y="64" type="curve" smooth="yes"/>
      <point x="85" y="145"/>
      <point x="134" y="181"/>
      <point x="216" y="181" type="curve" smooth="yes"/>
    </contour>
  </outline>
</glyph>
<glyph name="tml_Ee" format="1">
  <advance width="659"/>
  <unicode hex="0B8F"/>
  <note>
    tml_Ee
  </note>
  <outline>
    <contour>
      <point x="183" y="-195" type="line"/>
      <point x="206" y="-219" type="line"/>
      <point x="445" y="0" type="line"/>
      <point x="446" y="510" type="line"/>
      <point x="556" y="510" type="line"/>
      <point x="556" y="545" type="line"/>
      <point x="292" y="545" type="line"/>
      <point x="283" y="545" type="line"/>
      <point x="283" y="545" type="line"/>
      <point x="116" y="541"/>
      <point x="40" y="416"/>
      <point x="40" y="248" type="curve" smooth="yes"/>
      <point x="40" y="95"/>
      <point x="85" y="-17"/>
      <point x="181" y="-17" type="curve" smooth="yes"/>
      <point x="266" y="-17"/>
      <point x="304" y="65"/>
      <point x="304" y="170" type="curve" smooth="yes"/>
      <point x="304" y="265"/>
      <point x="257" y="347"/>
      <point x="175" y="347" type="curve" smooth="yes"/>
      <point x="133" y="347"/>
      <point x="98" y="322"/>
      <point x="78" y="276" type="curve"/>
      <point x="85" y="414"/>
      <point x="150" y="510"/>
      <point x="291" y="510" type="curve" smooth="yes"/>
      <point x="410" y="510" type="line"/>
      <point x="409" y="15" type="line"/>
      <point x="409" y="15" type="line"/>
    </contour>
    <contour>
      <point x="83" y="157" type="line"/>
      <point x="74" y="236"/>
      <point x="109" y="312"/>
      <point x="175" y="312" type="curve" smooth="yes"/>
      <point x="242" y="312"/>
      <point x="268" y="235"/>
      <point x="268" y="170" type="curve" smooth="yes"/>
      <point x="268" y="93"/>
      <point x="245" y="18"/>
      <point x="181" y="18" type="curve" smooth="yes"/>
      <point x="126" y="18"/>
      <point x="95" y="73"/>
      <point x="83" y="157" type="curve"/>
    </contour>
  </outline>
</glyph>
<glyph name="tml_Nya" format="1">
  <advance width="774"/>
  <unicode hex="0B9E"/>
  <note>
    tml_Nya
  </note>
  <outline>
    <contour>
      <point x="31" y="-119"/>
      <point x="269" y="-171"/>
      <point x="422" y="-171" type="curve" smooth="yes"/>
      <point x="624" y="-171"/>
      <point x="742" y="-33"/>
      <point x="742" y="162" type="curve" smooth="yes"/>
      <point x="742" y="247"/>
      <point x="716" y="334"/>
      <point x="636" y="334" type="curve" smooth="yes"/>
      <point x="603" y="334"/>
      <point x="576" y="319"/>
      <point x="558" y="290" type="curve"/>
      <point x="558" y="510" type="line"/>
      <point x="668" y="510" type="line"/>
      <point x="668" y="545" type="line"/>
      <point x="404" y="545" type="line"/>
      <point x="395" y="545" type="line"/>
      <point x="395" y="545" type="line"/>
      <point x="228" y="541"/>
      <point x="152" y="416"/>
      <point x="152" y="248" type="curve" smooth="yes"/>
      <point x="152" y="95"/>
      <point x="197" y="-17"/>
      <point x="293" y="-17" type="curve" smooth="yes"/>
      <point x="378" y="-17"/>
      <point x="416" y="65"/>
      <point x="416" y="170" type="curve" smooth="yes"/>
      <point x="416" y="265"/>
      <point x="369" y="347"/>
      <point x="287" y="347" type="curve" smooth="yes"/>
      <point x="245" y="347"/>
      <point x="210" y="322"/>
      <point x="190" y="276" type="curve"/>
      <point x="197" y="414"/>
      <point x="262" y="510"/>
      <point x="403" y="510" type="curve" smooth="yes"/>
      <point x="522" y="510" type="line"/>
      <point x="521" y="0" type="line"/>
      <point x="557" y="0" type="line"/>
      <point x="557" y="177" type="line"/>
      <point x="559" y="200"/>
      <point x="563" y="222"/>
      <point x="570" y="242" type="curve" smooth="yes"/>
      <point x="581" y="276"/>
      <point x="602" y="300"/>
      <point x="638" y="300" type="curve" smooth="yes"/>
      <point x="691" y="300"/>
      <point x="708" y="235"/>
      <point x="708" y="158" type="curve" smooth="yes"/>
      <point x="708" y="15"/>
      <point x="618" y="-135"/>
      <point x="422" y="-135" type="curve" smooth="yes"/>
      <point x="215" y="-135"/>
      <point x="64" y="-36"/>
      <point x="64" y="244" type="curve" smooth="yes"/>
      <point x="64" y="333"/>
      <point x="86" y="421"/>
      <point x="142" y="517" type="curve"/>
      <point x="112" y="531" type="line"/>
      <point x="54" y="429"/>
      <point x="30" y="333"/>
      <point x="30" y="242" type="curve" smooth="yes"/>
    </contour>
    <contour>
      <point x="195" y="157" type="line"/>
      <point x="186" y="236"/>
      <point x="221" y="312"/>
      <point x="287" y="312" type="curve" smooth="yes"/>
      <point x="354" y="312"/>
      <point x="380" y="235"/>
      <point x="380" y="170" type="curve" smooth="yes"/>
      <point x="380" y="93"/>
      <point x="357" y="18"/>
      <point x="293" y="18" type="curve" smooth="yes"/>
      <point x="238" y="18"/>
      <point x="207" y="73"/>
      <point x="195" y="157" type="curve"/>
    </contour>
  </outline>
</glyph>
<glyph name="tml_Nnna" format="1">
  <advance width="835"/>
  <unicode hex="0BA9"/>
  <note>
    tml_Nnna
  </note>
  <outline>
    <contour>
      <point x="512" y="391"/>
      <point x="539" y="315"/>
      <point x="539" y="216" type="curve" smooth="yes"/>
      <point x="539" y="102"/>
      <point x="517" y="19"/>
      <point x="469" y="19" type="curve" smooth="yes"/>
      <point x="421" y="19"/>
      <point x="395" y="104"/>
      <point x="395" y="221" type="curve" smooth="yes"/>
      <point x="395" y="327"/>
      <point x="424" y="398"/>
      <point x="467" y="442" type="curve"/>
    </contour>
    <contour>
      <point x="669" y="511" type="line"/>
      <point x="669" y="1" type="line"/>
      <point x="705" y="1" type="line"/>
      <point x="705" y="511" type="line"/>
      <point x="805" y="511" type="line"/>
      <point x="805" y="545" type="line"/>
      <point x="660" y="545" type="line"/>
      <point x="657" y="545" type="line"/>
      <point x="657" y="545" type="line" smooth="yes"/>
      <point x="588" y="545"/>
      <point x="521" y="529"/>
      <point x="469" y="491" type="curve"/>
      <point x="423" y="530"/>
      <point x="365" y="550"/>
      <point x="303" y="550" type="curve" smooth="yes"/>
      <point x="292" y="550" type="line"/>
      <point x="291" y="550" type="line"/>
      <point x="291" y="550" type="line" smooth="yes"/>
      <point x="119" y="550"/>
      <point x="40" y="422"/>
      <point x="40" y="248" type="curve" smooth="yes"/>
      <point x="40" y="95"/>
      <point x="85" y="-17"/>
      <point x="181" y="-17" type="curve" smooth="yes"/>
      <point x="266" y="-17"/>
      <point x="304" y="65"/>
      <point x="304" y="170" type="curve" smooth="yes"/>
      <point x="304" y="265"/>
      <point x="257" y="347"/>
      <point x="175" y="347" type="curve" smooth="yes"/>
      <point x="133" y="347"/>
      <point x="98" y="322"/>
      <point x="78" y="276" type="curve"/>
      <point x="85" y="416"/>
      <point x="149" y="514"/>
      <point x="291" y="514" type="curve" smooth="yes"/>
      <point x="295" y="514"/>
      <point x="300" y="515"/>
      <point x="304" y="515" type="curve" smooth="yes"/>
      <point x="356" y="515"/>
      <point x="403" y="499"/>
      <point x="441" y="468" type="curve"/>
      <point x="390" y="417"/>
      <point x="358" y="338"/>
      <point x="358" y="221" type="curve" smooth="yes"/>
      <point x="358" y="83"/>
      <point x="397" y="-17"/>
      <point x="467" y="-17" type="curve" smooth="yes"/>
      <point x="538" y="-17"/>
      <point x="576" y="81"/>
      <point x="576" y="216" type="curve" smooth="yes"/>
      <point x="576" y="326"/>
      <point x="545" y="410"/>
      <point x="495" y="466" type="curve"/>
      <point x="542" y="499"/>
      <point x="601" y="511"/>
      <point x="660" y="511" type="curve" smooth="yes"/>
    </contour>
    <contour>
      <point x="83" y="157" type="line"/>
      <point x="74" y="236"/>
      <point x="109" y="312"/>
      <point x="175" y="312" type="curve" smooth="yes"/>
      <point x="242" y="312"/>
      <point x="268" y="235"/>
      <point x="268" y="170" type="curve" smooth="yes"/>
      <point x="268" y="93"/>
      <point x="245" y="18"/>
      <point x="181" y="18" type="curve" smooth="yes"/>
      <point x="126" y="18"/>
      <point x="95" y="73"/>
      <point x="83" y="157" type="curve"/>
    </contour>
  </outline>
</glyph>
<glyph name="tml_Ma" format="1">
  <advance width="572"/>
  <unicode hex="0BAE"/>
  <note>
    tml_Ma
  </note>
  <outline>
    <contour>
      <point x="59" y="0" type="line"/>
      <point x="378" y="0" type="line"/>
      <point x="382" y="0" type="line"/>
      <point x="382" y="0" type="line"/>
      <point x="464" y="3"/>
      <point x="503" y="82"/>
      <point x="502" y="251" type="curve" smooth="yes"/>
      <point x="501" y="413"/>
      <point x="451" y="562"/>
      <point x="335" y="561" type="curve" smooth="yes"/>
      <point x="272" y="561"/>
      <point x="234" y="521"/>
      <point x="234" y="434" type="curve" smooth="yes"/>
      <point x="236" y="35" type="line"/>
      <point x="94" y="35" type="line"/>
      <point x="94" y="545" type="line"/>
      <point x="59" y="545" type="line"/>
    </contour>
    <contour>
      <point x="271" y="35" type="line"/>
      <point x="269" y="424" type="line"/>
      <point x="269" y="493"/>
      <point x="293" y="525"/>
      <point x="336" y="525" type="curve" smooth="yes"/>
      <point x="428" y="525"/>
      <point x="465" y="390"/>
      <point x="465" y="251" type="curve" smooth="yes"/>
      <point x="465" y="125"/>
      <point x="444" y="36"/>
      <point x="377" y="35" type="curve" smooth="yes"/>
      <point x="375" y="35" type="line"/>
    </contour>
  </outline>
</glyph>
<glyph name="tml_Lla" format="1">
  <advance width="892"/>
  <unicode hex="0BB3"/>
  <note>
    tml_Lla
  </note>
  <outline>
    <contour>
      <point x="93" y="95"/>
      <point x="138" y="-17"/>
      <point x="234" y="-17" type="curve" smooth="yes"/>
      <point x="319" y="-17"/>
      <point x="357" y="65"/>
      <point x="357" y="170" type="curve" smooth="yes"/>
      <point x="357" y="265"/>
      <point x="310" y="347"/>
      <point x="228" y="347" type="curve" smooth="yes"/>
      <point x="186" y="347"/>
      <point x="150" y="322"/>
      <point x="130" y="276" type="curve"/>
      <point x="136" y="419"/>
      <point x="183" y="520"/>
      <point x="286" y="520" type="curve" smooth="yes"/>
      <point x="376" y="520"/>
      <point x="425" y="431"/>
      <point x="431" y="305" type="curve"/>
      <point x="430" y="0" type="line"/>
      <point x="466" y="0" type="line"/>
      <point x="467" y="511" type="line"/>
      <point x="676" y="511" type="line"/>
      <point x="675" y="0" type="line"/>
      <point x="711" y="0" type="line"/>
      <point x="712" y="511" type="line"/>
      <point x="832" y="511" type="line"/>
      <point x="832" y="545" type="line"/>
      <point x="431" y="545" type="line"/>
      <point x="431" y="452" type="line"/>
      <point x="403" y="516"/>
      <point x="356" y="555"/>
      <point x="287" y="555" type="curve" smooth="yes"/>
      <point x="154" y="555"/>
      <point x="93" y="426"/>
      <point x="93" y="248" type="curve" smooth="yes"/>
    </contour>
    <contour>
      <point x="136" y="157" type="line"/>
      <point x="127" y="236"/>
      <point x="162" y="312"/>
      <point x="228" y="312" type="curve" smooth="yes"/>
      <point x="295" y="312"/>
      <point x="321" y="235"/>
      <point x="321" y="170" type="curve" smooth="yes"/>
      <point x="321" y="93"/>
      <point x="298" y="18"/>
      <point x="234" y="18" type="curve" smooth="yes"/>
      <point x="179" y="18"/>
      <point x="148" y="73"/>
      <point x="136" y="157" type="curve"/>
    </contour>
  </outline>
</glyph>
<glyph name="tml_Va" format="1">
  <advance width="768"/>
  <unicode hex="0BB5"/>
  <note>
	tml_Va
  </note>
  <outline>
    <contour>
      <point x="54" y="87"/>
      <point x="115" y="-24"/>
      <point x="217" y="-24" type="curve" smooth="yes"/>
      <point x="312" y="-24"/>
      <point x="369" y="52"/>
      <point x="369" y="170" type="curve" smooth="yes"/>
      <point x="369" y="307"/>
      <point x="290" y="362"/>
      <point x="222" y="362" type="curve" smooth="yes"/>
      <point x="199" y="362"/>
      <point x="181" y="356"/>
      <point x="165" y="346" type="curve"/>
      <point x="184" y="418"/>
      <point x="228" y="467"/>
      <point x="297" y="467" type="curve" smooth="yes"/>
      <point x="374" y="467"/>
      <point x="424" y="383"/>
      <point x="424" y="256" type="curve" smooth="yes"/>
      <point x="424" y="167"/>
      <point x="410" y="118"/>
      <point x="394" y="79" type="curve"/>
      <point x="395" y="0" type="line"/>
      <point x="708" y="0" type="line"/>
      <point x="708" y="545" type="line"/>
      <point x="603" y="545" type="line"/>
      <point x="603" y="95" type="line"/>
      <point x="501" y="95" type="line"/>
      <point x="513" y="127"/>
      <point x="526" y="180"/>
      <point x="526" y="258" type="curve" smooth="yes"/>
      <point x="526" y="437"/>
      <point x="431" y="562"/>
      <point x="297" y="561" type="curve" smooth="yes"/>
      <point x="144" y="560"/>
      <point x="54" y="441"/>
      <point x="54" y="239" type="curve" smooth="yes"/>
    </contour>
    <contour>
      <point x="153" y="219"/>
      <point x="181" y="264"/>
      <point x="217" y="264" type="curve" smooth="yes"/>
      <point x="243" y="264"/>
      <point x="270" y="232"/>
      <point x="270" y="173" type="curve" smooth="yes"/>
      <point x="270" y="135"/>
      <point x="262" y="72"/>
      <point x="217" y="72" type="curve" smooth="yes"/>
      <point x="188" y="72"/>
      <point x="170" y="104"/>
      <point x="161" y="152" type="curve"/>
    </contour>
  </outline>
</glyph>
<glyph name="tml_Va" format="1">
  <advance width="672"/>
  <unicode hex="0BB5"/>
  <note>
    tml_Va
  </note>
  <outline>
    <contour>
      <point x="402" y="0" type="line"/>
      <point x="631" y="0" type="line"/>
      <point x="631" y="545" type="line"/>
      <point x="595" y="545" type="line"/>
      <point x="595" y="35" type="line"/>
      <point x="444" y="35" type="line"/>
      <point x="474" y="116"/>
      <point x="484" y="193"/>
      <point x="485" y="243" type="curve"/>
      <point x="485" y="243" type="line"/>
      <point x="485" y="251" type="line"/>
      <point x="485" y="260" type="line" smooth="yes"/>
      <point x="485" y="433"/>
      <point x="418" y="555"/>
      <point x="287" y="555" type="curve" smooth="yes"/>
      <point x="154" y="555"/>
      <point x="93" y="426"/>
      <point x="93" y="248" type="curve" smooth="yes"/>
      <point x="93" y="95"/>
      <point x="138" y="-17"/>
      <point x="234" y="-17" type="curve" smooth="yes"/>
      <point x="319" y="-17"/>
      <point x="357" y="65"/>
      <point x="357" y="170" type="curve" smooth="yes"/>
      <point x="357" y="265"/>
      <point x="310" y="347"/>
      <point x="228" y="347" type="curve" smooth="yes"/>
      <point x="186" y="347"/>
      <point x="150" y="322"/>
      <point x="130" y="276" type="curve"/>
      <point x="136" y="419"/>
      <point x="183" y="520"/>
      <point x="286" y="520" type="curve" smooth="yes"/>
      <point x="392" y="520"/>
      <point x="447" y="410"/>
      <point x="448" y="259" type="curve" smooth="yes"/>
      <point x="448" y="196"/>
      <point x="435" y="111"/>
      <point x="402" y="33" type="curve"/>
    </contour>
    <contour>
      <point x="136" y="157" type="line"/>
      <point x="127" y="236"/>
      <point x="162" y="312"/>
      <point x="228" y="312" type="curve" smooth="yes"/>
      <point x="295" y="312"/>
      <point x="321" y="235"/>
      <point x="321" y="170" type="curve" smooth="yes"/>
      <point x="321" y="93"/>
      <point x="298" y="18"/>
      <point x="234" y="18" type="curve" smooth="yes"/>
      <point x="179" y="18"/>
      <point x="148" y="73"/>
      <point x="136" y="157" type="curve"/>
    </contour>
  </outline>
</glyph>
<glyph name="tml_Ssa" format="1">
  <advance width="834"/>
  <unicode hex="0BB7"/>
  <note>
    tml_Ssa
  </note>
  <outline>
    <contour>
      <point x="468" y="290"/>
      <point x="545" y="232"/>
      <point x="608" y="226" type="curve"/>
      <point x="608" y="33" type="line"/>
      <point x="392" y="33" type="line"/>
      <point x="389" y="33" type="line"/>
      <point x="389" y="33" type="line"/>
      <point x="419" y="115"/>
      <point x="429" y="193"/>
      <point x="430" y="243" type="curve"/>
      <point x="430" y="243" type="line"/>
      <point x="430" y="251" type="line"/>
      <point x="430" y="260" type="line" smooth="yes"/>
      <point x="430" y="433"/>
      <point x="363" y="555"/>
      <point x="232" y="555" type="curve" smooth="yes"/>
      <point x="99" y="555"/>
      <point x="38" y="426"/>
      <point x="38" y="248" type="curve" smooth="yes"/>
      <point x="38" y="95"/>
      <point x="83" y="-17"/>
      <point x="179" y="-17" type="curve" smooth="yes"/>
      <point x="264" y="-17"/>
      <point x="302" y="65"/>
      <point x="302" y="170" type="curve" smooth="yes"/>
      <point x="302" y="265"/>
      <point x="255" y="347"/>
      <point x="173" y="347" type="curve" smooth="yes"/>
      <point x="131" y="347"/>
      <point x="96" y="324"/>
      <point x="76" y="280" type="curve"/>
      <point x="82" y="421"/>
      <point x="129" y="520"/>
      <point x="231" y="520" type="curve" smooth="yes"/>
      <point x="336" y="520"/>
      <point x="392" y="410"/>
      <point x="393" y="259" type="curve" smooth="yes"/>
      <point x="393" y="196"/>
      <point x="380" y="110"/>
      <point x="347" y="31" type="curve"/>
      <point x="347" y="0" type="line"/>
      <point x="347" y="-1" type="line"/>
      <point x="608" y="-1" type="line"/>
      <point x="608" y="-152" type="line"/>
      <point x="644" y="-152" type="line"/>
      <point x="644" y="-1" type="line"/>
      <point x="774" y="-1" type="line"/>
      <point x="774" y="455" type="line"/>
      <point x="738" y="455" type="line"/>
      <point x="738" y="405" type="line" smooth="yes"/>
      <point x="738" y="333"/>
      <point x="711" y="276"/>
      <point x="644" y="263" type="curve"/>
      <point x="644" y="430" type="line"/>
      <point x="644" y="434" type="line"/>
      <point x="644" y="434" type="line"/>
      <point x="643" y="486"/>
      <point x="630" y="556"/>
      <point x="557" y="556" type="curve" smooth="yes"/>
      <point x="492" y="556"/>
      <point x="468" y="482"/>
      <point x="468" y="421" type="curve" smooth="yes"/>
    </contour>
    <contour>
      <point x="644" y="33" type="line"/>
      <point x="644" y="228" type="line"/>
      <point x="688" y="235"/>
      <point x="718" y="259"/>
      <point x="738" y="292" type="curve"/>
      <point x="738" y="33" type="line"/>
    </contour>
    <contour>
      <point x="608" y="261" type="line"/>
      <point x="546" y="267"/>
      <point x="503" y="331"/>
      <point x="503" y="417" type="curve" smooth="yes"/>
      <point x="503" y="465"/>
      <point x="520" y="523"/>
      <point x="558" y="522" type="curve" smooth="yes"/>
      <point x="584" y="522"/>
      <point x="608" y="498"/>
      <point x="608" y="434" type="curve"/>
      <point x="608" y="434" type="line"/>
      <point x="608" y="430" type="line"/>
    </contour>
    <contour>
      <point x="81" y="157" type="line"/>
      <point x="72" y="236"/>
      <point x="107" y="313"/>
      <point x="173" y="313" type="curve" smooth="yes"/>
      <point x="240" y="313"/>
      <point x="266" y="235"/>
      <point x="266" y="170" type="curve" smooth="yes"/>
      <point x="266" y="92"/>
      <point x="243" y="16"/>
      <point x="179" y="16" type="curve" smooth="yes"/>
      <point x="124" y="16"/>
      <point x="93" y="72"/>
      <point x="81" y="157" type="curve"/>
    </contour>
  </outline>
</glyph>
<glyph name="tml_Virama" format="1">
  <advance width="0"/>
  <unicode hex="0BCD"/>
  <note>
    tml_Virama
  </note>
  <outline>
    <contour>
      <point x="-31" y="665"/>
      <point x="-17" y="651"/>
      <point x="0" y="651" type="curve" smooth="yes"/>
      <point x="17" y="651"/>
      <point x="31" y="665"/>
      <point x="31" y="682" type="curve" smooth="yes"/>
      <point x="31" y="699"/>
      <point x="17" y="713"/>
      <point x="0" y="713" type="curve" smooth="yes"/>
      <point x="-17" y="713"/>
      <point x="-31" y="699"/>
      <point x="-31" y="682" type="curve" smooth="yes"/>
    </contour>
  </outline>
</glyph>
<glyph name="tml_Day" format="1">
  <advance width="541"/>
  <unicode hex="0BF3"/>
  <note>
    tml_Day
  </note>
  <outline>
    <contour>
      <point x="350" y="0" type="line"/>
      <point x="521" y="0" type="line"/>
      <point x="521" y="35" type="line"/>
      <point x="392" y="35" type="line"/>
      <point x="422" y="116"/>
      <point x="432" y="193"/>
      <point x="433" y="243" type="curve"/>
      <point x="433" y="243" type="line"/>
      <point x="433" y="251" type="line"/>
      <point x="433" y="260" type="line" smooth="yes"/>
      <point x="433" y="433"/>
      <point x="366" y="555"/>
      <point x="235" y="555" type="curve" smooth="yes"/>
      <point x="102" y="555"/>
      <point x="41" y="426"/>
      <point x="41" y="248" type="curve" smooth="yes"/>
      <point x="41" y="95"/>
      <point x="86" y="-17"/>
      <point x="182" y="-17" type="curve" smooth="yes"/>
      <point x="267" y="-17"/>
      <point x="305" y="65"/>
      <point x="305" y="170" type="curve" smooth="yes"/>
      <point x="305" y="265"/>
      <point x="258" y="347"/>
      <point x="176" y="347" type="curve" smooth="yes"/>
      <point x="134" y="347"/>
      <point x="98" y="322"/>
      <point x="78" y="276" type="curve"/>
      <point x="84" y="419"/>
      <point x="131" y="520"/>
      <point x="234" y="520" type="curve" smooth="yes"/>
      <point x="340" y="520"/>
      <point x="395" y="410"/>
      <point x="396" y="259" type="curve" smooth="yes"/>
      <point x="396" y="196"/>
      <point x="383" y="111"/>
      <point x="350" y="33" type="curve"/>
    </contour>
    <contour>
      <point x="84" y="157" type="line"/>
      <point x="75" y="236"/>
      <point x="110" y="312"/>
      <point x="176" y="312" type="curve" smooth="yes"/>
      <point x="243" y="312"/>
      <point x="269" y="235"/>
      <point x="269" y="170" type="curve" smooth="yes"/>
      <point x="269" y="93"/>
      <point x="246" y="18"/>
      <point x="182" y="18" type="curve" smooth="yes"/>
      <point x="127" y="18"/>
      <point x="96" y="73"/>
      <point x="84" y="157" type="curve"/>
    </contour>
  </outline>
</glyph>
<glyph name="si_A" format="1">
  <advance width="548"/>
  <unicode hex="0D85"/>
  <note>
    si_A
  </note>
  <outline>
    <contour>
      <point x="345" y="34" type="line"/>
      <point x="333" y="32"/>
      <point x="314" y="29"/>
      <point x="287" y="29" type="curve" smooth="yes"/>
      <point x="118" y="29"/>
      <point x="74" y="166"/>
      <point x="74" y="228" type="curve" smooth="yes"/>
      <point x="74" y="332"/>
      <point x="141" y="394"/>
      <point x="233" y="394" type="curve" smooth="yes"/>
      <point x="295" y="394"/>
      <point x="331" y="374"/>
      <point x="347" y="363" type="curve"/>
    </contour>
    <contour>
      <point x="379" y="331" type="line" smooth="yes"/>
      <point x="380" y="457"/>
      <point x="377" y="568"/>
      <point x="466" y="569" type="curve"/>
      <point x="466" y="569"/>
      <point x="452" y="555"/>
      <point x="452" y="519" type="curve" smooth="yes"/>
      <point x="452" y="493"/>
      <point x="466" y="477"/>
      <point x="466" y="453" type="curve" smooth="yes"/>
      <point x="466" y="428"/>
      <point x="448" y="399"/>
      <point x="421" y="372" type="curve"/>
      <point x="441" y="352" type="line"/>
      <point x="477" y="388"/>
      <point x="497" y="419"/>
      <point x="497" y="453" type="curve" smooth="yes"/>
      <point x="497" y="485"/>
      <point x="484" y="496"/>
      <point x="484" y="522" type="curve" smooth="yes"/>
      <point x="484" y="540"/>
      <point x="484" y="554"/>
      <point x="495" y="561" type="curve" smooth="yes"/>
      <point x="503" y="566" type="line"/>
      <point x="497" y="575"/>
      <point x="479" y="600"/>
      <point x="479" y="600" type="curve" smooth="yes"/>
      <point x="401" y="600"/>
      <point x="366" y="551"/>
      <point x="355" y="502" type="curve"/>
      <point x="338" y="541"/>
      <point x="301" y="592"/>
      <point x="230" y="592" type="curve" smooth="yes"/>
      <point x="156" y="592"/>
      <point x="115" y="543"/>
      <point x="115" y="469" type="curve" smooth="yes"/>
      <point x="115" y="441"/>
      <point x="125" y="417"/>
      <point x="134" y="400" type="curve"/>
      <point x="74" y="365"/>
      <point x="43" y="298"/>
      <point x="43" y="230" type="curve" smooth="yes"/>
      <point x="43" y="118"/>
      <point x="121" y="-1"/>
      <point x="287" y="-1" type="curve" smooth="yes"/>
      <point x="316" y="-1"/>
      <point x="334" y="1"/>
      <point x="345" y="4" type="curve"/>
      <point x="345" y="-206" type="line"/>
      <point x="379" y="-206" type="line"/>
      <point x="379" y="13" type="line"/>
      <point x="462" y="43"/>
      <point x="501" y="91"/>
      <point x="525" y="135" type="curve"/>
      <point x="503" y="153" type="line"/>
      <point x="478" y="109"/>
      <point x="438" y="64"/>
      <point x="379" y="43" type="curve"/>
    </contour>
    <contour>
      <point x="345" y="389"/>
      <point x="345" y="389"/>
      <point x="346" y="389" type="curve"/>
      <point x="346" y="389"/>
      <point x="346" y="389"/>
      <point x="346" y="389" type="curve"/>
    </contour>
    <contour>
      <point x="327" y="410"/>
      <point x="290" y="424"/>
      <point x="230" y="424" type="curve" smooth="yes"/>
      <point x="205" y="424"/>
      <point x="182" y="420"/>
      <point x="162" y="413" type="curve"/>
      <point x="155" y="426"/>
      <point x="148" y="445"/>
      <point x="148" y="470" type="curve" smooth="yes"/>
      <point x="148" y="502"/>
      <point x="154" y="560"/>
      <point x="230" y="560" type="curve" smooth="yes"/>
      <point x="312" y="560"/>
      <point x="346" y="463"/>
      <point x="346" y="399" type="curve"/>
    </contour>
  </outline>
</glyph>
<glyph name="si_Ga" format="1">
  <advance width="678"/>
  <unicode hex="0D9C"/>
  <note>
    si_Ga
  </note>
  <outline>
    <contour>
      <point x="599" y="194"/>
      <point x="563" y="31"/>
      <point x="443" y="31" type="curve" smooth="yes"/>
      <point x="395" y="31"/>
      <point x="377" y="51"/>
      <point x="365" y="70" type="curve"/>
      <point x="386" y="105"/>
      <point x="396" y="152"/>
      <point x="396" y="203" type="curve" smooth="yes"/>
      <point x="396" y="249"/>
      <point x="378" y="305"/>
      <point x="324" y="326" type="curve"/>
      <point x="329" y="343"/>
      <point x="332" y="364"/>
      <point x="332" y="391" type="curve" smooth="yes"/>
      <point x="332" y="486"/>
      <point x="348" y="564"/>
      <point x="436" y="564" type="curve" smooth="yes"/>
      <point x="557" y="564"/>
      <point x="599" y="430"/>
      <point x="599" y="297" type="curve" smooth="yes"/>
    </contour>
    <contour>
      <point x="336" y="288"/>
      <point x="370" y="261"/>
      <point x="370" y="199" type="curve" smooth="yes"/>
      <point x="370" y="55"/>
      <point x="292" y="28"/>
      <point x="232" y="28" type="curve" smooth="yes"/>
      <point x="123" y="28"/>
      <point x="75" y="153"/>
      <point x="75" y="297" type="curve" smooth="yes"/>
      <point x="75" y="427"/>
      <point x="139" y="562"/>
      <point x="226" y="562" type="curve" smooth="yes"/>
      <point x="279" y="562"/>
      <point x="298" y="534"/>
      <point x="316" y="503" type="curve"/>
      <point x="307" y="474"/>
      <point x="302" y="437"/>
      <point x="302" y="392" type="curve" smooth="yes"/>
      <point x="302" y="342"/>
      <point x="299" y="324"/>
      <point x="260" y="267" type="curve"/>
      <point x="282" y="247" type="line"/>
      <point x="295" y="267"/>
      <point x="307" y="283"/>
      <point x="315" y="302" type="curve"/>
    </contour>
    <contour>
      <point x="312" y="564"/>
      <point x="277" y="594"/>
      <point x="227" y="594" type="curve" smooth="yes"/>
      <point x="121" y="594"/>
      <point x="47" y="465"/>
      <point x="47" y="297" type="curve" smooth="yes"/>
      <point x="47" y="127"/>
      <point x="102" y="1"/>
      <point x="230" y="0" type="curve" smooth="yes"/>
      <point x="232" y="0" type="line" smooth="yes"/>
      <point x="284" y="0"/>
      <point x="322" y="18"/>
      <point x="348" y="47" type="curve"/>
      <point x="365" y="26"/>
      <point x="394" y="0"/>
      <point x="440" y="0" type="curve" smooth="yes"/>
      <point x="563" y="0"/>
      <point x="629" y="129"/>
      <point x="629" y="297" type="curve" smooth="yes"/>
      <point x="629" y="467"/>
      <point x="571" y="594"/>
      <point x="436" y="594" type="curve" smooth="yes"/>
      <point x="388" y="594"/>
      <point x="352" y="576"/>
      <point x="330" y="535" type="curve"/>
    </contour>
  </outline>
</glyph>
<glyph name="si_Tta" format="1">
  <advance width="506"/>
  <unicode hex="0DA7"/>
  <note>
    si_Tta
  </note>
  <outline>
    <contour>
      <point x="68" y="586" type="line"/>
      <point x="81" y="627"/>
      <point x="117" y="714"/>
      <point x="221" y="714" type="curve" smooth="yes"/>
      <point x="381" y="714"/>
      <point x="417" y="512"/>
      <point x="417" y="377" type="curve" smooth="yes"/>
      <point x="417" y="237"/>
      <point x="395" y="30"/>
      <point x="225" y="30" type="curve" smooth="yes"/>
      <point x="94" y="30"/>
      <point x="59" y="158"/>
      <point x="59" y="247" type="curve" smooth="yes"/>
      <point x="59" y="341"/>
      <point x="86" y="417"/>
      <point x="170" y="418" type="curve" smooth="yes"/>
      <point x="198" y="418"/>
      <point x="218" y="410"/>
      <point x="233" y="403" type="curve"/>
      <point x="242" y="432" type="line"/>
      <point x="219" y="443"/>
      <point x="196" y="448"/>
      <point x="170" y="448" type="curve" smooth="yes"/>
      <point x="85" y="448"/>
      <point x="27" y="389"/>
      <point x="27" y="247" type="curve" smooth="yes"/>
      <point x="27" y="132"/>
      <point x="77" y="0"/>
      <point x="221" y="0" type="curve" smooth="yes"/>
      <point x="445" y="0"/>
      <point x="449" y="263"/>
      <point x="449" y="377" type="curve" smooth="yes"/>
      <point x="449" y="491"/>
      <point x="424" y="744"/>
      <point x="220" y="744" type="curve" smooth="yes"/>
      <point x="122" y="744"/>
      <point x="60" y="673"/>
      <point x="39" y="596" type="curve"/>
    </contour>
  </outline>
</glyph>
<glyph name="si_Dda" format="1">
  <advance width="607"/>
  <unicode hex="0DA9"/>
  <note>
    si_Dda
  </note>
  <outline>
    <contour>
      <point x="90" y="661" type="line"/>
      <point x="141" y="697"/>
      <point x="192" y="719"/>
      <point x="250" y="719" type="curve" smooth="yes"/>
      <point x="251" y="719"/>
      <point x="253" y="719"/>
      <point x="254" y="719" type="curve" smooth="yes"/>
      <point x="467" y="715"/>
      <point x="526" y="513"/>
      <point x="526" y="300" type="curve" smooth="yes"/>
      <point x="526" y="202"/>
      <point x="507" y="32"/>
      <point x="405" y="32" type="curve" smooth="yes"/>
      <point x="313" y="32"/>
      <point x="306" y="168"/>
      <point x="306" y="238" type="curve"/>
      <point x="274" y="238" type="line"/>
      <point x="274" y="167"/>
      <point x="272" y="32"/>
      <point x="184" y="32" type="curve" smooth="yes"/>
      <point x="111" y="32"/>
      <point x="81" y="109"/>
      <point x="81" y="188" type="curve" smooth="yes"/>
      <point x="81" y="259"/>
      <point x="105" y="311"/>
      <point x="132" y="343" type="curve"/>
      <point x="311" y="343" type="line"/>
      <point x="312" y="351"/>
      <point x="312" y="359"/>
      <point x="312" y="367" type="curve" smooth="yes"/>
      <point x="312" y="456"/>
      <point x="253" y="515"/>
      <point x="184" y="515" type="curve" smooth="yes"/>
      <point x="130" y="515"/>
      <point x="85" y="476"/>
      <point x="85" y="417" type="curve" smooth="yes"/>
      <point x="85" y="403"/>
      <point x="88" y="389"/>
      <point x="93" y="373" type="curve"/>
      <point x="40" y="373" type="line"/>
      <point x="40" y="343" type="line"/>
      <point x="96" y="343" type="line"/>
      <point x="75" y="309"/>
      <point x="49" y="249"/>
      <point x="49" y="185" type="curve" smooth="yes"/>
      <point x="49" y="79"/>
      <point x="97" y="0"/>
      <point x="186" y="0" type="curve" smooth="yes"/>
      <point x="246" y="0"/>
      <point x="277" y="42"/>
      <point x="292" y="88" type="curve"/>
      <point x="308" y="42"/>
      <point x="341" y="0"/>
      <point x="402" y="0" type="curve" smooth="yes"/>
      <point x="527" y="0"/>
      <point x="558" y="150"/>
      <point x="558" y="300" type="curve" smooth="yes"/>
      <point x="558" y="559"/>
      <point x="467" y="751"/>
      <point x="253" y="751" type="curve" smooth="yes"/>
      <point x="194" y="751"/>
      <point x="135" y="732"/>
      <point x="73" y="689" type="curve"/>
    </contour>
    <contour>
      <point x="122" y="374" type="line"/>
      <point x="118" y="385"/>
      <point x="115" y="399"/>
      <point x="115" y="414" type="curve" smooth="yes"/>
      <point x="115" y="450"/>
      <point x="132" y="487"/>
      <point x="186" y="487" type="curve" smooth="yes"/>
      <point x="243" y="487"/>
      <point x="282" y="426"/>
      <point x="282" y="379" type="curve" smooth="yes"/>
      <point x="282" y="377"/>
      <point x="282" y="376"/>
      <point x="282" y="374" type="curve"/>
    </contour>
  </outline>
</glyph>
<glyph name="si_Ddha" format="1">
  <advance width="598"/>
  <unicode hex="0DAA"/>
  <note>
    si_Ddha
  </note>
  <outline>
    <contour>
      <point x="511" y="461"/>
      <point x="526" y="388"/>
      <point x="526" y="300" type="curve" smooth="yes"/>
      <point x="526" y="211"/>
      <point x="506" y="30"/>
      <point x="404" y="30" type="curve" smooth="yes"/>
      <point x="312" y="30"/>
      <point x="306" y="168"/>
      <point x="306" y="238" type="curve"/>
      <point x="274" y="238" type="line"/>
      <point x="274" y="167"/>
      <point x="272" y="30"/>
      <point x="184" y="30" type="curve" smooth="yes"/>
      <point x="111" y="30"/>
      <point x="81" y="109"/>
      <point x="81" y="188" type="curve" smooth="yes"/>
      <point x="81" y="264"/>
      <point x="103" y="319"/>
      <point x="127" y="353" type="curve"/>
      <point x="306" y="353" type="line"/>
      <point x="307" y="361"/>
      <point x="307" y="369"/>
      <point x="307" y="377" type="curve" smooth="yes"/>
      <point x="307" y="466"/>
      <point x="248" y="525"/>
      <point x="179" y="525" type="curve" smooth="yes"/>
      <point x="125" y="525"/>
      <point x="80" y="486"/>
      <point x="80" y="427" type="curve" smooth="yes"/>
      <point x="80" y="413"/>
      <point x="83" y="399"/>
      <point x="88" y="383" type="curve"/>
      <point x="35" y="383" type="line"/>
      <point x="35" y="353" type="line"/>
      <point x="91" y="353" type="line"/>
      <point x="72" y="317"/>
      <point x="49" y="253"/>
      <point x="49" y="185" type="curve" smooth="yes"/>
      <point x="49" y="79"/>
      <point x="97" y="0"/>
      <point x="186" y="0" type="curve" smooth="yes"/>
      <point x="246" y="0"/>
      <point x="277" y="42"/>
      <point x="292" y="88" type="curve"/>
      <point x="308" y="42"/>
      <point x="341" y="0"/>
      <point x="402" y="0" type="curve" smooth="yes"/>
      <point x="527" y="0"/>
      <point x="558" y="150"/>
      <point x="558" y="300" type="curve" smooth="yes"/>
      <point x="558" y="484"/>
      <point x="498" y="606"/>
      <point x="434" y="670" type="curve" smooth="yes"/>
      <point x="385" y="719"/>
      <point x="316" y="746"/>
      <point x="242" y="746" type="curve" smooth="yes"/>
      <point x="229" y="746"/>
      <point x="219" y="745"/>
      <point x="206" y="743" type="curve"/>
      <point x="212" y="714" type="line"/>
      <point x="212" y="713" type="line"/>
      <point x="291" y="713"/>
      <point x="241" y="499"/>
      <point x="402" y="499" type="curve" smooth="yes"/>
      <point x="445" y="499"/>
      <point x="473" y="509"/>
      <point x="490" y="518" type="curve"/>
    </contour>
    <contour>
      <point x="328" y="703"/>
      <point x="385" y="676"/>
      <point x="410" y="650" type="curve" smooth="yes"/>
      <point x="431" y="629"/>
      <point x="459" y="589"/>
      <point x="479" y="549" type="curve"/>
      <point x="468" y="539"/>
      <point x="445" y="529"/>
      <point x="400" y="529" type="curve" smooth="yes"/>
      <point x="294" y="529"/>
      <point x="312" y="672"/>
      <point x="270" y="712" type="curve"/>
    </contour>
    <contour>
      <point x="120" y="384" type="line"/>
      <point x="115" y="396"/>
      <point x="112" y="411"/>
      <point x="112" y="426" type="curve" smooth="yes"/>
      <point x="112" y="459"/>
      <point x="128" y="493"/>
      <point x="181" y="493" type="curve" smooth="yes"/>
      <point x="241" y="493"/>
      <point x="275" y="436"/>
      <point x="275" y="390" type="curve" smooth="yes"/>
      <point x="275" y="388"/>
      <point x="275" y="386"/>
      <point x="275" y="384" type="curve"/>
    </contour>
  </outline>
</glyph>
<glyph name="si_Nna" format="1">
  <advance width="879"/>
  <unicode hex="0DAB"/>
  <note>
    si_Nna
  </note>
  <outline>
    <contour>
      <point x="51" y="39" type="line"/>
      <point x="78" y="23" type="line"/>
      <point x="83" y="30"/>
      <point x="99" y="37"/>
      <point x="115" y="37" type="curve" smooth="yes"/>
      <point x="140" y="37"/>
      <point x="179" y="-6"/>
      <point x="264" y="-6" type="curve" smooth="yes"/>
      <point x="401" y="-6"/>
      <point x="478" y="89"/>
      <point x="478" y="272" type="curve" smooth="yes"/>
      <point x="478" y="322"/>
      <point x="469" y="376"/>
      <point x="452" y="421" type="curve"/>
      <point x="455" y="461"/>
      <point x="470" y="519"/>
      <point x="534" y="519" type="curve" smooth="yes"/>
      <point x="595" y="519"/>
      <point x="609" y="427"/>
      <point x="609" y="369" type="curve" smooth="yes"/>
      <point x="609" y="249" type="line"/>
      <point x="641" y="249" type="line"/>
      <point x="641" y="370" type="line" smooth="yes"/>
      <point x="641" y="427"/>
      <point x="641" y="519"/>
      <point x="713" y="519" type="curve" smooth="yes"/>
      <point x="802" y="519"/>
      <point x="803" y="379"/>
      <point x="803" y="260" type="curve" smooth="yes"/>
      <point x="803" y="252" type="line" smooth="yes"/>
      <point x="803" y="141"/>
      <point x="803" y="24"/>
      <point x="670" y="24" type="curve" smooth="yes"/>
      <point x="613" y="24"/>
      <point x="562" y="41"/>
      <point x="561" y="146" type="curve"/>
      <point x="529" y="146" type="line"/>
      <point x="529" y="144"/>
      <point x="529" y="142"/>
      <point x="529" y="141" type="curve" smooth="yes"/>
      <point x="529" y="79"/>
      <point x="547" y="-7"/>
      <point x="668" y="-7" type="curve" smooth="yes"/>
      <point x="836" y="-7"/>
      <point x="835" y="130"/>
      <point x="835" y="253" type="curve" smooth="yes"/>
      <point x="835" y="411"/>
      <point x="829" y="549"/>
      <point x="711" y="549" type="curve" smooth="yes"/>
      <point x="667" y="549"/>
      <point x="639" y="520"/>
      <point x="623" y="484" type="curve"/>
      <point x="608" y="517"/>
      <point x="579" y="549"/>
      <point x="535" y="549" type="curve" smooth="yes"/>
      <point x="468" y="549"/>
      <point x="442" y="499"/>
      <point x="432" y="462" type="curve"/>
      <point x="423" y="478"/>
      <point x="412" y="491"/>
      <point x="400" y="502" type="curve"/>
      <point x="535" y="712" type="line"/>
      <point x="510" y="727" type="line"/>
      <point x="375" y="523" type="line"/>
      <point x="360" y="536"/>
      <point x="320" y="562"/>
      <point x="254" y="562" type="curve" smooth="yes"/>
      <point x="154" y="562"/>
      <point x="43" y="478"/>
      <point x="43" y="331" type="curve" smooth="yes"/>
      <point x="43" y="241"/>
      <point x="98" y="180"/>
      <point x="134" y="162" type="curve"/>
    </contour>
    <contour>
      <point x="162" y="310"/>
      <point x="197" y="349"/>
      <point x="245" y="349" type="curve" smooth="yes"/>
      <point x="303" y="349"/>
      <point x="330" y="302"/>
      <point x="330" y="258" type="curve" smooth="yes"/>
      <point x="330" y="204"/>
      <point x="297" y="164"/>
      <point x="244" y="164" type="curve" smooth="yes"/>
      <point x="191" y="164"/>
      <point x="162" y="204"/>
      <point x="162" y="258" type="curve" smooth="yes"/>
    </contour>
    <contour>
      <point x="392" y="490" type="line"/>
      <point x="392" y="490"/>
      <point x="392" y="490"/>
      <point x="393" y="491" type="curve"/>
    </contour>
    <contour>
      <point x="383" y="476" type="line"/>
      <point x="410" y="449"/>
      <point x="446" y="392"/>
      <point x="446" y="272" type="curve" smooth="yes"/>
      <point x="446" y="117"/>
      <point x="378" y="24"/>
      <point x="264" y="24" type="curve" smooth="yes"/>
      <point x="188" y="24"/>
      <point x="159" y="68"/>
      <point x="118" y="68" type="curve" smooth="yes"/>
      <point x="114" y="68"/>
      <point x="111" y="68"/>
      <point x="107" y="67" type="curve"/>
      <point x="166" y="149" type="line"/>
      <point x="185" y="144"/>
      <point x="201" y="134"/>
      <point x="243" y="134" type="curve" smooth="yes"/>
      <point x="308" y="134"/>
      <point x="362" y="190"/>
      <point x="362" y="256" type="curve" smooth="yes"/>
      <point x="362" y="300"/>
      <point x="340" y="339"/>
      <point x="307" y="361" type="curve"/>
    </contour>
    <contour>
      <point x="278" y="374" type="line"/>
      <point x="268" y="377"/>
      <point x="258" y="379"/>
      <point x="247" y="379" type="curve" smooth="yes"/>
      <point x="182" y="379"/>
      <point x="130" y="325"/>
      <point x="130" y="259" type="curve" smooth="yes"/>
      <point x="130" y="234"/>
      <point x="135" y="210"/>
      <point x="146" y="190" type="curve"/>
      <point x="115" y="212"/>
      <point x="75" y="252"/>
      <point x="75" y="334" type="curve" smooth="yes"/>
      <point x="75" y="477"/>
      <point x="196" y="532"/>
      <point x="255" y="532" type="curve" smooth="yes"/>
      <point x="319" y="532"/>
      <point x="344" y="509"/>
      <point x="359" y="500" type="curve"/>
    </contour>
  </outline>
</glyph>
<glyph name="si_Da" format="1">
  <advance width="477"/>
  <unicode hex="0DAF"/>
  <note>
	si_Da
  </note>
  <outline>
    <contour>
      <point x="391" y="-55" type="line"/>
      <point x="369" y="-85"/>
      <point x="342" y="-97"/>
      <point x="317" y="-97" type="curve" smooth="yes"/>
      <point x="285" y="-97"/>
      <point x="269" y="-71"/>
      <point x="269" y="-43" type="curve" smooth="yes"/>
      <point x="269" y="-27"/>
      <point x="275" y="-9"/>
      <point x="286" y="4" type="curve"/>
      <point x="340" y="14"/>
      <point x="388" y="47"/>
      <point x="420" y="93" type="curve"/>
      <point x="334" y="155" type="line"/>
      <point x="314" y="131"/>
      <point x="282" y="116"/>
      <point x="247" y="116" type="curve" smooth="yes"/>
      <point x="191" y="116"/>
      <point x="146" y="161"/>
      <point x="146" y="217" type="curve" smooth="yes"/>
      <point x="146" y="273"/>
      <point x="191" y="318"/>
      <point x="247" y="318" type="curve" smooth="yes"/>
      <point x="376" y="318" type="line"/>
      <point x="388" y="357"/>
      <point x="395" y="399"/>
      <point x="395" y="430" type="curve" smooth="yes"/>
      <point x="395" y="539"/>
      <point x="324" y="596"/>
      <point x="247" y="596" type="curve" smooth="yes"/>
      <point x="160" y="596"/>
      <point x="108" y="534"/>
      <point x="108" y="458" type="curve" smooth="yes"/>
      <point x="108" y="433"/>
      <point x="114" y="410"/>
      <point x="128" y="388" type="curve"/>
      <point x="69" y="352"/>
      <point x="30" y="289"/>
      <point x="30" y="217" type="curve" smooth="yes"/>
      <point x="30" y="121"/>
      <point x="93" y="39"/>
      <point x="179" y="11" type="curve"/>
      <point x="168" y="-12"/>
      <point x="162" y="-35"/>
      <point x="162" y="-57" type="curve" smooth="yes"/>
      <point x="162" y="-133"/>
      <point x="225" y="-202"/>
      <point x="317" y="-202" type="curve" smooth="yes"/>
      <point x="367" y="-202"/>
      <point x="422" y="-176"/>
      <point x="468" y="-107" type="curve"/>
    </contour>
    <contour>
      <point x="213" y="419" type="line"/>
      <point x="205" y="428"/>
      <point x="201" y="441"/>
      <point x="201" y="453" type="curve" smooth="yes"/>
      <point x="201" y="477"/>
      <point x="218" y="498"/>
      <point x="247" y="498" type="curve" smooth="yes"/>
      <point x="276" y="498"/>
      <point x="297" y="474"/>
      <point x="297" y="436" type="curve" smooth="yes"/>
      <point x="297" y="430"/>
      <point x="297" y="424"/>
      <point x="296" y="418" type="curve"/>
      <point x="278" y="420"/>
      <point x="266" y="421"/>
      <point x="247" y="421" type="curve" smooth="yes"/>
      <point x="235" y="421"/>
      <point x="223" y="420"/>
      <point x="212" y="418" type="curve"/>
    </contour>
  </outline>
</glyph>
<glyph name="si_Pha" format="1">
  <advance width="564"/>
  <unicode hex="0DB5"/>
  <note>
	si_Pha
  </note>
  <outline>
    <contour>
      <point x="167" y="115"/>
      <point x="141" y="174"/>
      <point x="141" y="227" type="curve" smooth="yes"/>
      <point x="141" y="271"/>
      <point x="153" y="306"/>
      <point x="209" y="306" type="curve" smooth="yes"/>
      <point x="334" y="306" type="line"/>
      <point x="338" y="325"/>
      <point x="341" y="351"/>
      <point x="341" y="366" type="curve" smooth="yes"/>
      <point x="341" y="475"/>
      <point x="270" y="532"/>
      <point x="193" y="532" type="curve" smooth="yes"/>
      <point x="119" y="532"/>
      <point x="70" y="481"/>
      <point x="70" y="409" type="curve" smooth="yes"/>
      <point x="70" y="393"/>
      <point x="73" y="377"/>
      <point x="79" y="361" type="curve"/>
      <point x="50" y="335"/>
      <point x="30" y="279"/>
      <point x="30" y="219" type="curve" smooth="yes"/>
      <point x="30" y="137"/>
      <point x="82" y="0"/>
      <point x="260" y="0" type="curve" smooth="yes"/>
      <point x="440" y="0"/>
      <point x="534" y="104"/>
      <point x="534" y="340" type="curve" smooth="yes"/>
      <point x="534" y="556"/>
      <point x="471" y="728"/>
      <point x="333" y="819" type="curve"/>
      <point x="261" y="735" type="line"/>
      <point x="273" y="726"/>
      <point x="277" y="719"/>
      <point x="277" y="712" type="curve" smooth="yes"/>
      <point x="277" y="690"/>
      <point x="236" y="669"/>
      <point x="236" y="613" type="curve" smooth="yes"/>
      <point x="236" y="527"/>
      <point x="333" y="466"/>
      <point x="411" y="463" type="curve"/>
      <point x="416" y="424"/>
      <point x="419" y="383"/>
      <point x="419" y="340" type="curve" smooth="yes"/>
      <point x="419" y="181"/>
      <point x="364" y="115"/>
      <point x="260" y="115" type="curve" smooth="yes"/>
    </contour>
    <contour>
      <point x="166" y="391" type="line" smooth="yes"/>
      <point x="164" y="391"/>
      <point x="163" y="391"/>
      <point x="161" y="391" type="curve"/>
      <point x="160" y="396"/>
      <point x="159" y="400"/>
      <point x="159" y="405" type="curve" smooth="yes"/>
      <point x="159" y="426"/>
      <point x="168" y="444"/>
      <point x="193" y="444" type="curve" smooth="yes"/>
      <point x="226" y="444"/>
      <point x="244" y="419"/>
      <point x="245" y="391" type="curve"/>
    </contour>
    <contour>
      <point x="363" y="625"/>
      <point x="378" y="594"/>
      <point x="389" y="560" type="curve"/>
      <point x="343" y="565"/>
      <point x="323" y="592"/>
      <point x="323" y="616" type="curve" smooth="yes"/>
      <point x="323" y="631"/>
      <point x="331" y="645"/>
      <point x="345" y="653" type="curve"/>
    </contour>
  </outline>
</glyph>
<glyph name="si_Ra" format="1">
  <advance width="475"/>
  <unicode hex="0DBB"/>
  <note>
	si_Ra
  </note>
  <outline>
    <contour>
      <point x="314" y="474"/>
      <point x="341" y="389"/>
      <point x="341" y="295" type="curve" smooth="yes"/>
      <point x="341" y="199"/>
      <point x="314" y="120"/>
      <point x="239" y="120" type="curve" smooth="yes"/>
      <point x="162" y="120"/>
      <point x="133" y="199"/>
      <point x="133" y="295" type="curve" smooth="yes"/>
      <point x="133" y="389"/>
      <point x="162" y="474"/>
      <point x="239" y="474" type="curve" smooth="yes"/>
    </contour>
    <contour>
      <point x="263" y="779" type="line"/>
      <point x="263" y="723"/>
      <point x="230" y="679"/>
      <point x="186" y="630" type="curve" smooth="yes"/>
      <point x="156" y="596"/>
      <point x="128" y="564"/>
      <point x="111" y="545" type="curve"/>
      <point x="57" y="492"/>
      <point x="30" y="402"/>
      <point x="30" y="297" type="curve" smooth="yes"/>
      <point x="30" y="127"/>
      <point x="98" y="0"/>
      <point x="238" y="0" type="curve" smooth="yes"/>
      <point x="378" y="0"/>
      <point x="446" y="127"/>
      <point x="446" y="297" type="curve" smooth="yes"/>
      <point x="446" y="443"/>
      <point x="395" y="559"/>
      <point x="290" y="587" type="curve"/>
      <point x="298" y="596"/>
      <point x="305" y="604"/>
      <point x="312" y="612" type="curve" smooth="yes"/>
      <point x="350" y="655"/>
      <point x="374" y="720"/>
      <point x="374" y="779" type="curve"/>
    </contour>
  </outline>
</glyph>
<glyph name="si_Va" format="1">
  <advance width="534"/>
  <unicode hex="0DC0"/>
  <note>
    si_Va
  </note>
  <outline>
    <contour>
      <point x="504" y="546"/>
      <point x="454" y="756"/>
      <point x="247" y="756" type="curve" smooth="yes"/>
      <point x="159" y="756"/>
      <point x="72" y="707"/>
      <point x="40" y="613" type="curve"/>
      <point x="69" y="603" type="line"/>
      <point x="98" y="682"/>
      <point x="174" y="723"/>
      <point x="244" y="723" type="curve" smooth="yes"/>
      <point x="415" y="723"/>
      <point x="472" y="557"/>
      <point x="472" y="376" type="curve" smooth="yes"/>
      <point x="472" y="196"/>
      <point x="435" y="32"/>
      <point x="248" y="32" type="curve" smooth="yes"/>
      <point x="147" y="32"/>
      <point x="58" y="91"/>
      <point x="58" y="218" type="curve" smooth="yes"/>
      <point x="58" y="292"/>
      <point x="81" y="355"/>
      <point x="146" y="355" type="curve" smooth="yes"/>
      <point x="311" y="355" type="line"/>
      <point x="311" y="355"/>
      <point x="311" y="355"/>
      <point x="311" y="355" type="curve"/>
      <point x="315" y="355" type="line"/>
      <point x="316" y="364"/>
      <point x="317" y="373"/>
      <point x="317" y="381" type="curve" smooth="yes"/>
      <point x="317" y="469"/>
      <point x="262" y="526"/>
      <point x="194" y="526" type="curve" smooth="yes"/>
      <point x="137" y="526"/>
      <point x="96" y="485"/>
      <point x="96" y="431" type="curve" smooth="yes"/>
      <point x="96" y="415"/>
      <point x="99" y="398"/>
      <point x="108" y="381" type="curve"/>
      <point x="70" y="366"/>
      <point x="25" y="321"/>
      <point x="25" y="219" type="curve" smooth="yes"/>
      <point x="25" y="116"/>
      <point x="83" y="0"/>
      <point x="245" y="0" type="curve" smooth="yes"/>
      <point x="500" y="0"/>
      <point x="504" y="265"/>
      <point x="504" y="377" type="curve" smooth="yes"/>
    </contour>
    <contour>
      <point x="138" y="387" type="line"/>
      <point x="130" y="399"/>
      <point x="125" y="415"/>
      <point x="125" y="431" type="curve" smooth="yes"/>
      <point x="125" y="464"/>
      <point x="145" y="496"/>
      <point x="196" y="496" type="curve" smooth="yes"/>
      <point x="251" y="496"/>
      <point x="284" y="438"/>
      <point x="284" y="392" type="curve" smooth="yes"/>
      <point x="284" y="390"/>
      <point x="284" y="388"/>
      <point x="284" y="386" type="curve"/>
    </contour>
  </outline>
</glyph>
